<svg width="89" height="89" viewBox="0 0 89 89" fill="none" xmlns="http://www.w3.org/2000/svg">
<g opacity="0.6">
<path d="M26.167 77.5C24.1503 77.5 22.4246 76.7826 20.9897 75.3477C19.5548 73.9128 18.8361 72.1858 18.8337 70.1667V22.5C17.7948 22.5 16.9246 22.148 16.223 21.444C15.5214 20.74 15.1694 19.8698 15.167 18.8333C15.1646 17.7969 15.5166 16.9267 16.223 16.2227C16.9294 15.5187 17.7997 15.1667 18.8337 15.1667H33.5003C33.5003 14.1278 33.8523 13.2576 34.5563 12.556C35.2603 11.8544 36.1306 11.5024 37.167 11.5H51.8337C52.8726 11.5 53.744 11.852 54.448 12.556C55.152 13.26 55.5028 14.1302 55.5003 15.1667H70.167C71.2059 15.1667 72.0773 15.5187 72.7813 16.2227C73.4853 16.9267 73.8361 17.7969 73.8337 18.8333C73.8312 19.8698 73.4792 20.7412 72.7777 21.4477C72.0761 22.1541 71.2059 22.5049 70.167 22.5V70.1667C70.167 72.1833 69.4496 73.9103 68.0147 75.3477C66.5798 76.785 64.8528 77.5024 62.8337 77.5H26.167ZM37.167 62.8333C38.2059 62.8333 39.0773 62.4813 39.7813 61.7773C40.4853 61.0733 40.8361 60.2031 40.8337 59.1667V33.5C40.8337 32.4611 40.4817 31.5909 39.7777 30.8893C39.0737 30.1878 38.2034 29.8358 37.167 29.8333C36.1306 29.8309 35.2603 30.1829 34.5563 30.8893C33.8523 31.5958 33.5003 32.466 33.5003 33.5V59.1667C33.5003 60.2056 33.8523 61.077 34.5563 61.781C35.2603 62.485 36.1306 62.8358 37.167 62.8333ZM51.8337 62.8333C52.8726 62.8333 53.744 62.4813 54.448 61.7773C55.152 61.0733 55.5028 60.2031 55.5003 59.1667V33.5C55.5003 32.4611 55.1483 31.5909 54.4443 30.8893C53.7403 30.1878 52.8701 29.8358 51.8337 29.8333C50.7972 29.8309 49.927 30.1829 49.223 30.8893C48.519 31.5958 48.167 32.466 48.167 33.5V59.1667C48.167 60.2056 48.519 61.077 49.223 61.781C49.927 62.485 50.7972 62.8358 51.8337 62.8333Z" fill="#E6968A"/>
</g>
</svg>
