<svg width="25" height="24" viewBox="0 0 25 24" fill="none" xmlns="http://www.w3.org/2000/svg">
<path d="M18.55 5.71022C18.4575 5.61752 18.3476 5.54397 18.2266 5.49379C18.1056 5.44361 17.9759 5.41778 17.845 5.41778C17.714 5.41778 17.5843 5.44361 17.4634 5.49379C17.3424 5.54397 17.2325 5.61752 17.14 5.71022L12.25 10.5902L7.35998 5.70022C7.2674 5.60764 7.15749 5.5342 7.03652 5.4841C6.91556 5.43399 6.78591 5.4082 6.65498 5.4082C6.52405 5.4082 6.3944 5.43399 6.27344 5.4841C6.15247 5.5342 6.04256 5.60764 5.94998 5.70022C5.8574 5.79281 5.78396 5.90272 5.73385 6.02368C5.68375 6.14464 5.65796 6.27429 5.65796 6.40522C5.65796 6.53615 5.68375 6.6658 5.73385 6.78677C5.78396 6.90773 5.8574 7.01764 5.94998 7.11022L10.84 12.0002L5.94998 16.8902C5.8574 16.9828 5.78396 17.0927 5.73385 17.2137C5.68375 17.3346 5.65796 17.4643 5.65796 17.5952C5.65796 17.7262 5.68375 17.8558 5.73385 17.9768C5.78396 18.0977 5.8574 18.2076 5.94998 18.3002C6.04256 18.3928 6.15247 18.4662 6.27344 18.5163C6.3944 18.5665 6.52405 18.5922 6.65498 18.5922C6.78591 18.5922 6.91556 18.5665 7.03652 18.5163C7.15749 18.4662 7.2674 18.3928 7.35998 18.3002L12.25 13.4102L17.14 18.3002C17.2326 18.3928 17.3425 18.4662 17.4634 18.5163C17.5844 18.5665 17.714 18.5922 17.845 18.5922C17.9759 18.5922 18.1056 18.5665 18.2265 18.5163C18.3475 18.4662 18.4574 18.3928 18.55 18.3002C18.6426 18.2076 18.716 18.0977 18.7661 17.9768C18.8162 17.8558 18.842 17.7262 18.842 17.5952C18.842 17.4643 18.8162 17.3346 18.7661 17.2137C18.716 17.0927 18.6426 16.9828 18.55 16.8902L13.66 12.0002L18.55 7.11022C18.93 6.73022 18.93 6.09022 18.55 5.71022Z" fill="#214999"/>
</svg>
