<svg width="16" height="16" viewBox="0 0 16 16" fill="none" xmlns="http://www.w3.org/2000/svg">
<path d="M12.2 3.80682C12.1384 3.74501 12.0651 3.69598 11.9844 3.66253C11.9038 3.62907 11.8173 3.61185 11.73 3.61185C11.6427 3.61185 11.5563 3.62907 11.4756 3.66253C11.395 3.69598 11.3217 3.74501 11.26 3.80682L8.00003 7.06015L4.74003 3.80015C4.67831 3.73843 4.60503 3.68947 4.52439 3.65606C4.44375 3.62266 4.35731 3.60547 4.27003 3.60547C4.18274 3.60547 4.09631 3.62266 4.01566 3.65606C3.93502 3.68947 3.86175 3.73843 3.80003 3.80015C3.73831 3.86187 3.68935 3.93514 3.65594 4.01579C3.62254 4.09643 3.60535 4.18286 3.60535 4.27015C3.60535 4.35744 3.62254 4.44387 3.65594 4.52451C3.68935 4.60515 3.73831 4.67843 3.80003 4.74015L7.06003 8.00015L3.80003 11.2601C3.73831 11.3219 3.68935 11.3951 3.65594 11.4758C3.62254 11.5564 3.60535 11.6429 3.60535 11.7301C3.60535 11.8174 3.62254 11.9039 3.65594 11.9845C3.68935 12.0652 3.73831 12.1384 3.80003 12.2001C3.86175 12.2619 3.93502 12.3108 4.01566 12.3442C4.09631 12.3776 4.18274 12.3948 4.27003 12.3948C4.35731 12.3948 4.44375 12.3776 4.52439 12.3442C4.60503 12.3108 4.67831 12.2619 4.74003 12.2001L8.00003 8.94015L11.26 12.2001C11.3217 12.2619 11.395 12.3108 11.4757 12.3442C11.5563 12.3776 11.6427 12.3948 11.73 12.3948C11.8173 12.3948 11.9037 12.3776 11.9844 12.3442C12.065 12.3108 12.1383 12.2619 12.2 12.2001C12.2617 12.1384 12.3107 12.0652 12.3441 11.9845C12.3775 11.9039 12.3947 11.8174 12.3947 11.7301C12.3947 11.6429 12.3775 11.5564 12.3441 11.4758C12.3107 11.3951 12.2617 11.3219 12.2 11.2601L8.94003 8.00015L12.2 4.74015C12.4534 4.48682 12.4534 4.06015 12.2 3.80682Z" fill="#214999"/>
</svg>
