<svg width="20" height="20" viewBox="0 0 20 20" fill="none" xmlns="http://www.w3.org/2000/svg">
<path d="M16.5 6C16.5 5.17157 15.8284 4.5 15 4.5H5C4.17157 4.5 3.5 5.17157 3.5 6V14C3.5 14.8284 4.17157 15.5 5 15.5H15C15.8284 15.5 16.5 14.8284 16.5 14V6ZM8.5 12.5H5.5V13C5.5 13.2761 5.72386 13.5 6 13.5H8C8.27614 13.5 8.5 13.2761 8.5 13V12.5ZM14.5 12.5H11.5V13C11.5 13.2761 11.7239 13.5 12 13.5H14C14.2761 13.5 14.5 13.2761 14.5 13V12.5ZM14.5 7C14.5 6.72386 14.2761 6.5 14 6.5H6C5.72386 6.5 5.5 6.72386 5.5 7V9.5H14.5V7ZM9.5 13C9.5 13.8284 8.82843 14.5 8 14.5H6C5.17157 14.5 4.5 13.8284 4.5 13V11.5H9.5V13ZM15.5 13C15.5 13.8284 14.8284 14.5 14 14.5H12C11.1716 14.5 10.5 13.8284 10.5 13V11.5H15.5V13ZM15.5 10.5H4.5V7C4.5 6.17157 5.17157 5.5 6 5.5H14C14.8284 5.5 15.5 6.17157 15.5 7V10.5ZM17.5 14C17.5 15.3807 16.3807 16.5 15 16.5H5C3.61929 16.5 2.5 15.3807 2.5 14V6C2.5 4.61929 3.61929 3.5 5 3.5H15C16.3807 3.5 17.5 4.61929 17.5 6V14Z" fill="#81838C"/>
</svg>
