<svg width="24" height="24" viewBox="0 0 24 24" fill="none" xmlns="http://www.w3.org/2000/svg">
<path d="M3 8.21053H21M11.0526 16.7368H16.7368M7.26316 16.7368H8.21053M11.0526 12.9474H16.7368M7.26316 12.9474H8.21053M3 12C3 7.75768 3 5.63558 4.31779 4.31779C5.63558 3 7.75674 3 12.0009 3C16.2433 3 18.3644 3 19.6822 4.31779C21 5.63558 21 7.75674 21 12C21 16.2423 21 18.3644 19.6822 19.6822C18.3644 21 16.2433 21 12 21C7.75768 21 5.63653 21 4.31779 19.6822C3.00095 18.3635 3 16.2433 3 12Z" stroke="#55565C" stroke-width="1.2" stroke-linecap="round" stroke-linejoin="round"/>
</svg>
