<svg width="18" height="18" viewBox="0 0 18 18" fill="none" xmlns="http://www.w3.org/2000/svg">
<path d="M3.3125 6.25H5.5C5.56977 6.25 5.625 6.30523 5.625 6.375V11.625C5.625 13.4884 7.13657 15 9 15C10.8634 15 12.375 13.4884 12.375 11.625V6.375C12.375 6.30523 12.4302 6.25 12.5 6.25H14.6875C14.9979 6.25 15.25 6.5021 15.25 6.8125V14.6875C15.25 14.9979 14.9979 15.25 14.6875 15.25H3.3125C3.0021 15.25 2.75 14.9979 2.75 14.6875V6.8125C2.75 6.5021 3.0021 6.25 3.3125 6.25ZM9 2.75C9.06977 2.75 9.125 2.80523 9.125 2.875V10.5439L9.50098 10.7598C9.79974 10.9319 10 11.2554 10 11.625C10 12.176 9.55102 12.625 9 12.625C8.44898 12.625 8 12.176 8 11.625C8 11.2572 8.19917 10.9348 8.50195 10.7588L8.875 10.542V2.875C8.875 2.80523 8.93023 2.75 9 2.75Z" stroke="#214999" stroke-width="1.5"/>
</svg>
