<svg width="18" height="18" viewBox="0 0 18 18" fill="none" xmlns="http://www.w3.org/2000/svg">
<g clip-path="url(#clip0_2217_21917)">
<path d="M17.25 17.6251V12.3751H16.875C16.875 12.3751 11.25 15.7501 0.75 17.2501M7.06875 10.5121C7.36014 11.1284 7.45465 11.8194 7.33944 12.4912C7.22423 13.1631 6.90488 13.7832 6.42483 14.2671C5.94478 14.7511 5.32733 15.0754 4.65643 15.1961C3.98553 15.3167 3.29376 15.2278 2.67518 14.9414C2.0566 14.655 1.54123 14.1851 1.19917 13.5954C0.857111 13.0058 0.704952 12.3252 0.763388 11.646C0.821824 10.9669 1.08802 10.3222 1.52577 9.79967C1.96352 9.27715 2.55159 8.90213 3.21 8.72562L3.26175 7.19862C3.27812 6.71664 3.44892 6.25267 3.74896 5.87512C4.049 5.49756 4.46242 5.22641 4.92825 5.10162L5.70975 4.89162L6.48 7.76637M7.06875 10.5121C6.73633 9.80984 6.16804 9.24646 5.46291 8.92014C4.75777 8.59381 3.9605 8.52524 3.21 8.72637M7.06875 10.5121H7.21575L9.2655 9.96312L9.516 10.8999C9.864 12.1974 10.6785 12.8521 11.976 13.2474M5.24175 3.55212C5.24175 3.55212 3.966 3.16212 3.73725 2.30862C3.69517 2.15162 3.68444 1.98788 3.70565 1.82673C3.72687 1.66558 3.77962 1.5102 3.8609 1.36944C3.94218 1.22869 4.05039 1.10532 4.17935 1.00639C4.30831 0.907462 4.45549 0.834906 4.6125 0.792868C4.76935 0.750945 4.93292 0.740354 5.09387 0.761699C5.25482 0.783045 5.40997 0.83591 5.55047 0.917269C5.69097 0.998629 5.81405 1.10689 5.91268 1.23585C6.0113 1.36482 6.08354 1.51196 6.12525 1.66887C6.354 2.52237 5.44725 3.49812 5.44725 3.49812L5.24175 3.55212Z" stroke="#214999" stroke-width="1.5"/>
</g>
<defs>
<clipPath id="clip0_2217_21917">
<rect width="18" height="18" fill="white"/>
</clipPath>
</defs>
</svg>
