<svg width="18" height="18" viewBox="0 0 18 18" fill="none" xmlns="http://www.w3.org/2000/svg">
<path d="M13.5 2.25V6M4.5 2.25V6M15.375 3V4.125M15.375 4.125V5.25M15.375 4.125H16.5M2.625 3V4.125M2.625 4.125V5.25M2.625 4.125H1.5M13.5 4.125H4.5M6.75 6V12M11.25 6V12M12 14.25V15.75M6 14.25V15.75M5.45775 14.25H12.543C13.4708 14.25 13.935 14.25 14.127 14.0228C14.562 13.5083 13.728 12.8272 13.4235 12.4845C13.0808 12.0975 12.8295 12 12.3225 12H5.6775C5.1705 12 4.92 12.0975 4.5765 12.4845C4.272 12.8272 3.438 13.5083 3.873 14.0228C4.065 14.25 4.53 14.25 5.45775 14.25Z" stroke="#214999" stroke-width="1.5" stroke-linecap="round" stroke-linejoin="round"/>
</svg>
