<svg width="18" height="18" viewBox="0 0 18 18" fill="none" xmlns="http://www.w3.org/2000/svg">
<path d="M9.24285 5.84843C9.56776 5.85901 9.89148 5.80416 10.1948 5.68713C10.4981 5.5701 10.7747 5.39328 11.0083 5.16718C11.2419 4.94109 11.4276 4.67033 11.5545 4.37102C11.6813 4.0717 11.7467 3.74994 11.7467 3.42486C11.7467 3.09977 11.6813 2.77801 11.5545 2.4787C11.4276 2.17938 11.2419 1.90863 11.0083 1.68253C10.7747 1.45644 10.4981 1.27962 10.1948 1.16259C9.89148 1.04556 9.56776 0.990701 9.24285 1.00129C8.59974 1.00129 7.98297 1.25676 7.52822 1.71151C7.07347 2.16626 6.81799 2.78303 6.81799 3.42614C6.81799 4.06926 7.07347 4.68603 7.52822 5.14078C7.98297 5.59552 8.59974 5.851 9.24285 5.851" stroke="#214999" stroke-width="1.5" stroke-linecap="round" stroke-linejoin="round"/>
<path d="M13.487 10.0941C13.487 8.96864 13.0399 7.88929 12.2441 7.09348C11.4483 6.29767 10.3689 5.85059 9.2435 5.85059C8.11805 5.85059 7.0387 6.29767 6.24289 7.09348C5.44708 7.88929 5 8.96864 5 10.0941V11.9121H6.81929L7.42486 16.7618H11.0634L11.6677 11.9121H13.487V10.0941Z" stroke="#214999" stroke-width="1.5" stroke-linecap="round" stroke-linejoin="round"/>
</svg>
