<svg width="18" height="18" viewBox="0 0 18 18" fill="none" xmlns="http://www.w3.org/2000/svg">
<path d="M5.25001 9H15C15.1989 9 15.3897 9.07902 15.5303 9.21967C15.671 9.36032 15.75 9.55109 15.75 9.75C15.75 10.7446 15.3549 11.6984 14.6517 12.4017C13.9484 13.1049 12.9946 13.5 12 13.5H11.5515C11.4846 13.5 11.4189 13.5179 11.3612 13.5519C11.3035 13.5859 11.256 13.6347 11.2235 13.6932C11.1911 13.7518 11.1749 13.8179 11.1766 13.8848C11.1784 13.9518 11.198 14.017 11.2335 14.0737L12.3915 15.9263C12.427 15.983 12.4466 16.0482 12.4484 16.1152C12.4501 16.1821 12.434 16.2482 12.4015 16.3068C12.3691 16.3653 12.3215 16.4141 12.2638 16.4481C12.2062 16.4821 12.1405 16.5 12.0735 16.5H4.05151C3.98458 16.5 3.91886 16.4821 3.86118 16.4481C3.8035 16.4141 3.75597 16.3653 3.72352 16.3068C3.69107 16.2482 3.67489 16.1821 3.67664 16.1152C3.6784 16.0482 3.69804 15.983 3.73351 15.9263L5.25001 13.5" stroke="#214999" stroke-width="1.5" stroke-linecap="round" stroke-linejoin="round"/>
<path d="M6 13.5C5.00544 13.5 4.05161 13.1049 3.34835 12.4017C2.64509 11.6984 2.25 10.7446 2.25 9.75V3C2.25 2.60218 2.40804 2.22064 2.68934 1.93934C2.97064 1.65804 3.35218 1.5 3.75 1.5H9.75C10.1478 1.5 10.5294 1.65804 10.8107 1.93934C11.092 2.22064 11.25 2.60218 11.25 3V9" stroke="#214999" stroke-width="1.5" stroke-linecap="round" stroke-linejoin="round"/>
</svg>
