<svg width="18" height="18" viewBox="0 0 18 18" fill="none" xmlns="http://www.w3.org/2000/svg">
<path d="M14.625 11.25H11.25V10.125H14.625V11.25ZM16.875 15.75H13.5V14.625H16.875V15.75ZM15.75 13.5H12.375V12.375H15.75V13.5Z" fill="#214999"/>
<path d="M9.56416 11.25C9.55992 10.7754 9.43322 10.31 9.19631 9.89875C8.9594 9.48752 8.62033 9.14442 8.21191 8.90269L12.375 1.6875L11.4018 1.125L7.13978 8.50838C6.61671 8.39158 6.07271 8.40776 5.55751 8.55545C5.0423 8.70314 4.57235 8.97763 4.1906 9.35381C2.0846 11.385 2.24772 16.1336 2.2556 16.335C2.26141 16.4803 2.32323 16.6176 2.4281 16.7183C2.53296 16.819 2.67273 16.8751 2.8181 16.875H11.2505C11.3686 16.875 11.4837 16.8379 11.5794 16.7688C11.6752 16.6998 11.7468 16.6024 11.7842 16.4904C11.8215 16.3784 11.8226 16.2575 11.7874 16.1448C11.7522 16.0321 11.6825 15.9333 11.588 15.8625C9.59678 14.3685 9.56416 11.2804 9.56416 11.25ZM6.7106 9.56081C7.16081 9.56576 7.59177 9.7441 7.91384 10.0587C8.2359 10.3733 8.42426 10.8 8.43972 11.25C8.43972 11.2714 8.44085 11.367 8.44928 11.5138L5.13053 10.0378C5.34914 9.85755 5.60141 9.72254 5.87267 9.64065C6.14392 9.55877 6.42876 9.53162 6.7106 9.56081ZM8.6906 15.75C8.24098 15.2922 7.95439 14.6992 7.87497 14.0625H6.74997C6.79026 14.6612 6.97726 15.2407 7.29447 15.75H6.04403C5.81261 15.02 5.67187 14.2643 5.62497 13.5H4.49997C4.53603 14.2621 4.66158 15.0173 4.87403 15.75H3.37497C3.39241 14.7172 3.5381 12.4358 4.38916 10.9389L8.62647 12.8233C8.82961 13.8806 9.2637 14.8799 9.89772 15.75H8.6906Z" fill="#214999"/>
</svg>
