<svg width="18" height="18" viewBox="0 0 18 18" fill="none" xmlns="http://www.w3.org/2000/svg">
<g clip-path="url(#clip0_2217_21910)">
<path d="M11.5662 7.32623L14.4617 4.4308L17.3571 7.32623M11.5662 11.9599L14.4617 14.8554L17.3571 11.9599M4.88567 5.9788C5.21058 5.98938 5.5343 5.93453 5.83759 5.8175C6.14088 5.70047 6.41753 5.52365 6.65111 5.29755C6.88469 5.07146 7.07043 4.8007 7.19727 4.50139C7.32412 4.20207 7.38948 3.88031 7.38948 3.55523C7.38948 3.23015 7.32412 2.90838 7.19727 2.60907C7.07043 2.30975 6.88469 2.039 6.65111 1.8129C6.41753 1.58681 6.14088 1.40999 5.83759 1.29296C5.5343 1.17593 5.21058 1.12107 4.88567 1.13166C4.24256 1.13166 3.62579 1.38713 3.17104 1.84188C2.71629 2.29663 2.46082 2.9134 2.46082 3.55651C2.46082 4.19963 2.71629 4.8164 3.17104 5.27115C3.62579 5.7259 4.24256 5.98137 4.88567 5.98137" stroke="#214999" stroke-width="1.5" stroke-linecap="round" stroke-linejoin="round"/>
<path d="M9.12982 10.2245C9.12982 9.09901 8.68274 8.01966 7.88693 7.22385C7.09112 6.42804 6.01177 5.98096 4.88632 5.98096C3.76088 5.98096 2.68153 6.42804 1.88571 7.22385C1.0899 8.01966 0.642822 9.09901 0.642822 10.2245V12.0425H2.46211L3.06768 16.8922H6.70625L7.31054 12.0425H9.12982V10.2245Z" stroke="#214999" stroke-width="1.5" stroke-linecap="round" stroke-linejoin="round"/>
</g>
<defs>
<clipPath id="clip0_2217_21910">
<rect width="18" height="18" fill="white"/>
</clipPath>
</defs>
</svg>
