<svg width="25" height="24" viewBox="0 0 25 24" fill="none" xmlns="http://www.w3.org/2000/svg">
<path fill-rule="evenodd" clip-rule="evenodd" d="M12.9583 4H13.0417C14.4095 4 15.493 4 16.3407 4.11386C17.2128 4.23144 17.9191 4.47851 18.4765 5.03516C19.0331 5.59256 19.2802 6.29879 19.3978 7.17098C19.4744 7.73954 19.499 8.41377 19.5072 9.2093H19.6977C20.4166 9.2093 21 9.79274 21 10.5116V11.2558C21 11.6651 20.8065 12.0521 20.4791 12.2977L19.5094 13.0247C19.5042 13.9416 19.4826 14.7066 19.3978 15.3407C19.2802 16.2128 19.0331 16.9191 18.4765 17.4765C18.3351 17.6174 18.184 17.7397 18.0233 17.8433V18.6977C18.0233 19.0431 17.886 19.3743 17.6418 19.6186C17.3976 19.8628 17.0663 20 16.7209 20H15.6047C15.2593 20 14.928 19.8628 14.6838 19.6186C14.4395 19.3743 14.3023 19.0431 14.3023 18.6977V18.5072C13.9124 18.5106 13.4922 18.5121 13.0417 18.5116H12.9583C12.5073 18.5126 12.0871 18.5111 11.6977 18.5072V18.6977C11.6977 19.0431 11.5605 19.3743 11.3162 19.6186C11.072 19.8628 10.7407 20 10.3953 20H9.27907C8.93367 20 8.60242 19.8628 8.35819 19.6186C8.11395 19.3743 7.97674 19.0431 7.97674 18.6977V17.8433C7.81311 17.7374 7.66119 17.6145 7.52353 17.4765C6.96688 16.9191 6.71981 16.2128 6.60223 15.3407C6.5174 14.7066 6.49581 13.9416 6.4906 13.0247L5.52093 12.2977C5.19349 12.0521 5 11.6651 5 11.2558V10.5116C5 9.79274 5.58344 9.2093 6.30233 9.2093H6.49209C6.50102 8.41377 6.52558 7.73954 6.60223 7.17098C6.71981 6.29879 6.96688 5.59256 7.52353 5.03516C8.08093 4.47851 8.78716 4.23144 9.65935 4.11386C10.5077 4 11.5905 4 12.9583 4ZM6.48837 10.3256H6.30233C6.25298 10.3256 6.20566 10.3452 6.17077 10.3801C6.13588 10.415 6.11628 10.4623 6.11628 10.5116V11.2558C6.11628 11.2847 6.123 11.3132 6.13592 11.339C6.14884 11.3648 6.16759 11.3873 6.1907 11.4047L6.48837 11.6279V10.3256ZM7.60912 13.3023C7.61656 14.0718 7.64037 14.685 7.70884 15.1926C7.8093 15.9405 7.99833 16.3721 8.31312 16.6869C8.62791 17.0017 9.05954 17.1907 9.80819 17.2912C10.5732 17.3939 11.5808 17.3953 13 17.3953C14.4192 17.3953 15.4275 17.3939 16.1926 17.2912C16.9405 17.1907 17.3721 17.0017 17.6869 16.6869C18.0017 16.3721 18.1907 15.9405 18.2912 15.1918C18.3596 14.6858 18.3827 14.0718 18.3909 13.3023H7.60912ZM18.3953 12.186H7.60465V10.5116C7.60465 9.11033 7.60614 8.11014 7.70512 7.34884H18.2949C18.3939 8.11014 18.3953 9.11033 18.3953 10.5116V12.186ZM19.5116 11.6279L19.8093 11.4047C19.8324 11.3873 19.8512 11.3648 19.8641 11.339C19.877 11.3132 19.8837 11.2847 19.8837 11.2558V10.5116C19.8837 10.4623 19.8641 10.415 19.8292 10.3801C19.7943 10.3452 19.747 10.3256 19.6977 10.3256H19.5116V11.6279ZM17.9868 6.23256C17.9076 6.08251 17.8065 5.94507 17.6869 5.82474C17.3721 5.50995 16.9405 5.32093 16.1918 5.22047C15.4268 5.11777 14.4192 5.11628 13 5.11628C11.5808 5.11628 10.5732 5.11777 9.80744 5.22047C9.05954 5.32093 8.62791 5.50995 8.31312 5.82474C8.19349 5.94507 8.09241 6.08251 8.01321 6.23256H17.9868ZM9.09302 18.2958V18.6977C9.09302 18.8004 9.17637 18.8837 9.27907 18.8837H10.3953C10.4447 18.8837 10.492 18.8641 10.5269 18.8292C10.5618 18.7943 10.5814 18.747 10.5814 18.6977V18.4774C10.2731 18.4636 9.96547 18.437 9.65935 18.3978C9.46904 18.3729 9.28004 18.3389 9.09302 18.2958ZM15.4186 18.4774V18.6977C15.4186 18.8004 15.502 18.8837 15.6047 18.8837H16.7209C16.7703 18.8837 16.8176 18.8641 16.8525 18.8292C16.8874 18.7943 16.907 18.747 16.907 18.6977V18.2958C16.7269 18.3375 16.5381 18.3715 16.3407 18.3978C16.0345 18.437 15.7269 18.4636 15.4186 18.4774ZM8.72093 14.9767C8.72093 14.8287 8.77973 14.6868 8.88441 14.5821C8.98908 14.4774 9.13104 14.4186 9.27907 14.4186H10.3953C10.5434 14.4186 10.6853 14.4774 10.79 14.5821C10.8947 14.6868 10.9535 14.8287 10.9535 14.9767C10.9535 15.1248 10.8947 15.2667 10.79 15.3714C10.6853 15.4761 10.5434 15.5349 10.3953 15.5349H9.27907C9.13104 15.5349 8.98908 15.4761 8.88441 15.3714C8.77973 15.2667 8.72093 15.1248 8.72093 14.9767ZM15.0465 14.9767C15.0465 14.8287 15.1053 14.6868 15.21 14.5821C15.3147 14.4774 15.4566 14.4186 15.6047 14.4186H16.7209C16.869 14.4186 17.0109 14.4774 17.1156 14.5821C17.2203 14.6868 17.2791 14.8287 17.2791 14.9767C17.2791 15.1248 17.2203 15.2667 17.1156 15.3714C17.0109 15.4761 16.869 15.5349 16.7209 15.5349H15.6047C15.4566 15.5349 15.3147 15.4761 15.21 15.3714C15.1053 15.2667 15.0465 15.1248 15.0465 14.9767Z" fill="#B8BABF"/>
</svg>
