<svg width="18" height="18" viewBox="0 0 18 18" fill="none" xmlns="http://www.w3.org/2000/svg">
<path d="M8.325 6.75C7.6375 6.75 6.9625 6.847 6.3 7.041C5.6375 7.235 5.025 7.5255 4.4625 7.9125L5.25 15H12.75L13.575 7.5H13.05C12.575 7.5 12.1438 7.46575 11.7563 7.39725C11.3688 7.32875 10.8375 7.19425 10.1625 6.99375C9.875 6.90625 9.575 6.84375 9.2625 6.80625C8.95 6.76875 8.6375 6.75 8.325 6.75ZM4.275 6.28125C4.9125 5.94375 5.572 5.6875 6.2535 5.5125C6.935 5.3375 7.63175 5.25 8.34375 5.25C8.71875 5.25 9.09075 5.275 9.45975 5.325C9.82875 5.375 10.1942 5.45 10.5562 5.55C11.1812 5.725 11.6595 5.84375 11.991 5.90625C12.3225 5.96875 12.6755 6 13.05 6H13.7438L14.0625 3H3.9375L4.275 6.28125ZM5.23125 16.5C4.84375 16.5 4.5095 16.375 4.2285 16.125C3.9475 15.875 3.788 15.5563 3.75 15.1688L2.25 1.5H15.75L14.25 15.1688C14.2125 15.5563 14.053 15.875 13.7715 16.125C13.49 16.375 13.1557 16.5 12.7687 16.5H5.23125ZM8.325 15H12.75H5.25H8.325Z" fill="#214999"/>
</svg>
