<svg width="18" height="18" viewBox="0 0 18 18" fill="none" xmlns="http://www.w3.org/2000/svg">
<path d="M7.53754 13.5H3.65629C3.35629 13.5 3.13129 13.3688 2.98129 13.1063C2.83129 12.8438 2.84379 12.5875 3.01879 12.3375L5.25004 9.00001H5.19379C4.89379 9.00001 4.67179 8.86576 4.52779 8.59726C4.38379 8.32876 4.39954 8.06926 4.57504 7.81876L8.38129 2.38126C8.45629 2.28126 8.55004 2.20326 8.66254 2.14726C8.77504 2.09126 8.88754 2.06301 9.00004 2.06251C9.11254 2.06201 9.22504 2.09026 9.33754 2.14726C9.45004 2.20426 9.54379 2.28226 9.61879 2.38126L13.425 7.81876C13.6 8.06876 13.6158 8.32826 13.4723 8.59726C13.3288 8.86626 13.1068 9.00051 12.8063 9.00001H12.75L14.9813 12.3375C15.1563 12.5875 15.1688 12.8438 15.0188 13.1063C14.8688 13.3688 14.6438 13.5 14.3438 13.5H10.4625V15.75C10.4625 15.9625 10.3908 16.1408 10.2473 16.2848C10.1038 16.4288 9.92554 16.5005 9.71254 16.5H8.28754C8.07504 16.5 7.89704 16.428 7.75354 16.284C7.61004 16.14 7.53804 15.962 7.53754 15.75V13.5ZM5.06254 12H8.06254H6.63754H11.3625H9.93754H12.9375H5.06254ZM5.06254 12H12.9375L9.93754 7.50001H11.3625L9.00004 4.12501L6.63754 7.50001H8.06254L5.06254 12Z" fill="#214999"/>
</svg>
