<svg width="18" height="18" viewBox="0 0 18 18" fill="none" xmlns="http://www.w3.org/2000/svg">
<path d="M3.75 16.5C3.3375 16.5 2.9845 16.3533 2.691 16.0597C2.3975 15.7662 2.2505 15.413 2.25 15V6C2.25 5.5875 2.397 5.2345 2.691 4.941C2.985 4.6475 3.338 4.5005 3.75 4.5H5.25C5.25 3.4625 5.61575 2.57825 6.34725 1.84725C7.07875 1.11625 7.963 0.750501 9 0.750001C10.037 0.749501 10.9215 1.11525 11.6535 1.84725C12.3855 2.57925 12.751 3.4635 12.75 4.5H14.25C14.6625 4.5 15.0157 4.647 15.3097 4.941C15.6038 5.235 15.7505 5.588 15.75 6V15C15.75 15.4125 15.6033 15.7657 15.3097 16.0597C15.0162 16.3538 14.663 16.5005 14.25 16.5H3.75ZM3.75 15H14.25V6H3.75V15ZM9 10.5C10.0375 10.5 10.922 10.1343 11.6535 9.40275C12.385 8.67125 12.7505 7.787 12.75 6.75H11.25C11.25 7.375 11.0312 7.90625 10.5938 8.34375C10.1562 8.78125 9.625 9 9 9C8.375 9 7.84375 8.78125 7.40625 8.34375C6.96875 7.90625 6.75 7.375 6.75 6.75H5.25C5.25 7.7875 5.61575 8.672 6.34725 9.4035C7.07875 10.135 7.963 10.5005 9 10.5ZM6.75 4.5H11.25C11.25 3.875 11.0312 3.34375 10.5938 2.90625C10.1562 2.46875 9.625 2.25 9 2.25C8.375 2.25 7.84375 2.46875 7.40625 2.90625C6.96875 3.34375 6.75 3.875 6.75 4.5Z" fill="#214999"/>
</svg>
