<svg width="18" height="18" viewBox="0 0 18 18" fill="none" xmlns="http://www.w3.org/2000/svg">
<path d="M0.964266 14.1659V4.4073L2.57655 5.69816C3.39041 6.34873 4.40227 6.70359 5.44369 6.70359H8.99998L10.6611 3.3813C10.8523 3.00041 11.1455 2.68008 11.508 2.45602C11.8706 2.23196 12.2882 2.11297 12.7144 2.1123H13.5913V4.98202L17.0357 6.13016V7.2783C17.0357 8.54602 16.0071 9.5733 14.7394 9.5733H12.4457V14.1659C12.452 14.396 12.4121 14.6251 12.3284 14.8395C12.2446 15.0539 12.1188 15.2494 11.9582 15.4144C11.7977 15.5794 11.6057 15.7106 11.3936 15.8001C11.1816 15.8897 10.9537 15.9358 10.7235 15.9358C10.4933 15.9358 10.2654 15.8897 10.0533 15.8001C9.84124 15.7106 9.64925 15.5794 9.48871 15.4144C9.32817 15.2494 9.20232 15.0539 9.11859 14.8395C9.03487 14.6251 8.99498 14.396 9.00127 14.1659V13.5912C9.00127 12.9573 8.48698 12.4443 7.85312 12.4443H5.55555C4.92169 12.4443 4.40869 12.9586 4.40869 13.5912V14.1659C4.41498 14.396 4.37509 14.6251 4.29137 14.8395C4.20764 15.0539 4.08179 15.2494 3.92125 15.4144C3.76071 15.5794 3.56872 15.7106 3.35664 15.8001C3.14457 15.8897 2.91669 15.9358 2.68648 15.9358C2.45627 15.9358 2.2284 15.8897 2.01632 15.8001C1.80424 15.7106 1.61225 15.5794 1.45171 15.4144C1.29117 15.2494 1.16532 15.0539 1.08159 14.8395C0.997873 14.6251 0.957978 14.396 0.964266 14.1659Z" stroke="#214999" stroke-width="1.5" stroke-linecap="round" stroke-linejoin="round"/>
<path d="M9.01538 6.55322C9.24038 7.47508 10.3011 9.37537 12.7375 9.60679" stroke="#214999" stroke-width="1.5" stroke-linecap="round" stroke-linejoin="round"/>
</svg>
