<svg width="20" height="20" viewBox="0 0 20 20" fill="none" xmlns="http://www.w3.org/2000/svg">
<path d="M1.66699 9.99935C1.66699 6.07102 1.66699 4.10685 2.88699 2.88602C4.10866 1.66602 6.07199 1.66602 10.0003 1.66602C13.9287 1.66602 15.8928 1.66602 17.1128 2.88602C18.3337 4.10768 18.3337 6.07102 18.3337 9.99935C18.3337 13.9277 18.3337 15.8918 17.1128 17.1118C15.8937 18.3327 13.9287 18.3327 10.0003 18.3327C6.07199 18.3327 4.10783 18.3327 2.88699 17.1118C1.66699 15.8927 1.66699 13.9277 1.66699 9.99935Z" stroke="#757575" stroke-width="1.25"/>
<path d="M13.3337 8.33333C14.2541 8.33333 15.0003 7.58714 15.0003 6.66667C15.0003 5.74619 14.2541 5 13.3337 5C12.4132 5 11.667 5.74619 11.667 6.66667C11.667 7.58714 12.4132 8.33333 13.3337 8.33333Z" stroke="#757575" stroke-width="1.25"/>
<path d="M1.66699 10.4153L3.12699 9.13778C3.49294 8.81784 3.96678 8.64889 4.45259 8.66513C4.93841 8.68138 5.3999 8.8816 5.74366 9.22528L9.31866 12.8003C9.59608 13.0776 9.96245 13.2483 10.3533 13.2821C10.7441 13.3159 11.1344 13.2108 11.4553 12.9853L11.7045 12.8103C12.1675 12.4851 12.7271 12.3266 13.2918 12.3606C13.8566 12.3947 14.3931 12.6193 14.8137 12.9978L17.5003 15.4153" stroke="#757575" stroke-width="1.25" stroke-linecap="round"/>
</svg>
