<svg width="12" height="12" viewBox="0 0 12 12" fill="none" xmlns="http://www.w3.org/2000/svg">
<path d="M5.58008 10.4072L5.42383 10.3115L5.5957 10.416L5.58008 10.4072ZM5.21875 10.1807L5.40723 10.3008L5.33008 10.2539L5.24805 10.2002L5.21875 10.1807ZM6.71777 10.2197C6.79431 10.1705 6.87429 10.1181 6.95703 10.0615L6.84668 10.1367L6.75098 10.2002L6.71777 10.2197ZM5.125 10.1182L5.04492 10.0645C5.04088 10.0617 5.03724 10.0584 5.0332 10.0557C5.06418 10.077 5.09475 10.0979 5.125 10.1182ZM7.05957 9.99219L7.03613 10.0078L7.11426 9.95117C7.09564 9.96429 7.07828 9.9792 7.05957 9.99219ZM4.70898 9.82422C4.65968 9.78771 4.6111 9.75031 4.5625 9.71289C4.61119 9.75019 4.65957 9.78786 4.70898 9.82422ZM7.49512 9.66895C7.43522 9.71571 7.37447 9.76129 7.31348 9.80664C7.37456 9.76141 7.43515 9.71561 7.49512 9.66895ZM4.35059 9.5459C4.30935 9.5123 4.26823 9.4786 4.22754 9.44434C4.26826 9.47856 4.30929 9.51236 4.35059 9.5459ZM7.82324 9.40234C7.7747 9.44377 7.72514 9.48395 7.67578 9.52441C7.72518 9.484 7.77467 9.44374 7.82324 9.40234ZM3.94434 9.19727C3.93206 9.18609 3.91945 9.1753 3.90723 9.16406C3.91944 9.1753 3.93206 9.18609 3.94434 9.19727ZM8.87988 8.33496C8.73425 8.5146 8.5809 8.68504 8.42383 8.8457L8.42188 8.84766C8.52712 8.74004 8.63071 8.62792 8.73145 8.51172L8.87988 8.33496ZM3.12012 8.33496C3.26571 8.51462 3.41916 8.68496 3.57617 8.8457C3.47174 8.73882 3.36853 8.628 3.26855 8.5127L3.12012 8.33496ZM9.72266 6.92578C9.69367 6.99963 9.66262 7.07254 9.62988 7.14453L9.52637 7.35742C9.59883 7.21701 9.66462 7.07273 9.72266 6.9248V6.92578ZM6.67676 10.248L6.5791 10.3105L6.54102 10.332L6.67676 10.248Z" stroke="#81838C"/>
</svg>
