<svg width="25" height="24" viewBox="0 0 25 24" fill="none" xmlns="http://www.w3.org/2000/svg">
<path d="M5.25001 20C5.10801 20 4.98934 19.952 4.89401 19.856C4.79867 19.76 4.75067 19.641 4.75001 19.499C4.74934 19.357 4.79734 19.2383 4.89401 19.143C4.99067 19.0477 5.10934 19 5.25001 19H6.75001V4.808C6.75001 4.57934 6.82667 4.38734 6.98001 4.232C7.13334 4.07667 7.32334 3.99934 7.55001 4H13.95C14.1767 4 14.3667 4.07734 14.52 4.232C14.6733 4.38667 14.75 4.57867 14.75 4.808V5H16.942C17.1713 5 17.3633 5.07734 17.518 5.232C17.6727 5.38667 17.75 5.57867 17.75 5.808V19H19.25C19.392 19 19.5107 19.048 19.606 19.144C19.7013 19.24 19.7493 19.359 19.75 19.501C19.7507 19.643 19.7027 19.7617 19.606 19.857C19.5093 19.9523 19.3907 20 19.25 20H17.567C17.329 20 17.1333 19.9227 16.98 19.768C16.8267 19.6133 16.75 19.4213 16.75 19.192V6H14.75V19.192C14.75 19.4213 14.6727 19.6133 14.518 19.768C14.3633 19.9227 14.1713 20 13.942 20H5.25001ZM12.52 12C12.52 11.7933 12.4433 11.6133 12.29 11.46C12.1367 11.3067 11.9567 11.23 11.75 11.23C11.5433 11.23 11.3633 11.3067 11.21 11.46C11.0567 11.6133 10.98 11.7933 10.98 12C10.98 12.2067 11.0567 12.3867 11.21 12.54C11.3633 12.6933 11.5433 12.77 11.75 12.77C11.9567 12.77 12.1367 12.6933 12.29 12.54C12.4433 12.3867 12.52 12.2067 12.52 12ZM7.75001 19H13.75V5H7.75001V19Z" fill="#81838C"/>
</svg>
