<svg width="25" height="24" viewBox="0 0 25 24" fill="none" xmlns="http://www.w3.org/2000/svg">
<path d="M14.25 22.0013V21.5013C14.25 20.9104 14.3664 20.3252 14.5925 19.7793C14.8187 19.2333 15.1502 18.7372 15.568 18.3193C15.9859 17.9015 16.482 17.57 17.0279 17.3439C17.5739 17.1177 18.1591 17.0013 18.75 17.0013C19.3409 17.0013 19.9261 17.1177 20.4721 17.3439C21.018 17.57 21.5141 17.9015 21.932 18.3193C22.3498 18.7372 22.6813 19.2333 22.9075 19.7793C23.1336 20.3252 23.25 20.9104 23.25 21.5013V22.0013M2.25 22.0013V18.0013C2.25 16.6752 2.77678 15.4035 3.71447 14.4658C4.65215 13.5281 5.92392 13.0013 7.25 13.0013C8.57608 13.0013 9.84785 13.5281 10.7855 14.4658C11.7232 15.4035 12.25 16.6752 12.25 18.0013V22.0013M7.20605 10.666C6.6151 10.666 6.02994 10.5496 5.48398 10.3235C4.93801 10.0973 4.44194 9.76586 4.02407 9.348C3.60621 8.93013 3.27474 8.43406 3.04859 7.88809C2.82245 7.34213 2.70605 6.75696 2.70605 6.16602C2.70605 5.57507 2.82245 4.98991 3.04859 4.44394C3.27474 3.89798 3.60621 3.4019 4.02407 2.98404C4.44194 2.56617 4.93801 2.2347 5.48398 2.00856C6.02994 1.78241 6.6151 1.66602 7.20605 1.66602C8.39953 1.66602 9.54412 2.14012 10.388 2.98404C11.2319 3.82795 11.7061 4.97254 11.7061 6.16602C11.7061 7.35949 11.2319 8.50408 10.388 9.348C9.54412 10.1919 8.39953 10.666 7.20605 10.666ZM18.7061 14.666C17.6452 14.666 16.6278 14.2446 15.8776 13.4944C15.1275 12.7443 14.7061 11.7269 14.7061 10.666C14.7061 9.60515 15.1275 8.58773 15.8776 7.83759C16.6278 7.08744 17.6452 6.66602 18.7061 6.66602C19.7669 6.66602 20.7843 7.08744 21.5345 7.83759C22.2846 8.58773 22.7061 9.60515 22.7061 10.666C22.7061 11.7269 22.2846 12.7443 21.5345 13.4944C20.7843 14.2446 19.7669 14.666 18.7061 14.666Z" stroke="#81838C"/>
</svg>
