<svg width="32" height="32" viewBox="0 0 32 32" fill="none" xmlns="http://www.w3.org/2000/svg">
<path d="M20.5954 26.3529C20.5954 26.5246 20.5272 26.6891 20.4059 26.8105C20.2845 26.9318 20.1199 27 19.9483 27H13.0464C12.8748 27 12.7102 26.9318 12.5888 26.8105C12.4675 26.6891 12.3993 26.5246 12.3993 26.3529C12.3993 26.1813 12.4675 26.0167 12.5888 25.8954C12.7102 25.7741 12.8748 25.7059 13.0464 25.7059H19.9483C20.1199 25.7059 20.2845 25.7741 20.4059 25.8954C20.5272 26.0167 20.5954 26.1813 20.5954 26.3529ZM26.4308 22.7941C26.2999 23.0245 26.1101 23.2159 25.8807 23.3486C25.6514 23.4813 25.3908 23.5504 25.1259 23.549H7.8699C7.60451 23.5485 7.34396 23.478 7.1145 23.3446C6.88504 23.2113 6.69478 23.0198 6.5629 22.7895C6.43102 22.5592 6.36217 22.2982 6.36329 22.0328C6.36442 21.7674 6.43548 21.507 6.56932 21.2778C7.17863 20.2275 8.08559 17.2661 8.08559 13.4118C8.08559 11.1808 8.97183 9.04126 10.5493 7.46375C12.1269 5.88624 14.2664 5 16.4974 5C18.7283 5 20.8679 5.88624 22.4454 7.46375C24.0229 9.04126 24.9091 11.1808 24.9091 13.4118C24.9091 17.265 25.8172 20.2275 26.4276 21.2778C26.5628 21.5075 26.6345 21.769 26.635 22.0355C26.6356 22.3021 26.5651 22.5639 26.4308 22.7941ZM25.3081 21.9314C24.4918 20.5294 23.615 17.2596 23.615 13.4118C23.615 11.524 22.8651 9.71365 21.5303 8.37883C20.1955 7.04401 18.3851 6.29412 16.4974 6.29412C14.6096 6.29412 12.7992 7.04401 11.4644 8.37883C10.1296 9.71365 9.37971 11.524 9.37971 13.4118C9.37971 17.2607 8.50186 20.5294 7.68549 21.9314C7.66656 21.9642 7.6566 22.0014 7.6566 22.0392C7.6566 22.0771 7.66656 22.1143 7.68549 22.1471C7.70325 22.1801 7.72974 22.2076 7.76207 22.2266C7.7944 22.2456 7.83132 22.2554 7.86883 22.2549H25.1248C25.1623 22.2554 25.1992 22.2456 25.2316 22.2266C25.2639 22.2076 25.2904 22.1801 25.3081 22.1471C25.3271 22.1143 25.337 22.0771 25.337 22.0392C25.337 22.0014 25.3271 21.9642 25.3081 21.9314Z" fill="#81838C"/>
</svg>
