<svg width="24" height="24" viewBox="0 0 24 24" fill="none" xmlns="http://www.w3.org/2000/svg">
<path d="M4.06432 5.9343C4.08534 5.49431 4.39927 5.1275 4.83644 5.07353C5.15675 5.03398 5.55998 5 6 5C6.44002 5 6.84325 5.03398 7.16356 5.07353C7.60073 5.1275 7.91466 5.49431 7.93568 5.9343C7.96525 6.55323 8 7.49452 8 8.5C8 9.50548 7.96525 10.4468 7.93568 11.0657C7.91466 11.5057 7.60073 11.8725 7.16356 11.9265C6.84325 11.966 6.44002 12 6 12C5.55998 12 5.15675 11.966 4.83644 11.9265C4.39927 11.8725 4.08534 11.5057 4.06432 11.0657C4.03475 10.4468 4 9.50548 4 8.5C4 7.49452 4.03475 6.55323 4.06432 5.9343Z" stroke="#B8BABF" stroke-width="1.5"/>
<path d="M19.9357 18.0657C19.9147 18.5057 19.6007 18.8725 19.1636 18.9265C18.8433 18.966 18.44 19 18 19C17.56 19 17.1567 18.966 16.8364 18.9265C16.3993 18.8725 16.0853 18.5057 16.0643 18.0657C16.0347 17.4468 16 16.5055 16 15.5C16 14.4945 16.0347 13.5532 16.0643 12.9343C16.0853 12.4943 16.3993 12.1275 16.8364 12.0735C17.1567 12.034 17.56 12 18 12C18.44 12 18.8433 12.034 19.1636 12.0735C19.6007 12.1275 19.9147 12.4943 19.9357 12.9343C19.9653 13.5532 20 14.4945 20 15.5C20 16.5055 19.9653 17.4468 19.9357 18.0657Z" stroke="#B8BABF" stroke-width="1.5"/>
<path d="M11.0958 5.81977C11.1616 5.39336 11.5277 5.09446 11.9588 5.07606C12.7217 5.0435 14.0181 5 15.5 5C16.9819 5 18.2783 5.0435 19.0412 5.07606C19.4723 5.09446 19.8384 5.39336 19.9042 5.81977C19.955 6.14907 20 6.56397 20 7C20 7.43603 19.955 7.85093 19.9042 8.18023C19.8384 8.60664 19.4723 8.90554 19.0412 8.92394C18.2783 8.9565 16.9819 9 15.5 9C14.0181 9 12.7217 8.9565 11.9588 8.92394C11.5277 8.90554 11.1616 8.60664 11.0958 8.18023C11.045 7.85093 11 7.43603 11 7C11 6.56397 11.045 6.14907 11.0958 5.81977Z" stroke="#B8BABF" stroke-width="1.5"/>
<path d="M12.9042 18.1802C12.8384 18.6066 12.4723 18.9055 12.0412 18.9239C11.2783 18.9565 9.98186 19 8.5 19C7.01814 19 5.72171 18.9565 4.95877 18.9239C4.52771 18.9055 4.16158 18.6066 4.09582 18.1802C4.04503 17.8509 4 17.436 4 17C4 16.564 4.04503 16.1491 4.09582 15.8198C4.16158 15.3934 4.52771 15.0945 4.95877 15.0761C5.72171 15.0435 7.01814 15 8.5 15C9.98186 15 11.2783 15.0435 12.0412 15.0761C12.4723 15.0945 12.8384 15.3934 12.9042 15.8198C12.955 16.1491 13 16.564 13 17C13 17.436 12.955 17.8509 12.9042 18.1802Z" stroke="#B8BABF" stroke-width="1.5"/>
</svg>
