<svg width="24" height="24" viewBox="0 0 24 24" fill="none" xmlns="http://www.w3.org/2000/svg">
<path opacity="0.6" d="M5.25 13.5H8.75C9.21413 13.5 9.65912 13.6845 9.9873 14.0127C10.3155 14.3409 10.5 14.7859 10.5 15.25V18.75C10.5 19.2141 10.3155 19.6591 9.9873 19.9873C9.65912 20.3155 9.21413 20.5 8.75 20.5H5.25C4.84377 20.5 4.45207 20.3588 4.14062 20.1035L4.0127 19.9873C3.68451 19.6591 3.5 19.2141 3.5 18.75V15.25C3.5 14.8438 3.6412 14.4521 3.89648 14.1406L4.0127 14.0127C4.34088 13.6845 4.78587 13.5 5.25 13.5ZM15.25 3.5H18.75C19.1562 3.5 19.5479 3.6412 19.8594 3.89648L19.9873 4.0127C20.3155 4.34088 20.5 4.78587 20.5 5.25V8.75C20.5 9.21413 20.3155 9.65912 19.9873 9.9873C19.6591 10.3155 19.2141 10.5 18.75 10.5H15.25C14.7859 10.5 14.3409 10.3155 14.0127 9.9873C13.6845 9.65912 13.5 9.21413 13.5 8.75V5.25C13.5 4.84377 13.6412 4.45207 13.8965 4.14062L14.0127 4.0127C14.3409 3.68451 14.7859 3.5 15.25 3.5Z" stroke="#B8BABF"/>
<path d="M5.25 3.5H8.75C9.15623 3.5 9.54793 3.6412 9.85938 3.89648L9.9873 4.0127C10.3155 4.34088 10.5 4.78587 10.5 5.25V8.75C10.5 9.21413 10.3155 9.65912 9.9873 9.9873C9.65912 10.3155 9.21413 10.5 8.75 10.5H5.25C4.84377 10.5 4.45207 10.3588 4.14062 10.1035L4.0127 9.9873C3.68451 9.65912 3.5 9.21413 3.5 8.75V5.25L3.50879 5.07715C3.54288 4.73362 3.67764 4.40762 3.89648 4.14062L4.0127 4.0127C4.29988 3.72551 4.6765 3.54855 5.07715 3.50879L5.25 3.5Z" stroke="#B8BABF"/>
<path opacity="0.6" d="M15.25 13.5H18.75C19.1562 13.5 19.5479 13.6412 19.8594 13.8965L19.9873 14.0127C20.3155 14.3409 20.5 14.7859 20.5 15.25V18.75C20.5 19.2141 20.3155 19.6591 19.9873 19.9873C19.6591 20.3155 19.2141 20.5 18.75 20.5H15.25C14.8438 20.5 14.4521 20.3588 14.1406 20.1035L14.0127 19.9873C13.6845 19.6591 13.5 19.2141 13.5 18.75V15.25C13.5 14.8438 13.6412 14.4521 13.8965 14.1406L14.0127 14.0127C14.3409 13.6845 14.7859 13.5 15.25 13.5Z" stroke="#B8BABF"/>
</svg>
