<svg width="20" height="20" viewBox="0 0 20 20" fill="none" xmlns="http://www.w3.org/2000/svg">
<rect width="20" height="20" rx="2" fill="#F2F6F7"/>
<path d="M16.3627 9.3635C16.5654 9.6475 16.6667 9.79016 16.6667 10.0002C16.6667 10.2108 16.5654 10.3528 16.3627 10.6368C15.452 11.9142 13.126 14.6668 10 14.6668C6.87337 14.6668 4.54804 11.9135 3.63737 10.6368C3.43471 10.3528 3.33337 10.2102 3.33337 10.0002C3.33337 9.7895 3.43471 9.6475 3.63737 9.3635C4.54804 8.08616 6.87404 5.3335 10 5.3335C13.1267 5.3335 15.452 8.08683 16.3627 9.3635Z" stroke="#2E2E2F" stroke-width="0.67" stroke-linecap="round" stroke-linejoin="round"/>
<path d="M12 10C12 9.46957 11.7893 8.96086 11.4142 8.58579C11.0391 8.21071 10.5304 8 10 8C9.46957 8 8.96086 8.21071 8.58579 8.58579C8.21071 8.96086 8 9.46957 8 10C8 10.5304 8.21071 11.0391 8.58579 11.4142C8.96086 11.7893 9.46957 12 10 12C10.5304 12 11.0391 11.7893 11.4142 11.4142C11.7893 11.0391 12 10.5304 12 10Z" stroke="#2E2E2F" stroke-width="0.67" stroke-linecap="round" stroke-linejoin="round"/>
</svg>
