<svg width="18" height="15" viewBox="0 0 18 15" fill="none" xmlns="http://www.w3.org/2000/svg">
<path d="M6.49984 1.21687C7.30821 0.960047 8.15165 0.830719 8.99984 0.833541C12.4848 0.833541 14.8565 2.91688 16.2707 4.75354C16.979 5.67521 17.3332 6.13437 17.3332 7.50021C17.3332 8.86687 16.979 9.32604 16.2707 10.2469C14.8565 12.0835 12.4848 14.1669 8.99984 14.1669C5.51484 14.1669 3.14317 12.0835 1.729 10.2469C1.02067 9.32687 0.666504 8.86604 0.666504 7.50021C0.666504 6.13354 1.02067 5.67438 1.729 4.75354C2.16109 4.18923 2.64212 3.66414 3.1665 3.18437" stroke="#2E2E2F" stroke-width="1.25" stroke-linecap="round"/>
<path d="M11.5 7.5C11.5 8.16304 11.2366 8.79893 10.7678 9.26777C10.2989 9.73661 9.66304 10 9 10C8.33696 10 7.70107 9.73661 7.23223 9.26777C6.76339 8.79893 6.5 8.16304 6.5 7.5C6.5 6.83696 6.76339 6.20107 7.23223 5.73223C7.70107 5.26339 8.33696 5 9 5C9.66304 5 10.2989 5.26339 10.7678 5.73223C11.2366 6.20107 11.5 6.83696 11.5 7.5Z" stroke="#2E2E2F" stroke-width="1.25"/>
</svg>
