<svg width="24" height="24" viewBox="0 0 24 24" fill="none" xmlns="http://www.w3.org/2000/svg">
<path d="M2 9.9999H8.13C8.37346 9.99747 8.60648 9.90068 8.78 9.7299L11.35 7.2699C11.5225 7.0977 11.7563 7.00098 12 7.00098C12.2437 7.00098 12.4775 7.0977 12.65 7.2699L15.22 9.7299C15.3935 9.90068 15.6265 9.99747 15.87 9.9999H22" stroke="#B8BABF" stroke-width="1.5" stroke-linecap="round" stroke-linejoin="round"/>
<path d="M3 21V10L4.961 5.424C5.823 3.414 6.451 3 8.638 3H15.362C17.55 3 18.177 3.414 19.039 5.424L21 10V21M2 21H22M12.008 11H11.999M9.5 21V16.5C9.5 16.1022 9.65804 15.7206 9.93934 15.4393C10.2206 15.158 10.6022 15 11 15H13C13.3978 15 13.7794 15.158 14.0607 15.4393C14.342 15.7206 14.5 16.1022 14.5 16.5V21M6 14H7M17 14H18" stroke="#B8BABF" stroke-width="1.5" stroke-linecap="round" stroke-linejoin="round"/>
</svg>
