<svg width="24" height="24" viewBox="0 0 24 24" fill="none" xmlns="http://www.w3.org/2000/svg">
<path d="M4 12C4 8.22905 4 6.34274 5.17137 5.17137C6.34274 4 8.22821 4 12 4C15.7709 4 17.6573 4 18.8286 5.17137C20 6.34274 20 8.22821 20 12C20 15.7709 20 17.6573 18.8286 18.8286C17.6573 20 15.7718 20 12 20C8.22905 20 6.34274 20 5.17137 18.8286C4 17.6573 4 15.7718 4 12Z" stroke="#81838C" stroke-width="1.5" stroke-linecap="round" stroke-linejoin="round"/>
<path d="M17 7H16.991M16.0935 11.95C16.0935 13.0241 15.6672 14.0543 14.9083 14.8138C14.1493 15.5733 13.12 16 12.0468 16C10.9735 16 9.94418 15.5733 9.18527 14.8138C8.42635 14.0543 8 13.0241 8 11.95C8 10.8759 8.42635 9.84574 9.18527 9.08622C9.94418 8.3267 10.9735 7.9 12.0468 7.9C13.12 7.9 14.1493 8.3267 14.9083 9.08622C15.6672 9.84574 16.0935 10.8759 16.0935 11.95Z" stroke="#81838C" stroke-width="1.5" stroke-linecap="round" stroke-linejoin="round"/>
</svg>
