<svg width="24" height="24" viewBox="0 0 24 24" fill="none" xmlns="http://www.w3.org/2000/svg">
<rect width="24" height="24" fill="white"/>
<path d="M4.9117 10.7646L18.0883 10.7648M4.9117 10.7646L10.183 6.15235C10.937 5.49257 12.0629 5.49258 12.817 6.15237L15.7353 8.70592M4.9117 10.7646L4.30806 16.801C4.19032 17.9784 5.11489 19 6.29814 19H16.7019C17.8851 19 18.8097 17.9784 18.6919 16.801L18.0883 10.7648M18.0883 10.7648L15.7353 8.70592M18.0883 10.7648L17.7132 7.38848C17.6894 7.17454 17.5967 6.97415 17.449 6.81753V6.81753C16.8331 6.16426 15.7353 6.60016 15.7353 7.49802V8.70592M14.0213 19L13.5097 16.9534C13.3264 16.2202 12.6676 15.7058 11.9118 15.7058H11.1896C10.4338 15.7058 9.77502 16.2202 9.59172 16.9534L9.08008 19" stroke="#214999" stroke-width="1.5" stroke-linecap="round" stroke-linejoin="round"/>
</svg>
