<svg width="20" height="20" viewBox="0 0 20 20" fill="none" xmlns="http://www.w3.org/2000/svg">
<path d="M9 10.6667H4.83334C4.59723 10.6667 4.39945 10.5867 4.24 10.4267C4.08056 10.2667 4.00056 10.0689 4 9.83334C3.99945 9.59778 4.07945 9.4 4.24 9.24C4.40056 9.08 4.59834 9 4.83334 9H9V4.83334C9 4.59723 9.08 4.39945 9.24 4.24C9.4 4.08056 9.59778 4.00056 9.83334 4C10.0689 3.99945 10.2669 4.07945 10.4275 4.24C10.5881 4.40056 10.6678 4.59834 10.6667 4.83334V9H14.8333C15.0694 9 15.2675 9.08 15.4275 9.24C15.5875 9.4 15.6672 9.59778 15.6667 9.83334C15.6661 10.0689 15.5861 10.2669 15.4267 10.4275C15.2672 10.5881 15.0694 10.6678 14.8333 10.6667H10.6667V14.8333C10.6667 15.0694 10.5867 15.2675 10.4267 15.4275C10.2667 15.5875 10.0689 15.6672 9.83334 15.6667C9.59778 15.6661 9.4 15.5861 9.24 15.4267C9.08 15.2672 9 15.0694 9 14.8333V10.6667Z" fill="white"/>
</svg>
