<svg width="20" height="20" viewBox="0 0 20 20" fill="none" xmlns="http://www.w3.org/2000/svg">
<path d="M9.99902 1.1665C12.116 1.1665 13.8328 2.88257 13.833 4.99951C13.833 7.1166 12.1161 8.8335 9.99902 8.8335C7.88208 8.83332 6.16602 7.11649 6.16602 4.99951C6.16619 2.88268 7.88219 1.16668 9.99902 1.1665Z" stroke="#B8BABF"/>
<path d="M10.001 10.3335C11.9113 10.3335 13.6657 10.7686 14.96 11.4966C16.2384 12.2158 17.167 13.2873 17.167 14.5835C17.167 15.5755 17.1939 16.772 16.1494 17.6226C15.6465 18.0321 14.9347 18.3303 13.9541 18.5288C12.9713 18.7278 11.6847 18.8335 10.001 18.8335C8.31712 18.8335 7.02975 18.7278 6.04688 18.5288C5.06642 18.3303 4.35447 18.0321 3.85156 17.6226C2.8072 16.772 2.83398 15.5754 2.83398 14.5835C2.83398 13.2872 3.7634 12.2158 5.04199 11.4966C6.33627 10.7686 8.09059 10.3335 10.001 10.3335Z" stroke="#B8BABF"/>
</svg>
