<svg width="20" height="21" viewBox="0 0 20 21" fill="none" xmlns="http://www.w3.org/2000/svg">
<path d="M7.49984 4.21687C8.30821 3.96005 9.15165 3.83072 9.99984 3.83354C13.4848 3.83354 15.8565 5.91688 17.2707 7.75354C17.979 8.67521 18.3332 9.13437 18.3332 10.5002C18.3332 11.8669 17.979 12.326 17.2707 13.2469C15.8565 15.0835 13.4848 17.1669 9.99984 17.1669C6.51484 17.1669 4.14317 15.0835 2.729 13.2469C2.02067 12.3269 1.6665 11.866 1.6665 10.5002C1.6665 9.13354 2.02067 8.67438 2.729 7.75354C3.16109 7.18923 3.64212 6.66414 4.1665 6.18437" stroke="#2E2E2F" stroke-width="1.25" stroke-linecap="round"/>
<path d="M12.5 10.5C12.5 11.163 12.2366 11.7989 11.7678 12.2678C11.2989 12.7366 10.663 13 10 13C9.33696 13 8.70107 12.7366 8.23223 12.2678C7.76339 11.7989 7.5 11.163 7.5 10.5C7.5 9.83696 7.76339 9.20107 8.23223 8.73223C8.70107 8.26339 9.33696 8 10 8C10.663 8 11.2989 8.26339 11.7678 8.73223C12.2366 9.20107 12.5 9.83696 12.5 10.5Z" stroke="#2E2E2F" stroke-width="1.25"/>
</svg>
