<svg width="12" height="13" viewBox="0 0 12 13" fill="none" xmlns="http://www.w3.org/2000/svg">
<g id="ICON:Location">
<path id="Vector" fill-rule="evenodd" clip-rule="evenodd" d="M6 1.5C7.19347 1.5 8.33807 1.97411 9.18198 2.81802C10.0259 3.66193 10.5 4.80653 10.5 6C10.5 7.537 9.662 8.795 8.779 9.6975C8.33784 10.1435 7.85646 10.5479 7.341 10.9055L7.128 11.0505L7.028 11.117L6.8395 11.237L6.6715 11.3395L6.4635 11.4605C6.32232 11.5411 6.16256 11.5835 6 11.5835C5.83744 11.5835 5.67768 11.5411 5.5365 11.4605L5.3285 11.3395L5.0685 11.1795L4.9725 11.117L4.7675 10.9805C4.21142 10.6043 3.69345 10.1745 3.221 9.6975C2.338 8.7945 1.5 7.537 1.5 6C1.5 4.80653 1.97411 3.66193 2.81802 2.81802C3.66193 1.97411 4.80653 1.5 6 1.5ZM6 2.5C5.07174 2.5 4.1815 2.86875 3.52513 3.52513C2.86875 4.1815 2.5 5.07174 2.5 6C2.5 7.161 3.136 8.18 3.9355 8.998C4.27927 9.346 4.65083 9.66539 5.0465 9.953L5.2755 10.116C5.3495 10.1677 5.42067 10.2157 5.489 10.26L5.684 10.385L5.8555 10.4895L6 10.574L6.2275 10.4395L6.411 10.3245C6.50867 10.2625 6.61317 10.193 6.7245 10.116L6.9535 9.953C7.34917 9.66539 7.72073 9.346 8.0645 8.998C8.864 8.1805 9.5 7.161 9.5 6C9.5 5.07174 9.13125 4.1815 8.47487 3.52513C7.8185 2.86875 6.92826 2.5 6 2.5ZM6 4C6.53043 4 7.03914 4.21071 7.41421 4.58579C7.78929 4.96086 8 5.46957 8 6C8 6.53043 7.78929 7.03914 7.41421 7.41421C7.03914 7.78929 6.53043 8 6 8C5.46957 8 4.96086 7.78929 4.58579 7.41421C4.21071 7.03914 4 6.53043 4 6C4 5.46957 4.21071 4.96086 4.58579 4.58579C4.96086 4.21071 5.46957 4 6 4ZM6 5C5.73478 5 5.48043 5.10536 5.29289 5.29289C5.10536 5.48043 5 5.73478 5 6C5 6.26522 5.10536 6.51957 5.29289 6.70711C5.48043 6.89464 5.73478 7 6 7C6.26522 7 6.51957 6.89464 6.70711 6.70711C6.89464 6.51957 7 6.26522 7 6C7 5.73478 6.89464 5.48043 6.70711 5.29289C6.51957 5.10536 6.26522 5 6 5Z" fill="#8D9399"/>
</g>
</svg>
