<svg width="20" height="20" viewBox="0 0 20 20" fill="none" xmlns="http://www.w3.org/2000/svg">
<mask id="path-1-outside-1_3301_26899" maskUnits="userSpaceOnUse" x="0.666016" y="2.3335" width="19" height="16" fill="black">
<rect fill="white" x="0.666016" y="2.3335" width="19" height="16"/>
<path fill-rule="evenodd" clip-rule="evenodd" d="M2.64268 4.31016C1.66602 5.286 1.66602 6.85766 1.66602 10.0002C1.66602 13.1427 1.66602 14.7143 2.64268 15.6902C3.61935 16.666 5.19018 16.6668 8.33268 16.6668H11.666C14.8085 16.6668 16.3802 16.6668 17.356 15.6902C18.3318 14.7135 18.3327 13.1427 18.3327 10.0002C18.3327 6.85766 18.3327 5.286 17.356 4.31016C16.3793 3.33433 14.8085 3.3335 11.666 3.3335H8.33268C5.19018 3.3335 3.61852 3.3335 2.64268 4.31016ZM10.6243 8.3335C10.6243 8.16774 10.5585 8.00876 10.4413 7.89155C10.3241 7.77434 10.1651 7.7085 9.99935 7.7085C9.83359 7.7085 9.67462 7.77434 9.55741 7.89155C9.4402 8.00876 9.37435 8.16774 9.37435 8.3335V8.91766L8.86852 8.626C8.72551 8.54984 8.55853 8.5322 8.40277 8.57678C8.24701 8.62136 8.11465 8.72469 8.03359 8.86497C7.95253 9.00525 7.92912 9.17152 7.96828 9.32873C8.00745 9.48594 8.10612 9.6218 8.24352 9.70766L8.74935 9.99933L8.24352 10.2918C8.09986 10.3747 7.99501 10.5113 7.95203 10.6715C7.90905 10.8316 7.93147 11.0023 8.01435 11.146C8.09723 11.2897 8.23378 11.3945 8.39397 11.4375C8.55416 11.4805 8.72486 11.458 8.86852 11.3752L9.37435 11.0827V11.6668C9.37435 11.8326 9.4402 11.9916 9.55741 12.1088C9.67462 12.226 9.83359 12.2918 9.99935 12.2918C10.1651 12.2918 10.3241 12.226 10.4413 12.1088C10.5585 11.9916 10.6243 11.8326 10.6243 11.6668V11.0835L11.1302 11.3752C11.2738 11.458 11.4445 11.4805 11.6047 11.4375C11.7649 11.3945 11.9015 11.2897 11.9843 11.146C12.0672 11.0023 12.0896 10.8316 12.0467 10.6715C12.0037 10.5113 11.8988 10.3747 11.7552 10.2918L11.2493 10.0002L11.7552 9.7085C11.8988 9.62562 12.0037 9.48906 12.0467 9.32887C12.0896 9.16869 12.0672 8.99799 11.9843 8.85433C11.9015 8.71067 11.7649 8.60582 11.6047 8.56284C11.4445 8.51987 11.2738 8.54228 11.1302 8.62516L10.6243 8.91683V8.3335ZM5.61018 7.7085C5.77594 7.7085 5.93491 7.77434 6.05212 7.89155C6.16933 8.00876 6.23518 8.16774 6.23518 8.3335V8.91683L6.74018 8.62516C6.88384 8.54228 7.05454 8.51987 7.21473 8.56284C7.37491 8.60582 7.51147 8.71067 7.59435 8.85433C7.67723 8.99799 7.69965 9.16869 7.65667 9.32887C7.61369 9.48906 7.50884 9.62562 7.36518 9.7085L6.85935 10.0002L7.36518 10.2918C7.43631 10.3329 7.49867 10.3875 7.54868 10.4527C7.59869 10.5178 7.63539 10.5921 7.65667 10.6715C7.67795 10.7508 7.6834 10.8335 7.67271 10.9149C7.66201 10.9963 7.63539 11.0749 7.59435 11.146C7.55331 11.2171 7.49866 11.2795 7.43353 11.3295C7.36839 11.3795 7.29404 11.4162 7.21473 11.4375C7.13541 11.4588 7.05268 11.4642 6.97126 11.4535C6.88983 11.4428 6.81131 11.4162 6.74018 11.3752L6.23518 11.0835V11.6668C6.23518 11.8326 6.16933 11.9916 6.05212 12.1088C5.93491 12.226 5.77594 12.2918 5.61018 12.2918C5.44442 12.2918 5.28545 12.226 5.16824 12.1088C5.05103 11.9916 4.98518 11.8326 4.98518 11.6668V11.0827L4.47852 11.3743C4.33551 11.4505 4.16853 11.4681 4.01277 11.4235C3.85701 11.379 3.72465 11.2756 3.64359 11.1354C3.56253 10.9951 3.53912 10.8288 3.57828 10.6716C3.61745 10.5144 3.71613 10.3785 3.85352 10.2927L4.35935 10.0002L3.85352 9.7085C3.78238 9.66746 3.72003 9.61281 3.67002 9.54768C3.62 9.48254 3.58331 9.40819 3.56203 9.32887C3.54075 9.24956 3.5353 9.16683 3.54599 9.0854C3.55669 9.00398 3.58331 8.92546 3.62435 8.85433C3.66539 8.7832 3.72003 8.72084 3.78517 8.67083C3.8503 8.62082 3.92465 8.58412 4.00397 8.56284C4.08329 8.54156 4.16602 8.53611 4.24744 8.54681C4.32886 8.5575 4.40738 8.58413 4.47852 8.62516L4.98518 8.91766V8.3335C4.98518 8.16774 5.05103 8.00876 5.16824 7.89155C5.28545 7.77434 5.44442 7.7085 5.61018 7.7085ZM15.0143 8.3335C15.0143 8.16774 14.9485 8.00876 14.8313 7.89155C14.7141 7.77434 14.5551 7.7085 14.3893 7.7085C14.2236 7.7085 14.0646 7.77434 13.9474 7.89155C13.8302 8.00876 13.7643 8.16774 13.7643 8.3335V8.91766L13.2585 8.626C13.1155 8.54984 12.9485 8.5322 12.7928 8.57678C12.637 8.62136 12.5046 8.72469 12.4236 8.86497C12.3425 9.00525 12.3191 9.17152 12.3583 9.32873C12.3974 9.48594 12.4961 9.6218 12.6335 9.70766L13.1393 9.99933L12.6327 10.2918C12.489 10.3747 12.3842 10.5113 12.3412 10.6715C12.2982 10.8316 12.3206 11.0023 12.4035 11.146C12.4864 11.2897 12.6229 11.3945 12.7831 11.4375C12.9433 11.4805 13.114 11.458 13.2577 11.3752L13.7643 11.0827V11.6668C13.7643 11.8326 13.8302 11.9916 13.9474 12.1088C14.0646 12.226 14.2236 12.2918 14.3893 12.2918C14.5551 12.2918 14.7141 12.226 14.8313 12.1088C14.9485 11.9916 15.0143 11.8326 15.0143 11.6668V11.0835L15.5202 11.3752C15.6638 11.458 15.8345 11.4805 15.9947 11.4375C16.1549 11.3945 16.2915 11.2897 16.3743 11.146C16.4572 11.0023 16.4796 10.8316 16.4367 10.6715C16.3937 10.5113 16.2888 10.3747 16.1452 10.2918L15.6393 10.0002L16.1452 9.7085C16.2888 9.62562 16.3937 9.48906 16.4367 9.32887C16.4796 9.16869 16.4572 8.99799 16.3743 8.85433C16.2915 8.71067 16.1549 8.60582 15.9947 8.56284C15.8345 8.51987 15.6638 8.54228 15.5202 8.62516L15.0143 8.91683V8.3335Z"/>
</mask>
<path fill-rule="evenodd" clip-rule="evenodd" d="M2.64268 4.31016C1.66602 5.286 1.66602 6.85766 1.66602 10.0002C1.66602 13.1427 1.66602 14.7143 2.64268 15.6902C3.61935 16.666 5.19018 16.6668 8.33268 16.6668H11.666C14.8085 16.6668 16.3802 16.6668 17.356 15.6902C18.3318 14.7135 18.3327 13.1427 18.3327 10.0002C18.3327 6.85766 18.3327 5.286 17.356 4.31016C16.3793 3.33433 14.8085 3.3335 11.666 3.3335H8.33268C5.19018 3.3335 3.61852 3.3335 2.64268 4.31016ZM10.6243 8.3335C10.6243 8.16774 10.5585 8.00876 10.4413 7.89155C10.3241 7.77434 10.1651 7.7085 9.99935 7.7085C9.83359 7.7085 9.67462 7.77434 9.55741 7.89155C9.4402 8.00876 9.37435 8.16774 9.37435 8.3335V8.91766L8.86852 8.626C8.72551 8.54984 8.55853 8.5322 8.40277 8.57678C8.24701 8.62136 8.11465 8.72469 8.03359 8.86497C7.95253 9.00525 7.92912 9.17152 7.96828 9.32873C8.00745 9.48594 8.10612 9.6218 8.24352 9.70766L8.74935 9.99933L8.24352 10.2918C8.09986 10.3747 7.99501 10.5113 7.95203 10.6715C7.90905 10.8316 7.93147 11.0023 8.01435 11.146C8.09723 11.2897 8.23378 11.3945 8.39397 11.4375C8.55416 11.4805 8.72486 11.458 8.86852 11.3752L9.37435 11.0827V11.6668C9.37435 11.8326 9.4402 11.9916 9.55741 12.1088C9.67462 12.226 9.83359 12.2918 9.99935 12.2918C10.1651 12.2918 10.3241 12.226 10.4413 12.1088C10.5585 11.9916 10.6243 11.8326 10.6243 11.6668V11.0835L11.1302 11.3752C11.2738 11.458 11.4445 11.4805 11.6047 11.4375C11.7649 11.3945 11.9015 11.2897 11.9843 11.146C12.0672 11.0023 12.0896 10.8316 12.0467 10.6715C12.0037 10.5113 11.8988 10.3747 11.7552 10.2918L11.2493 10.0002L11.7552 9.7085C11.8988 9.62562 12.0037 9.48906 12.0467 9.32887C12.0896 9.16869 12.0672 8.99799 11.9843 8.85433C11.9015 8.71067 11.7649 8.60582 11.6047 8.56284C11.4445 8.51987 11.2738 8.54228 11.1302 8.62516L10.6243 8.91683V8.3335ZM5.61018 7.7085C5.77594 7.7085 5.93491 7.77434 6.05212 7.89155C6.16933 8.00876 6.23518 8.16774 6.23518 8.3335V8.91683L6.74018 8.62516C6.88384 8.54228 7.05454 8.51987 7.21473 8.56284C7.37491 8.60582 7.51147 8.71067 7.59435 8.85433C7.67723 8.99799 7.69965 9.16869 7.65667 9.32887C7.61369 9.48906 7.50884 9.62562 7.36518 9.7085L6.85935 10.0002L7.36518 10.2918C7.43631 10.3329 7.49867 10.3875 7.54868 10.4527C7.59869 10.5178 7.63539 10.5921 7.65667 10.6715C7.67795 10.7508 7.6834 10.8335 7.67271 10.9149C7.66201 10.9963 7.63539 11.0749 7.59435 11.146C7.55331 11.2171 7.49866 11.2795 7.43353 11.3295C7.36839 11.3795 7.29404 11.4162 7.21473 11.4375C7.13541 11.4588 7.05268 11.4642 6.97126 11.4535C6.88983 11.4428 6.81131 11.4162 6.74018 11.3752L6.23518 11.0835V11.6668C6.23518 11.8326 6.16933 11.9916 6.05212 12.1088C5.93491 12.226 5.77594 12.2918 5.61018 12.2918C5.44442 12.2918 5.28545 12.226 5.16824 12.1088C5.05103 11.9916 4.98518 11.8326 4.98518 11.6668V11.0827L4.47852 11.3743C4.33551 11.4505 4.16853 11.4681 4.01277 11.4235C3.85701 11.379 3.72465 11.2756 3.64359 11.1354C3.56253 10.9951 3.53912 10.8288 3.57828 10.6716C3.61745 10.5144 3.71613 10.3785 3.85352 10.2927L4.35935 10.0002L3.85352 9.7085C3.78238 9.66746 3.72003 9.61281 3.67002 9.54768C3.62 9.48254 3.58331 9.40819 3.56203 9.32887C3.54075 9.24956 3.5353 9.16683 3.54599 9.0854C3.55669 9.00398 3.58331 8.92546 3.62435 8.85433C3.66539 8.7832 3.72003 8.72084 3.78517 8.67083C3.8503 8.62082 3.92465 8.58412 4.00397 8.56284C4.08329 8.54156 4.16602 8.53611 4.24744 8.54681C4.32886 8.5575 4.40738 8.58413 4.47852 8.62516L4.98518 8.91766V8.3335C4.98518 8.16774 5.05103 8.00876 5.16824 7.89155C5.28545 7.77434 5.44442 7.7085 5.61018 7.7085ZM15.0143 8.3335C15.0143 8.16774 14.9485 8.00876 14.8313 7.89155C14.7141 7.77434 14.5551 7.7085 14.3893 7.7085C14.2236 7.7085 14.0646 7.77434 13.9474 7.89155C13.8302 8.00876 13.7643 8.16774 13.7643 8.3335V8.91766L13.2585 8.626C13.1155 8.54984 12.9485 8.5322 12.7928 8.57678C12.637 8.62136 12.5046 8.72469 12.4236 8.86497C12.3425 9.00525 12.3191 9.17152 12.3583 9.32873C12.3974 9.48594 12.4961 9.6218 12.6335 9.70766L13.1393 9.99933L12.6327 10.2918C12.489 10.3747 12.3842 10.5113 12.3412 10.6715C12.2982 10.8316 12.3206 11.0023 12.4035 11.146C12.4864 11.2897 12.6229 11.3945 12.7831 11.4375C12.9433 11.4805 13.114 11.458 13.2577 11.3752L13.7643 11.0827V11.6668C13.7643 11.8326 13.8302 11.9916 13.9474 12.1088C14.0646 12.226 14.2236 12.2918 14.3893 12.2918C14.5551 12.2918 14.7141 12.226 14.8313 12.1088C14.9485 11.9916 15.0143 11.8326 15.0143 11.6668V11.0835L15.5202 11.3752C15.6638 11.458 15.8345 11.4805 15.9947 11.4375C16.1549 11.3945 16.2915 11.2897 16.3743 11.146C16.4572 11.0023 16.4796 10.8316 16.4367 10.6715C16.3937 10.5113 16.2888 10.3747 16.1452 10.2918L15.6393 10.0002L16.1452 9.7085C16.2888 9.62562 16.3937 9.48906 16.4367 9.32887C16.4796 9.16869 16.4572 8.99799 16.3743 8.85433C16.2915 8.71067 16.1549 8.60582 15.9947 8.56284C15.8345 8.51987 15.6638 8.54228 15.5202 8.62516L15.0143 8.91683V8.3335Z" stroke="#B8BABF" stroke-width="2" mask="url(#path-1-outside-1_3301_26899)"/>
</svg>
