<svg width="20" height="20" viewBox="0 0 20 20" fill="none" xmlns="http://www.w3.org/2000/svg">
<mask id="path-1-inside-1_741_2715" fill="white">
<path d="M2.14573 6.44189C2.27249 4.65287 3.68525 3.26682 5.47528 3.15515C6.81187 3.07177 8.49637 3 10.335 3C12.1736 3 13.8581 3.07177 15.1947 3.15515C16.9848 3.26682 18.3975 4.65287 18.5243 6.44189C18.6046 7.57534 18.67 8.93441 18.67 10.3544C18.67 11.7744 18.6046 13.1335 18.5243 14.2669C18.3975 16.056 16.9848 17.442 15.1947 17.5537C13.8581 17.637 12.1736 17.7088 10.335 17.7088C8.49637 17.7088 6.81187 17.637 5.47527 17.5537C3.68525 17.442 2.27249 16.056 2.14573 14.2669C2.06542 13.1335 2 11.7744 2 10.3544C2 8.93441 2.06542 7.57534 2.14573 6.44189Z"/>
</mask>
<path d="M2.14573 6.44189C2.27249 4.65287 3.68525 3.26682 5.47528 3.15515C6.81187 3.07177 8.49637 3 10.335 3C12.1736 3 13.8581 3.07177 15.1947 3.15515C16.9848 3.26682 18.3975 4.65287 18.5243 6.44189C18.6046 7.57534 18.67 8.93441 18.67 10.3544C18.67 11.7744 18.6046 13.1335 18.5243 14.2669C18.3975 16.056 16.9848 17.442 15.1947 17.5537C13.8581 17.637 12.1736 17.7088 10.335 17.7088C8.49637 17.7088 6.81187 17.637 5.47527 17.5537C3.68525 17.442 2.27249 16.056 2.14573 14.2669C2.06542 13.1335 2 11.7744 2 10.3544C2 8.93441 2.06542 7.57534 2.14573 6.44189Z" fill="#81858C"/>
<path d="M9.09464 9.94096L9.25276 9.46662L9.09464 9.94096ZM11.5754 9.94096L11.4172 9.46662L11.5754 9.94096ZM17.8475 8.37728C18.1095 8.28996 18.2511 8.0068 18.1638 7.74483C18.0764 7.48286 17.7933 7.34128 17.5313 7.4286L17.8475 8.37728ZM2.98059 7.90294L2.82247 8.37728L8.93653 10.4153L9.09464 9.94096L9.25276 9.46662L3.1387 7.4286L2.98059 7.90294ZM11.5754 9.94096L11.7335 10.4153L17.8475 8.37728L17.6894 7.90294L17.5313 7.4286L11.4172 9.46662L11.5754 9.94096ZM9.09464 9.94096L8.93653 10.4153C9.84429 10.7179 10.8257 10.7179 11.7335 10.4153L11.5754 9.94096L11.4172 9.46662C10.7147 9.70078 9.95525 9.70078 9.25276 9.46662L9.09464 9.94096ZM5.47527 17.5537L5.41301 18.5517L5.47527 17.5537ZM2.14573 14.2669L1.14823 14.3376L2.14573 14.2669ZM15.1947 17.5537L15.257 18.5517L15.1947 17.5537ZM18.5243 14.2669L17.5268 14.1963L18.5243 14.2669ZM15.1947 3.15515L15.257 2.15709L15.1947 3.15515ZM18.5243 6.44189L17.5268 6.51257L18.5243 6.44189ZM5.47528 3.15515L5.53754 4.15321L5.47528 3.15515ZM2.14573 6.44189L3.14323 6.51257L2.14573 6.44189ZM5.47528 3.15515L5.53754 4.15321C6.85834 4.07082 8.52156 4 10.335 4V3V2C8.47119 2 6.7654 2.07273 5.41301 2.15709L5.47528 3.15515ZM10.335 3V4C12.1484 4 13.8117 4.07082 15.1325 4.15321L15.1947 3.15515L15.257 2.15709C13.9046 2.07273 12.1988 2 10.335 2V3ZM15.1947 17.5537L15.1325 16.5556C13.8117 16.638 12.1484 16.7088 10.335 16.7088V17.7088V18.7088C12.1988 18.7088 13.9046 18.6361 15.257 18.5517L15.1947 17.5537ZM10.335 17.7088V16.7088C8.52156 16.7088 6.85834 16.638 5.53754 16.5556L5.47527 17.5537L5.41301 18.5517C6.7654 18.6361 8.47118 18.7088 10.335 18.7088V17.7088ZM18.5243 6.44189L17.5268 6.51257C17.6059 7.62911 17.67 8.9638 17.67 10.3544H18.67H19.67C19.67 8.90502 19.6033 7.52157 19.5218 6.37121L18.5243 6.44189ZM18.67 10.3544H17.67C17.67 11.745 17.6059 13.0797 17.5268 14.1963L18.5243 14.2669L19.5218 14.3376C19.6033 13.1873 19.67 11.8038 19.67 10.3544H18.67ZM2.14573 14.2669L3.14323 14.1963C3.06411 13.0797 3 11.745 3 10.3544H2H1C1 11.8038 1.06672 13.1873 1.14823 14.3376L2.14573 14.2669ZM2 10.3544H3C3 8.9638 3.06411 7.62911 3.14323 6.51257L2.14573 6.44189L1.14823 6.37121C1.06672 7.52157 1 8.90502 1 10.3544H2ZM5.47527 17.5537L5.53754 16.5556C4.24195 16.4748 3.23418 15.4799 3.14323 14.1963L2.14573 14.2669L1.14823 14.3376C1.3108 16.632 3.12855 18.4092 5.41301 18.5517L5.47527 17.5537ZM15.1947 17.5537L15.257 18.5517C17.5414 18.4092 19.3592 16.632 19.5218 14.3376L18.5243 14.2669L17.5268 14.1963C17.4358 15.4799 16.4281 16.4748 15.1325 16.5556L15.1947 17.5537ZM15.1947 3.15515L15.1325 4.15321C16.4281 4.23404 17.4358 5.2289 17.5268 6.51257L18.5243 6.44189L19.5218 6.37121C19.3592 4.07684 17.5414 2.29961 15.257 2.15709L15.1947 3.15515ZM5.47528 3.15515L5.41301 2.15709C3.12855 2.29961 1.3108 4.07684 1.14823 6.37121L2.14573 6.44189L3.14323 6.51257C3.23418 5.2289 4.24195 4.23404 5.53754 4.15321L5.47528 3.15515Z" fill="white" mask="url(#path-1-inside-1_741_2715)"/>
</svg>
