<svg width="20" height="20" viewBox="0 0 20 20" fill="none" xmlns="http://www.w3.org/2000/svg">
<path d="M15 3.3335H4.99998C4.07915 3.3335 3.31165 4.09183 3.53915 4.9835C3.78145 5.92836 4.22763 6.80874 4.84638 7.56281C5.46513 8.31689 6.24145 8.92638 7.12082 9.3485C7.80665 9.67683 8.33332 10.3218 8.33332 11.0818V16.1518C8.33339 16.2938 8.36975 16.4334 8.43894 16.5574C8.50812 16.6814 8.60785 16.7857 8.72865 16.8603C8.84944 16.935 8.98731 16.9775 9.12916 16.9839C9.271 16.9903 9.41213 16.9603 9.53915 16.8968L11.2058 16.0635C11.3442 15.9943 11.4606 15.888 11.542 15.7564C11.6234 15.6249 11.6666 15.4732 11.6666 15.3185V11.0818C11.6666 10.3218 12.1933 9.67683 12.8783 9.3485C13.758 8.92657 14.5346 8.31716 15.1537 7.56308C15.7727 6.80899 16.2192 5.92852 16.4616 4.9835C16.6875 4.09183 15.9191 3.3335 15 3.3335Z" stroke="#2E2E2F" stroke-width="1.5"/>
</svg>
