<svg width="16" height="16" viewBox="0 0 16 16" fill="none" xmlns="http://www.w3.org/2000/svg">
<path fill-rule="evenodd" clip-rule="evenodd" d="M8 1.33325C9.5913 1.33325 11.1174 1.96539 12.2426 3.09061C13.3679 4.21583 14 5.74195 14 7.33325C14 9.38259 12.8827 11.0599 11.7053 12.2633C11.1171 12.858 10.4753 13.3971 9.788 13.8739L9.504 14.0673L9.37067 14.1559L9.11933 14.3159L8.89533 14.4526L8.618 14.6139C8.42976 14.7214 8.21675 14.7779 8 14.7779C7.78325 14.7779 7.57024 14.7214 7.382 14.6139L7.10467 14.4526L6.758 14.2393L6.63 14.1559L6.35667 13.9739C5.61522 13.4723 4.9246 12.8993 4.29467 12.2633C3.11733 11.0593 2 9.38259 2 7.33325C2 5.74195 2.63214 4.21583 3.75736 3.09061C4.88258 1.96539 6.4087 1.33325 8 1.33325ZM8 2.66659C6.76232 2.66659 5.57534 3.15825 4.70017 4.03342C3.825 4.90859 3.33333 6.09558 3.33333 7.33325C3.33333 8.88125 4.18133 10.2399 5.24733 11.3306C5.70569 11.7946 6.20111 12.2204 6.72867 12.6039L7.034 12.8213C7.13267 12.8901 7.22756 12.9541 7.31867 13.0133L7.57867 13.1799L7.80733 13.3193L8 13.4319L8.30333 13.2526L8.548 13.0993C8.67822 13.0166 8.81756 12.9239 8.966 12.8213L9.27133 12.6039C9.79889 12.2204 10.2943 11.7946 10.7527 11.3306C11.8187 10.2406 12.6667 8.88125 12.6667 7.33325C12.6667 6.09558 12.175 4.90859 11.2998 4.03342C10.4247 3.15825 9.23768 2.66659 8 2.66659ZM8 4.66659C8.70724 4.66659 9.38552 4.94754 9.88562 5.44763C10.3857 5.94773 10.6667 6.62601 10.6667 7.33325C10.6667 8.0405 10.3857 8.71877 9.88562 9.21887C9.38552 9.71897 8.70724 9.99992 8 9.99992C7.29276 9.99992 6.61448 9.71897 6.11438 9.21887C5.61428 8.71877 5.33333 8.0405 5.33333 7.33325C5.33333 6.62601 5.61428 5.94773 6.11438 5.44763C6.61448 4.94754 7.29276 4.66659 8 4.66659ZM8 5.99992C7.64638 5.99992 7.30724 6.14039 7.05719 6.39044C6.80714 6.64049 6.66667 6.97963 6.66667 7.33325C6.66667 7.68687 6.80714 8.02601 7.05719 8.27606C7.30724 8.52611 7.64638 8.66659 8 8.66659C8.35362 8.66659 8.69276 8.52611 8.94281 8.27606C9.19286 8.02601 9.33333 7.68687 9.33333 7.33325C9.33333 6.97963 9.19286 6.64049 8.94281 6.39044C8.69276 6.14039 8.35362 5.99992 8 5.99992Z" fill="#214999"/>
</svg>
