<svg width="24" height="24" viewBox="0 0 24 24" fill="none" xmlns="http://www.w3.org/2000/svg">
<path d="M20.5 8C19.108 4.821 15.677 3 11.978 3C7.299 3 3.453 6.552 3 11.1" stroke="#214999" stroke-width="1.5" stroke-linecap="round" stroke-linejoin="round"/>
<path d="M16.489 8.40039H20.459C20.53 8.40052 20.6003 8.38665 20.666 8.35957C20.7316 8.33249 20.7912 8.29274 20.8415 8.24258C20.8917 8.19243 20.9316 8.13285 20.9588 8.06727C20.986 8.00169 21 7.93139 21 7.86039V3.90039M3.5 16.0004C4.892 19.1794 8.323 21.0004 12.022 21.0004C16.701 21.0004 20.547 17.4484 21 12.9004" stroke="#214999" stroke-width="1.5" stroke-linecap="round" stroke-linejoin="round"/>
<path d="M7.511 15.5996H3.541C3.47 15.5995 3.39968 15.6133 3.33404 15.6404C3.26841 15.6675 3.20877 15.7073 3.15852 15.7574C3.10827 15.8076 3.0684 15.8671 3.0412 15.9327C3.014 15.9983 3 16.0686 3 16.1396V20.0996" stroke="#214999" stroke-width="1.5" stroke-linecap="round" stroke-linejoin="round"/>
</svg>
