<svg width="24" height="24" viewBox="0 0 24 24" fill="none" xmlns="http://www.w3.org/2000/svg">
<path d="M5 21C4.45 21 3.97933 20.8043 3.588 20.413C3.19667 20.0217 3.00067 19.5507 3 19V5C3 4.45 3.196 3.97933 3.588 3.588C3.98 3.19667 4.45067 3.00067 5 3H9.175C9.35833 2.41667 9.71667 1.93767 10.25 1.563C10.7833 1.18833 11.3667 1.00067 12 1C12.6667 1 13.2627 1.18767 13.788 1.563C14.3133 1.93833 14.6673 2.41733 14.85 3H19C19.55 3 20.021 3.196 20.413 3.588C20.805 3.98 21.0007 4.45067 21 5V9C21 9.28333 20.904 9.521 20.712 9.713C20.52 9.905 20.2827 10.0007 20 10C19.7173 9.99933 19.48 9.90333 19.288 9.712C19.096 9.52067 19 9.28333 19 9V5H17V7C17 7.28333 16.904 7.521 16.712 7.713C16.52 7.905 16.2827 8.00067 16 8H8C7.71667 8 7.47933 7.904 7.288 7.712C7.09667 7.52 7.00067 7.28267 7 7V5H5V19H11.5C11.7833 19 12.021 19.096 12.213 19.288C12.405 19.48 12.5007 19.7173 12.5 20C12.4993 20.2827 12.4033 20.5203 12.212 20.713C12.0207 20.9057 11.7833 21.0013 11.5 21H5ZM12 5C12.2833 5 12.521 4.904 12.713 4.712C12.905 4.52 13.0007 4.28267 13 4C12.9993 3.71733 12.9033 3.48 12.712 3.288C12.5207 3.096 12.2833 3 12 3C11.7167 3 11.4793 3.096 11.288 3.288C11.0967 3.48 11.0007 3.71733 11 4C10.9993 4.28267 11.0953 4.52033 11.288 4.713C11.4807 4.90567 11.718 5.00133 12 5Z" fill="#B8BABF"/>
<path fill-rule="evenodd" clip-rule="evenodd" d="M16.1436 12.5965C16.2025 12.4173 16.3157 12.2613 16.4672 12.1508C16.6186 12.0403 16.8005 11.9809 16.9871 11.9809H19.0129C19.1995 11.9809 19.3814 12.0403 19.5328 12.1508C19.6843 12.2613 19.7975 12.4173 19.8564 12.5965L20.0978 13.3309H21.5556C21.6734 13.3309 21.7865 13.3784 21.8698 13.4628C21.9532 13.5471 22 13.6616 22 13.7809C22 13.9003 21.9532 14.0148 21.8698 14.0991C21.7865 14.1835 21.6734 14.2309 21.5556 14.2309H21.1111V19.6309C21.1111 19.989 20.9706 20.3324 20.7206 20.5855C20.4705 20.8387 20.1314 20.9809 19.7778 20.9809H16.2222C15.8686 20.9809 15.5295 20.8387 15.2794 20.5855C15.0294 20.3324 14.8889 19.989 14.8889 19.6309V14.2309H14.4444C14.3266 14.2309 14.2135 14.1835 14.1302 14.0991C14.0468 14.0148 14 13.9003 14 13.7809C14 13.6616 14.0468 13.5471 14.1302 13.4628C14.2135 13.3784 14.3266 13.3309 14.4444 13.3309H15.9022L16.1436 12.5965ZM16.8387 13.3309L16.9871 12.8809H19.0129L19.1613 13.3309H16.8387Z" fill="#B8BABF"/>
</svg>
