<svg width="24" height="24" viewBox="0 0 24 24" fill="none" xmlns="http://www.w3.org/2000/svg">
<path d="M5 21C4.45 21 3.97933 20.8043 3.588 20.413C3.19667 20.0217 3.00067 19.5507 3 19V5C3 4.45 3.196 3.97933 3.588 3.588C3.98 3.19667 4.45067 3.00067 5 3H9.175C9.35833 2.41667 9.71667 1.93767 10.25 1.563C10.7833 1.18833 11.3667 1.00067 12 1C12.6667 1 13.2627 1.18767 13.788 1.563C14.3133 1.93833 14.6673 2.41733 14.85 3H19C19.55 3 20.021 3.196 20.413 3.588C20.805 3.98 21.0007 4.45067 21 5V9C21 9.28333 20.904 9.521 20.712 9.713C20.52 9.905 20.2827 10.0007 20 10C19.7173 9.99933 19.48 9.90333 19.288 9.712C19.096 9.52067 19 9.28333 19 9V5H17V7C17 7.28333 16.904 7.521 16.712 7.713C16.52 7.905 16.2827 8.00067 16 8H8C7.71667 8 7.47933 7.904 7.288 7.712C7.09667 7.52 7.00067 7.28267 7 7V5H5V19H10C10.2833 19 10.521 19.096 10.713 19.288C10.905 19.48 11.0007 19.7173 11 20C10.9993 20.2827 10.9033 20.5203 10.712 20.713C10.5207 20.9057 10.2833 21.0013 10 21H5ZM12 5C12.2833 5 12.521 4.904 12.713 4.712C12.905 4.52 13.0007 4.28267 13 4C12.9993 3.71733 12.9033 3.48 12.712 3.288C12.5207 3.096 12.2833 3 12 3C11.7167 3 11.4793 3.096 11.288 3.288C11.0967 3.48 11.0007 3.71733 11 4C10.9993 4.28267 11.0953 4.52033 11.288 4.713C11.4807 4.90567 11.718 5.00133 12 5Z" fill="#B8BABF"/>
<path d="M20.7325 12.5304C21.0255 12.2376 21.5002 12.2375 21.7931 12.5304C22.0858 12.8233 22.0858 13.2981 21.7931 13.5909L18.7872 16.5958L21.7931 19.6007L21.8438 19.6573C22.0843 19.9519 22.0677 20.3866 21.7931 20.6612C21.5186 20.9357 21.0837 20.953 20.7892 20.713L20.7325 20.6612L17.7267 17.6554L14.7208 20.6612C14.4279 20.9539 13.9531 20.9539 13.6603 20.6612C13.3675 20.3684 13.3675 19.8936 13.6603 19.6007L16.6651 16.5958L13.6603 13.5909L13.6085 13.5343C13.3682 13.2397 13.3857 12.805 13.6603 12.5304C13.9348 12.2558 14.3696 12.2383 14.6642 12.4786L14.7208 12.5304L17.7267 15.5353L20.7325 12.5304Z" fill="#B8BABF"/>
</svg>
