<svg width="24" height="24" viewBox="0 0 24 24" fill="none" xmlns="http://www.w3.org/2000/svg">
<path d="M5 21C4.45 21 3.97933 20.8043 3.588 20.413C3.19667 20.0217 3.00067 19.5507 3 19V5C3 4.45 3.196 3.97933 3.588 3.588C3.98 3.19667 4.45067 3.00067 5 3H9.175C9.35833 2.41667 9.71667 1.93767 10.25 1.563C10.7833 1.18833 11.3667 1.00067 12 1C12.6667 1 13.2627 1.18767 13.788 1.563C14.3133 1.93833 14.6673 2.41733 14.85 3H19C19.55 3 20.021 3.196 20.413 3.588C20.805 3.98 21.0007 4.45067 21 5V9C21 9.28333 20.904 9.521 20.712 9.713C20.52 9.905 20.2827 10.0007 20 10C19.7173 9.99933 19.48 9.90333 19.288 9.712C19.096 9.52067 19 9.28333 19 9V5H17V7C17 7.28333 16.904 7.521 16.712 7.713C16.52 7.905 16.2827 8.00067 16 8H8C7.71667 8 7.47933 7.904 7.288 7.712C7.09667 7.52 7.00067 7.28267 7 7V5H5V19H8C8.28333 19 8.521 19.096 8.713 19.288C8.905 19.48 9.00067 19.7173 9 20C8.99933 20.2827 8.90333 20.5203 8.712 20.713C8.52067 20.9057 8.28333 21.0013 8 21H5ZM12 5C12.2833 5 12.521 4.904 12.713 4.712C12.905 4.52 13.0007 4.28267 13 4C12.9993 3.71733 12.9033 3.48 12.712 3.288C12.5207 3.096 12.2833 3 12 3C11.7167 3 11.4793 3.096 11.288 3.288C11.0967 3.48 11.0007 3.71733 11 4C10.9993 4.28267 11.0953 4.52033 11.288 4.713C11.4807 4.90567 11.718 5.00133 12 5Z" fill="#B8BABF"/>
<path d="M20.2412 12.3496C20.6006 11.9303 21.2311 11.8818 21.6504 12.2412C22.0697 12.6006 22.1182 13.2311 21.7588 13.6504L15.7588 20.6504C15.5775 20.8619 15.3164 20.9883 15.0381 20.999C14.7598 21.0096 14.4899 20.9039 14.293 20.707L11.293 17.707L11.2246 17.6309C10.9043 17.2381 10.9269 16.6591 11.293 16.293C11.6591 15.9269 12.2381 15.9043 12.6309 16.2246L12.707 16.293L14.9434 18.5293L20.2412 12.3496Z" fill="#B8BABF"/>
</svg>
