<svg width="24" height="24" viewBox="0 0 24 24" fill="none" xmlns="http://www.w3.org/2000/svg">
<path d="M16.5268 14.4661L15.9929 13.9394L14.9394 15.0071L15.4732 15.5339L16.5268 14.4661ZM20.0035 20.0036C20.2984 20.2945 20.7732 20.2913 21.0642 19.9965C21.3551 19.7016 21.3519 19.2268 21.057 18.9358L20.0035 20.0036ZM8.20333 9.76689C8.17247 9.35383 7.8126 9.04399 7.39953 9.07485C6.98647 9.10571 6.67664 9.46558 6.7075 9.87864L8.20333 9.76689ZM10.9167 14.2454C11.3283 14.2914 11.6994 13.995 11.7454 13.5833C11.7914 13.1717 11.495 12.8006 11.0833 12.7546L10.9167 14.2454ZM16 15L15.4732 15.5339L20.0035 20.0036L20.5303 19.4697L21.057 18.9358L16.5268 14.4661L16 15ZM17 10H16.25C16.25 12.8995 13.8995 15.25 11 15.25V16V16.75C14.7279 16.75 17.75 13.7279 17.75 10H17ZM11 16V15.25C8.10051 15.25 5.75 12.8995 5.75 10H5H4.25C4.25 13.7279 7.27208 16.75 11 16.75V16ZM5 10H5.75C5.75 7.10051 8.10051 4.75 11 4.75V4V3.25C7.27208 3.25 4.25 6.27208 4.25 10H5ZM11 4V4.75C13.8995 4.75 16.25 7.10051 16.25 10H17H17.75C17.75 6.27208 14.7279 3.25 11 3.25V4ZM7.45541 9.82276L6.7075 9.87864C6.79001 10.983 7.25583 12.0239 8.02442 12.8213L8.5644 12.3008L9.10438 11.7803C8.5785 11.2347 8.25978 10.5225 8.20333 9.76689L7.45541 9.82276ZM8.5644 12.3008L8.02442 12.8213C8.79302 13.6186 9.81607 14.1223 10.9167 14.2454L11 13.5L11.0833 12.7546C10.3302 12.6705 9.63026 12.3258 9.10438 11.7803L8.5644 12.3008Z" fill="#81838C"/>
</svg>
