<svg width="49" height="48" viewBox="0 0 49 48" fill="none" xmlns="http://www.w3.org/2000/svg">
<path fill-rule="evenodd" clip-rule="evenodd" d="M24.5 2.5C24.8978 2.5 25.2794 2.65804 25.5607 2.93934C25.842 3.22064 26 3.60218 26 4V16.38L29.44 12.94C29.5773 12.7926 29.7429 12.6744 29.9269 12.5924C30.1109 12.5105 30.3095 12.4664 30.511 12.4628C30.7124 12.4593 30.9124 12.4963 31.0992 12.5718C31.286 12.6472 31.4556 12.7595 31.5981 12.9019C31.7405 13.0444 31.8528 13.214 31.9282 13.4008C32.0037 13.5876 32.0407 13.7876 32.0372 13.989C32.0336 14.1905 31.9895 14.3891 31.9076 14.5731C31.8256 14.7571 31.7074 14.9227 31.56 15.06L25.56 21.06C25.2787 21.3409 24.8975 21.4987 24.5 21.4987C24.1025 21.4987 23.7213 21.3409 23.44 21.06L17.44 15.06C17.175 14.7757 17.0308 14.3996 17.0376 14.011C17.0445 13.6224 17.2019 13.2516 17.4768 12.9768C17.7516 12.7019 18.1224 12.5445 18.511 12.5377C18.8996 12.5308 19.2757 12.675 19.56 12.94L23 16.38V4C23 3.60218 23.158 3.22064 23.4393 2.93934C23.7206 2.65804 24.1022 2.5 24.5 2.5ZM33.008 4.108C33.0273 3.91193 33.085 3.72157 33.1778 3.5478C33.2707 3.37404 33.3969 3.22027 33.5492 3.09527C33.7015 2.97028 33.8769 2.87652 34.0654 2.81933C34.254 2.76215 34.4519 2.74267 34.648 2.762C38.028 3.094 40.636 3.872 42.632 5.868C44.422 7.658 45.232 9.938 45.62 12.828C46 15.65 46 19.268 46 23.886V26.058C45.992 29.764 45.946 32.758 45.62 35.172C45.232 38.062 44.42 40.342 42.632 42.132C40.842 43.922 38.562 44.732 35.672 45.12C32.85 45.5 29.232 45.5 24.614 45.5H24.386C19.768 45.5 16.15 45.5 13.326 45.12C10.438 44.732 8.158 43.92 6.368 42.132C4.578 40.342 3.768 38.062 3.38 35.172C3.054 32.758 3.008 29.764 3 26.06V23.886C3 19.268 3 15.65 3.38 12.826C3.768 9.938 4.58 7.658 6.368 5.868C8.364 3.872 10.972 3.094 14.354 2.762C14.5535 2.73557 14.7564 2.74958 14.9504 2.80318C15.1444 2.85679 15.3257 2.94889 15.4833 3.07402C15.641 3.19914 15.7719 3.35472 15.8682 3.53149C15.9645 3.70826 16.0242 3.9026 16.0438 4.10293C16.0634 4.30326 16.0425 4.5055 15.9823 4.69758C15.9221 4.88966 15.8239 5.06766 15.6934 5.22097C15.563 5.37429 15.4031 5.49979 15.2231 5.58999C15.0432 5.68019 14.8469 5.73324 14.646 5.746C11.528 6.054 9.76 6.72 8.49 7.99C7.35 9.13 6.696 10.67 6.352 13.228C6.004 15.828 6 19.244 6 24V24.5H11.09C12.634 24.5 13.858 24.496 14.958 25.004C16.058 25.51 16.854 26.44 17.858 27.614L18.034 27.818L19.244 29.23C20.512 30.71 20.868 31.074 21.296 31.27C21.722 31.468 22.232 31.5 24.18 31.5H24.82C26.768 31.5 27.278 31.468 27.704 31.272C28.132 31.074 28.488 30.708 29.756 29.232L30.966 27.818L31.142 27.614C32.146 26.44 32.942 25.51 34.042 25.004C35.142 24.496 36.366 24.498 37.912 24.5H43V24C43 19.244 42.996 15.828 42.648 13.228C42.304 10.67 41.648 9.128 40.51 7.988C39.242 6.72 37.472 6.054 34.354 5.748C34.1579 5.72872 33.9676 5.67101 33.7938 5.57815C33.62 5.4853 33.4663 5.35912 33.3413 5.20682C33.2163 5.05453 33.1225 4.8791 33.0653 4.69056C33.0081 4.50203 32.9887 4.30407 33.008 4.108ZM42.994 27.5H38.18C36.232 27.5 35.722 27.532 35.296 27.728C34.868 27.926 34.512 28.292 33.244 29.768L32.034 31.182L31.858 31.386C30.854 32.56 30.058 33.49 28.958 33.996C27.858 34.502 26.634 34.502 25.09 34.5H23.912C22.366 34.5 21.142 34.504 20.042 33.996C18.942 33.49 18.146 32.56 17.142 31.386L16.966 31.182L15.756 29.77C14.488 28.29 14.132 27.926 13.704 27.73C13.278 27.532 12.768 27.5 10.82 27.5H6.006C6.026 30.506 6.096 32.86 6.352 34.774C6.696 37.33 7.352 38.872 8.49 40.01C9.63 41.15 11.17 41.804 13.728 42.148C16.328 42.496 19.744 42.5 24.5 42.5C29.256 42.5 32.672 42.496 35.272 42.148C37.83 41.804 39.372 41.148 40.512 40.01C41.65 38.87 42.304 37.33 42.648 34.774C42.904 32.86 42.976 30.506 42.994 27.5Z" fill="#55565C"/>
</svg>
