<svg width="20" height="20" viewBox="0 0 20 20" fill="none" xmlns="http://www.w3.org/2000/svg">
<path fill-rule="evenodd" clip-rule="evenodd" d="M2.64332 4.31001C1.66666 5.28584 1.66666 6.85751 1.66666 10C1.66666 13.1425 1.66666 14.7142 2.64332 15.69C3.61999 16.6658 5.19082 16.6667 8.33332 16.6667H11.6667C14.8092 16.6667 16.3808 16.6667 17.3567 15.69C18.3325 14.7133 18.3333 13.1425 18.3333 10C18.3333 6.85751 18.3333 5.28584 17.3567 4.31001C16.38 3.33418 14.8092 3.33334 11.6667 3.33334H8.33332C5.19082 3.33334 3.61916 3.33334 2.64332 4.31001ZM10.625 8.33334C10.625 8.16758 10.5591 8.00861 10.4419 7.8914C10.3247 7.77419 10.1657 7.70834 9.99999 7.70834C9.83423 7.70834 9.67526 7.77419 9.55805 7.8914C9.44084 8.00861 9.37499 8.16758 9.37499 8.33334V8.91751L8.86916 8.62584C8.72615 8.54969 8.55917 8.53205 8.40341 8.57663C8.24765 8.62121 8.11529 8.72453 8.03423 8.86481C7.95318 9.00509 7.92976 9.17137 7.96892 9.32858C8.00809 9.48579 8.10677 9.62165 8.24416 9.70751L8.74999 9.99918L8.24416 10.2917C8.1005 10.3746 7.99565 10.5111 7.95267 10.6713C7.90969 10.8315 7.93211 11.0022 8.01499 11.1458C8.09787 11.2895 8.23442 11.3944 8.39461 11.4373C8.5548 11.4803 8.7255 11.4579 8.86916 11.375L9.37499 11.0825V11.6667C9.37499 11.8324 9.44084 11.9914 9.55805 12.1086C9.67526 12.2258 9.83423 12.2917 9.99999 12.2917C10.1657 12.2917 10.3247 12.2258 10.4419 12.1086C10.5591 11.9914 10.625 11.8324 10.625 11.6667V11.0833L11.1308 11.375C11.2745 11.4579 11.4452 11.4803 11.6054 11.4373C11.7656 11.3944 11.9021 11.2895 11.985 11.1458C12.0679 11.0022 12.0903 10.8315 12.0473 10.6713C12.0043 10.5111 11.8995 10.3746 11.7558 10.2917L11.25 10L11.7558 9.70834C11.8995 9.62546 12.0043 9.48891 12.0473 9.32872C12.0903 9.16853 12.0679 8.99784 11.985 8.85418C11.9021 8.71052 11.7656 8.60567 11.6054 8.56269C11.4452 8.51971 11.2745 8.54213 11.1308 8.62501L10.625 8.91668V8.33334ZM5.61082 7.70834C5.77658 7.70834 5.93555 7.77419 6.05276 7.8914C6.16997 8.00861 6.23582 8.16758 6.23582 8.33334V8.91668L6.74082 8.62501C6.88448 8.54213 7.05518 8.51971 7.21537 8.56269C7.37556 8.60567 7.51211 8.71052 7.59499 8.85418C7.67787 8.99784 7.70029 9.16853 7.65731 9.32872C7.61433 9.48891 7.50948 9.62546 7.36582 9.70834L6.85999 10L7.36582 10.2917C7.43696 10.3327 7.49931 10.3874 7.54932 10.4525C7.59934 10.5176 7.63603 10.592 7.65731 10.6713C7.67859 10.7506 7.68404 10.8333 7.67335 10.9148C7.66265 10.9962 7.63603 11.0747 7.59499 11.1458C7.55395 11.217 7.49931 11.2793 7.43417 11.3293C7.36903 11.3794 7.29468 11.4161 7.21537 11.4373C7.13605 11.4586 7.05332 11.4641 6.9719 11.4534C6.89047 11.4427 6.81196 11.416 6.74082 11.375L6.23582 11.0833V11.6667C6.23582 11.8324 6.16997 11.9914 6.05276 12.1086C5.93555 12.2258 5.77658 12.2917 5.61082 12.2917C5.44506 12.2917 5.28609 12.2258 5.16888 12.1086C5.05167 11.9914 4.98582 11.8324 4.98582 11.6667V11.0825L4.47916 11.3742C4.33615 11.4503 4.16917 11.468 4.01341 11.4234C3.85765 11.3788 3.72529 11.2755 3.64423 11.1352C3.56318 10.9949 3.53976 10.8287 3.57892 10.6714C3.61809 10.5142 3.71677 10.3784 3.85416 10.2925L4.35999 10L3.85416 9.70834C3.78302 9.6673 3.72067 9.61266 3.67066 9.54752C3.62064 9.48239 3.58395 9.40804 3.56267 9.32872C3.54139 9.24941 3.53594 9.16667 3.54663 9.08525C3.55733 9.00383 3.58395 8.92531 3.62499 8.85418C3.66603 8.78304 3.72067 8.72069 3.78581 8.67068C3.85095 8.62066 3.92529 8.58397 4.00461 8.56269C4.08393 8.54141 4.16666 8.53596 4.24808 8.54665C4.3295 8.55735 4.40802 8.58397 4.47916 8.62501L4.98582 8.91751V8.33334C4.98582 8.16758 5.05167 8.00861 5.16888 7.8914C5.28609 7.77419 5.44506 7.70834 5.61082 7.70834ZM15.015 8.33334C15.015 8.16758 14.9491 8.00861 14.8319 7.8914C14.7147 7.77419 14.5557 7.70834 14.39 7.70834C14.2242 7.70834 14.0653 7.77419 13.948 7.8914C13.8308 8.00861 13.765 8.16758 13.765 8.33334V8.91751L13.2592 8.62584C13.1162 8.54969 12.9492 8.53205 12.7934 8.57663C12.6376 8.62121 12.5053 8.72453 12.4242 8.86481C12.3432 9.00509 12.3198 9.17137 12.3589 9.32858C12.3981 9.48579 12.4968 9.62165 12.6342 9.70751L13.14 9.99918L12.6333 10.2917C12.4897 10.3746 12.3848 10.5111 12.3418 10.6713C12.2989 10.8315 12.3213 11.0022 12.4042 11.1458C12.487 11.2895 12.6236 11.3944 12.7838 11.4373C12.944 11.4803 13.1147 11.4579 13.2583 11.375L13.765 11.0825V11.6667C13.765 11.8324 13.8308 11.9914 13.948 12.1086C14.0653 12.2258 14.2242 12.2917 14.39 12.2917C14.5557 12.2917 14.7147 12.2258 14.8319 12.1086C14.9491 11.9914 15.015 11.8324 15.015 11.6667V11.0833L15.5208 11.375C15.6645 11.4579 15.8352 11.4803 15.9954 11.4373C16.1556 11.3944 16.2921 11.2895 16.375 11.1458C16.4579 11.0022 16.4803 10.8315 16.4373 10.6713C16.3943 10.5111 16.2895 10.3746 16.1458 10.2917L15.64 10L16.1458 9.70834C16.2895 9.62546 16.3943 9.48891 16.4373 9.32872C16.4803 9.16853 16.4579 8.99784 16.375 8.85418C16.2921 8.71052 16.1556 8.60567 15.9954 8.56269C15.8352 8.51971 15.6645 8.54213 15.5208 8.62501L15.015 8.91668V8.33334Z" fill="#81858C"/>
</svg>
