<svg width="24" height="24" viewBox="0 0 24 24" fill="none" xmlns="http://www.w3.org/2000/svg">
<path d="M7.00021 11.0002H12.0002M7.00021 15.0002H15.0002M16.6646 6.08623C18.3827 6.18531 19.8779 7.41273 19.9995 9.00019C20.0766 10.0059 20.1394 11.2119 20.1394 12.4719C20.1394 13.7319 20.0766 14.9379 19.9995 15.9436C19.8779 17.5311 18.3827 18.9011 16.6646 19.0002C15.3817 19.0742 13.7649 19.1379 12.0002 19.1379C10.2355 19.1379 8.61868 19.0742 7.33581 19.0002C5.61773 18.9011 4.12143 17.5311 3.99977 15.9436C3.92268 14.9379 3.85989 13.7319 3.85989 12.4719C3.85989 11.2119 3.92268 10.0059 3.99977 9.00019C4.12143 7.41273 5.61773 6.18531 7.33581 6.08623M8.99954 7H14.9995C15.5518 7 15.9995 6.55229 15.9995 6V5C15.9995 4.44772 15.5518 4 14.9995 4H8.99954C8.44726 4 7.99954 4.44772 7.99954 5V6C7.99954 6.55229 8.44726 7 8.99954 7Z" stroke="#81838C" stroke-width="1.5" stroke-linecap="round"/>
</svg>
