<svg width="24" height="24" viewBox="0 0 24 24" fill="none" xmlns="http://www.w3.org/2000/svg">
<path d="M15.0951 5.90383C14.4936 5.29114 13.7766 4.8037 12.9856 4.46966C12.1947 4.13562 11.3454 3.9616 10.4867 3.95766C9.62813 3.95371 8.77725 4.11992 7.98324 4.44667C7.18922 4.77343 6.46782 5.25426 5.86068 5.86139C5.25355 6.46853 4.77272 7.18994 4.44596 7.98395C4.1192 8.77796 3.953 9.62885 3.95694 10.4875C3.96089 11.3461 4.13491 12.1954 4.46895 12.9864C4.80298 13.7773 5.29042 14.4943 5.90311 15.0958C7.12587 16.2963 8.7732 16.9654 10.4867 16.9575C12.2003 16.9496 13.8414 16.2655 15.0531 15.0538C16.2647 13.8421 16.9489 12.201 16.9568 10.4875C16.9647 8.77391 16.2956 7.12658 15.0951 5.90383ZM4.48911 4.48983C6.02193 2.95739 8.08227 2.0684 10.2488 2.00466C12.4153 1.94091 14.5244 2.70723 16.1446 4.1469C17.7649 5.58656 18.774 7.59082 18.9655 9.7498C19.1571 11.9088 18.5166 14.0594 17.1751 15.7618L22.5201 21.1068L21.1061 22.5208L15.7611 17.1758C14.0581 18.5124 11.9094 19.1488 9.75317 18.9554C7.59698 18.762 5.59582 17.7532 4.15789 16.1349C2.71996 14.5166 1.95361 12.4107 2.01516 10.2467C2.07671 8.08275 2.96152 6.02379 4.48911 4.48983Z" fill="white"/>
</svg>
