<svg width="18" height="20" viewBox="0 0 18 20" fill="none" xmlns="http://www.w3.org/2000/svg">
<path d="M8.49613 0.960429C8.80749 0.7788 9.19251 0.778801 9.50387 0.960429L16.5039 5.04376C16.8111 5.22297 17 5.55187 17 5.90754V14.0921C17 14.4478 16.8111 14.7767 16.5039 14.9559L9.50387 19.0392C9.19251 19.2209 8.80749 19.2209 8.49613 19.0392L1.49613 14.9559C1.18891 14.7767 1 14.4478 1 14.0921V5.90754C1 5.55187 1.18891 5.22297 1.49613 5.04376L8.49613 0.960429Z" fill="white"/>
<path d="M12.9996 9.99963C12.9996 12.2088 11.2087 13.9996 8.99958 13.9996C6.79044 13.9996 4.99958 12.2088 4.99958 9.99963C4.99958 7.79049 6.79044 5.99963 8.99958 5.99963C11.2087 5.99963 12.9996 7.79049 12.9996 9.99963Z" fill="white"/>
<path d="M8.49613 0.960429C8.80749 0.7788 9.19251 0.778801 9.50387 0.960429L16.5039 5.04376C16.8111 5.22297 17 5.55187 17 5.90754V14.0921C17 14.4478 16.8111 14.7767 16.5039 14.9559L9.50387 19.0392C9.19251 19.2209 8.80749 19.2209 8.49613 19.0392L1.49613 14.9559C1.18891 14.7767 1 14.4478 1 14.0921V5.90754C1 5.55187 1.18891 5.22297 1.49613 5.04376L8.49613 0.960429Z" stroke="#81838C" stroke-width="1.5"/>
<path d="M12.9996 9.99963C12.9996 12.2088 11.2087 13.9996 8.99958 13.9996C6.79044 13.9996 4.99958 12.2088 4.99958 9.99963C4.99958 7.79049 6.79044 5.99963 8.99958 5.99963C11.2087 5.99963 12.9996 7.79049 12.9996 9.99963Z" stroke="#81838C" stroke-width="1.5"/>
</svg>
