<svg width="24" height="24" viewBox="0 0 24 24" fill="none" xmlns="http://www.w3.org/2000/svg">
<path d="M16.6671 5V8.88889M7.33377 5V8.88889M18.6115 5.77778V6.94444M18.6115 6.94444V8.11111M18.6115 6.94444H19.7782M5.38932 5.77778V6.94444M5.38932 6.94444V8.11111M5.38932 6.94444H4.22266M16.6671 6.94444H7.33377M9.6671 8.88889V15.1111M14.3338 8.88889V15.1111M15.1115 17.4444V19M8.88932 17.4444V19M8.32699 17.4444H15.6747C16.6368 17.4444 17.1182 17.4444 17.3173 17.2088C17.7684 16.6752 16.9035 15.969 16.5878 15.6136C16.2323 15.2122 15.9718 15.1111 15.446 15.1111H8.55488C8.0291 15.1111 7.76932 15.2122 7.4131 15.6136C7.09732 15.969 6.23243 16.6752 6.68355 17.2088C6.88266 17.4444 7.36488 17.4444 8.32699 17.4444Z" stroke="#757575" stroke-linecap="round" stroke-linejoin="round"/>
</svg>
