<svg width="24" height="24" viewBox="0 0 24 24" fill="none" xmlns="http://www.w3.org/2000/svg">
<path d="M12 8.5V7.1C12 6.91435 12.0737 6.7363 12.205 6.60503C12.3363 6.47375 12.5143 6.4 12.7 6.4C12.8857 6.4 13.0637 6.32625 13.195 6.19497C13.3262 6.0637 13.4 5.88565 13.4 5.7V5M10.6 14.8L9.55 13.75M9.55 13.75L8.5 12.7M9.55 13.75L8.5 14.8M9.55 13.75L10.6 12.7M15.5 14.45V13.05M5 13.75C5 11.4491 5 10.2983 5.6356 9.5234C5.75187 9.38175 5.88175 9.25186 6.0234 9.1356C6.799 8.5 7.9484 8.5 10.25 8.5H13.75C16.0516 8.5 17.2017 8.5 17.9766 9.1356C18.1182 9.25186 18.2481 9.38175 18.3644 9.5234C19 10.299 19 11.4484 19 13.75C19 16.0516 19 17.2017 18.3644 17.9766C18.2481 18.1182 18.1182 18.2481 17.9766 18.3644C17.201 19 16.0516 19 13.75 19H10.25C7.9491 19 6.7983 19 6.0234 18.3644C5.88175 18.2481 5.75187 18.1182 5.6356 17.9766C5 17.201 5 16.0516 5 13.75Z" stroke="#757575" stroke-linecap="round" stroke-linejoin="round"/>
</svg>
