<svg width="24" height="24" viewBox="0 0 24 24" fill="none" xmlns="http://www.w3.org/2000/svg">
<path d="M6 12C6 11.2121 6.15519 10.4319 6.45672 9.7039C6.75825 8.97595 7.20021 8.31451 7.75736 7.75736C8.31451 7.20021 8.97595 6.75825 9.7039 6.45672C10.4319 6.15519 11.2121 6 12 6C12.7879 6 13.5681 6.15519 14.2961 6.45672C15.0241 6.75825 15.6855 7.20021 16.2426 7.75736C16.7998 8.31451 17.2417 8.97595 17.5433 9.7039C17.8448 10.4319 18 11.2121 18 12C18 13.5913 17.3679 15.1174 16.2426 16.2426C15.1174 17.3679 13.5913 18 12 18C10.4087 18 8.88258 17.3679 7.75736 16.2426C6.63214 15.1174 6 13.5913 6 12ZM12 5C10.1435 5 8.36301 5.7375 7.05025 7.05025C5.7375 8.36301 5 10.1435 5 12C5 13.8565 5.7375 15.637 7.05025 16.9497C8.36301 18.2625 10.1435 19 12 19C13.8565 19 15.637 18.2625 16.9497 16.9497C18.2625 15.637 19 13.8565 19 12C19 10.1435 18.2625 8.36301 16.9497 7.05025C15.637 5.7375 13.8565 5 12 5ZM9.13 10.478C8.682 9.612 9.612 8.682 10.479 9.13L12.387 10.12C13.0268 10.451 13.5489 10.9713 13.882 11.61L14.882 13.532C15.333 14.399 14.4 15.332 13.533 14.881L11.612 13.881C10.9722 13.5484 10.4508 13.0262 10.119 12.386L9.13 10.478ZM11.927 11.008L10.019 10.018L11.007 11.927C11.2438 12.3843 11.6161 12.7573 12.073 12.995L13.995 13.995L12.995 12.073C12.7573 11.6161 12.3843 11.2448 11.927 11.008Z" fill="#757575"/>
</svg>
