<svg width="24" height="24" viewBox="0 0 24 24" fill="none" xmlns="http://www.w3.org/2000/svg">
<path d="M16 6L12 12.5M12 12.5C13.2201 12.744 13.5 13.5 13.6251 14.2414C13.7065 14.7239 13.7553 15.248 13.835 15.742M12 12.5C10.3074 12.1615 9.50871 12.8128 9.02966 13.6848M9.02966 13.6848C8.80115 14.1008 8.64537 14.567 8.5 15C8.25389 15.7331 8 18 8 19H11M9.02966 13.6848L13.835 15.742M13.835 15.742C13.8778 16.007 13.9295 16.2634 14 16.5C14.3749 17.7586 15 18.5 15.5 19H13M11 19C10 18.5 10 17.5 10 16.5M11 19H13M13 19C12 18.5 12 17.4 12 17" stroke="#757575" stroke-linecap="round" stroke-linejoin="round"/>
</svg>
