<svg width="24" height="24" viewBox="0 0 24 24" fill="none" xmlns="http://www.w3.org/2000/svg">
<path d="M7.99922 12H17.0992C17.2849 12 17.4629 12.0737 17.5942 12.205C17.7255 12.3363 17.7992 12.5143 17.7992 12.7C17.7992 13.6283 17.4305 14.5185 16.7741 15.1749C16.1177 15.8313 15.2275 16.2 14.2992 16.2H13.8806C13.8181 16.2 13.7568 16.2167 13.703 16.2484C13.6491 16.2801 13.6048 16.3257 13.5745 16.3803C13.5442 16.435 13.5291 16.4967 13.5307 16.5592C13.5324 16.6216 13.5507 16.6825 13.5838 16.7355L14.6646 18.4645C14.6977 18.5175 14.7161 18.5784 14.7177 18.6408C14.7193 18.7033 14.7042 18.765 14.6739 18.8197C14.6437 18.8743 14.5993 18.9199 14.5455 18.9516C14.4916 18.9833 14.4303 19 14.3678 19H6.88062C6.81814 19 6.7568 18.9833 6.70297 18.9516C6.64914 18.9199 6.60478 18.8743 6.57449 18.8197C6.54421 18.765 6.5291 18.7033 6.53074 18.6408C6.53238 18.5784 6.55071 18.5175 6.58382 18.4645L7.99922 16.2M8.69922 16.2C7.77096 16.2 6.88072 15.8313 6.22435 15.1749C5.56797 14.5185 5.19922 13.6283 5.19922 12.7V6.4C5.19922 6.0287 5.34672 5.6726 5.60927 5.41005C5.87182 5.1475 6.22792 5 6.59922 5H12.1992C12.5705 5 12.9266 5.1475 13.1892 5.41005C13.4517 5.6726 13.5992 6.0287 13.5992 6.4V12" stroke="#757575" stroke-linecap="round" stroke-linejoin="round"/>
</svg>
