<svg width="24" height="24" viewBox="0 0 24 24" fill="none" xmlns="http://www.w3.org/2000/svg">
<path d="M12 5.375C12.8224 5.3746 13.5136 5.66008 14.0938 6.24023C14.6015 6.74796 14.8833 7.3404 14.9453 8.03125L14.958 8.33301V8.70801H16.667C16.9332 8.70808 17.1522 8.79868 17.3438 8.99023C17.5353 9.18181 17.6253 9.40052 17.625 9.66602V17.667C17.6249 17.9333 17.5348 18.1523 17.3438 18.3438C17.1529 18.535 16.9337 18.6253 16.667 18.625H7.33301C7.06671 18.6249 6.84817 18.5346 6.65723 18.3438C6.49014 18.1767 6.39918 17.988 6.37891 17.7646L6.375 17.666V9.66699C6.375 9.40073 6.46586 9.18229 6.65723 8.99121C6.82508 8.82364 7.01346 8.73304 7.23633 8.71289L7.33398 8.70801H9.04199V8.33301C9.04207 7.51007 9.32772 6.81935 9.90723 6.24023C10.4869 5.66111 11.1775 5.37544 12 5.375ZM6.95801 18.042H17.042V9.29199H6.95801V18.042ZM9.6543 10.708C9.72768 11.2057 9.94866 11.6459 10.3184 12.0156C10.7783 12.4754 11.3463 12.708 12 12.708C12.6537 12.708 13.2217 12.4754 13.6816 12.0156C14.0513 11.6459 14.2723 11.2057 14.3457 10.708H14.9355C14.8605 11.368 14.5829 11.9365 14.0938 12.4258C13.5141 13.0054 12.8231 13.292 12 13.292C11.1775 13.2924 10.4869 13.0064 9.90723 12.4268C9.41781 11.9373 9.13976 11.3686 9.06445 10.708H9.6543ZM12 5.95801C11.3462 5.95801 10.7783 6.19146 10.3184 6.65137C9.85842 7.1113 9.62508 7.67927 9.625 8.33301V8.70801H14.375V8.33301C14.3749 7.67927 14.1416 7.1113 13.6816 6.65137C13.2217 6.19146 12.6538 5.95801 12 5.95801Z" fill="#214999" stroke="#757575" stroke-width="0.75"/>
</svg>
