<svg width="24" height="24" viewBox="0 0 24 24" fill="none" xmlns="http://www.w3.org/2000/svg">
<path d="M10.3937 5.00082H15.8772C15.9432 5.00059 16.0083 5.01684 16.0666 5.04812C16.1248 5.07939 16.1743 5.1247 16.2106 5.17993C16.2469 5.23515 16.2688 5.29856 16.2744 5.36441C16.28 5.43026 16.2691 5.49647 16.2427 5.55704L14.0973 10.5645H17.7138C17.7441 10.5648 17.7737 10.5738 17.799 10.5903C17.8244 10.6069 17.8445 10.6303 17.857 10.6579C17.8695 10.6855 17.8738 10.7161 17.8695 10.7461C17.8652 10.7761 17.8524 10.8042 17.8326 10.8271L10.4572 18.9328C10.4371 18.9629 10.4069 18.9848 10.372 18.9945C10.3371 19.0042 10.2999 19.001 10.2671 18.9857C10.2344 18.9703 10.2082 18.9437 10.1934 18.9106C10.1785 18.8776 10.176 18.8404 10.1863 18.8057L10.9181 12.9483H7.53235C7.46659 12.9492 7.40164 12.9338 7.3433 12.9035C7.28496 12.8731 7.23504 12.8288 7.19801 12.7745C7.16098 12.7201 7.13799 12.6574 7.1311 12.592C7.12421 12.5266 7.13362 12.4605 7.15851 12.3997L10.0191 5.24676C10.0494 5.1727 10.1014 5.10951 10.1682 5.06549C10.2351 5.02147 10.3136 4.99942 10.3937 5.00082Z" stroke="#757575" stroke-linecap="round" stroke-linejoin="round"/>
</svg>
