<svg width="24" height="24" viewBox="0 0 24 24" fill="none" xmlns="http://www.w3.org/2000/svg">
<path d="M6.37501 19C6.25076 19 6.14692 18.958 6.06351 18.874C5.98009 18.79 5.93809 18.6859 5.93751 18.5616C5.93692 18.4374 5.97892 18.3335 6.06351 18.2501C6.14809 18.1667 6.25192 18.125 6.37501 18.125H7.68751V5.707C7.68751 5.50692 7.75459 5.33892 7.88876 5.203C8.02292 5.06709 8.18917 4.99942 8.38751 5H13.9875C14.1858 5 14.3521 5.06767 14.4863 5.203C14.6204 5.33834 14.6875 5.50634 14.6875 5.707V5.875H16.6055C16.8062 5.875 16.9742 5.94267 17.1095 6.078C17.2448 6.21334 17.3125 6.38134 17.3125 6.582V18.125H18.625C18.7493 18.125 18.8531 18.167 18.9365 18.251C19.0199 18.335 19.0619 18.4391 19.0625 18.5634C19.0631 18.6876 19.0211 18.7915 18.9365 18.8749C18.8519 18.9583 18.7481 19 18.625 19H17.1524C16.9441 19 16.7729 18.9323 16.6388 18.797C16.5046 18.6617 16.4375 18.4937 16.4375 18.293V6.75H14.6875V18.293C14.6875 18.4937 14.6198 18.6617 14.4845 18.797C14.3492 18.9323 14.1812 19 13.9805 19H6.37501ZM12.7363 12C12.7363 11.8192 12.6692 11.6617 12.535 11.5275C12.4008 11.3933 12.2433 11.3263 12.0625 11.3263C11.8817 11.3263 11.7242 11.3933 11.59 11.5275C11.4558 11.6617 11.3888 11.8192 11.3888 12C11.3888 12.1808 11.4558 12.3383 11.59 12.4725C11.7242 12.6067 11.8817 12.6738 12.0625 12.6738C12.2433 12.6738 12.4008 12.6067 12.535 12.4725C12.6692 12.3383 12.7363 12.1808 12.7363 12ZM8.56251 18.125H13.8125V5.875H8.56251V18.125Z" fill="#757575"/>
</svg>
