<svg width="24" height="24" viewBox="0 0 24 24" fill="none" xmlns="http://www.w3.org/2000/svg">
<path d="M16.25 13.25C16.4489 13.25 16.6397 13.171 16.7803 13.0303C16.921 12.8897 17 12.6989 17 12.5C17 12.3011 16.921 12.1103 16.7803 11.9697C16.6397 11.829 16.4489 11.75 16.25 11.75C16.0511 11.75 15.8603 11.829 15.7197 11.9697C15.579 12.1103 15.5 12.3011 15.5 12.5C15.5 12.6989 15.579 12.8897 15.7197 13.0303C15.8603 13.171 16.0511 13.25 16.25 13.25ZM16.25 16.25C16.4489 16.25 16.6397 16.171 16.7803 16.0303C16.921 15.8897 17 15.6989 17 15.5C17 15.3011 16.921 15.1103 16.7803 14.9697C16.6397 14.829 16.4489 14.75 16.25 14.75C16.0511 14.75 15.8603 14.829 15.7197 14.9697C15.579 15.1103 15.5 15.3011 15.5 15.5C15.5 15.6989 15.579 15.8897 15.7197 16.0303C15.8603 16.171 16.0511 16.25 16.25 16.25ZM13.25 12.5C13.25 12.6989 13.171 12.8897 13.0303 13.0303C12.8897 13.171 12.6989 13.25 12.5 13.25C12.3011 13.25 12.1103 13.171 11.9697 13.0303C11.829 12.8897 11.75 12.6989 11.75 12.5C11.75 12.3011 11.829 12.1103 11.9697 11.9697C12.1103 11.829 12.3011 11.75 12.5 11.75C12.6989 11.75 12.8897 11.829 13.0303 11.9697C13.171 12.1103 13.25 12.3011 13.25 12.5ZM13.25 15.5C13.25 15.6989 13.171 15.8897 13.0303 16.0303C12.8897 16.171 12.6989 16.25 12.5 16.25C12.3011 16.25 12.1103 16.171 11.9697 16.0303C11.829 15.8897 11.75 15.6989 11.75 15.5C11.75 15.3011 11.829 15.1103 11.9697 14.9697C12.1103 14.829 12.3011 14.75 12.5 14.75C12.6989 14.75 12.8897 14.829 13.0303 14.9697C13.171 15.1103 13.25 15.3011 13.25 15.5ZM8.75 13.25C8.94891 13.25 9.13968 13.171 9.28033 13.0303C9.42098 12.8897 9.5 12.6989 9.5 12.5C9.5 12.3011 9.42098 12.1103 9.28033 11.9697C9.13968 11.829 8.94891 11.75 8.75 11.75C8.55109 11.75 8.36032 11.829 8.21967 11.9697C8.07902 12.1103 8 12.3011 8 12.5C8 12.6989 8.07902 12.8897 8.21967 13.0303C8.36032 13.171 8.55109 13.25 8.75 13.25ZM8.75 16.25C8.94891 16.25 9.13968 16.171 9.28033 16.0303C9.42098 15.8897 9.5 15.6989 9.5 15.5C9.5 15.3011 9.42098 15.1103 9.28033 14.9697C9.13968 14.829 8.94891 14.75 8.75 14.75C8.55109 14.75 8.36032 14.829 8.21967 14.9697C8.07902 15.1103 8 15.3011 8 15.5C8 15.6989 8.07902 15.8897 8.21967 16.0303C8.36032 16.171 8.55109 16.25 8.75 16.25Z" fill="#757575"/>
<path d="M15.9883 5.17383C15.9944 5.17385 16.0005 5.17632 16.0049 5.18066C16.0092 5.18502 16.0117 5.19115 16.0117 5.19727V6.2373L16.4727 6.27246C16.646 6.2858 16.8095 6.30315 16.9619 6.32324V6.32227C17.7233 6.42509 18.2619 6.63094 18.6758 7.04395C19.0894 7.45809 19.2946 7.99743 19.3975 8.75977C19.4987 9.51434 19.5 10.4906 19.5 11.7861V13.2598C19.5 14.3936 19.4997 15.2834 19.4316 15.9932L19.3975 16.2861C19.2947 17.0483 19.0891 17.5869 18.6758 18.001C18.3134 18.3629 17.8558 18.5658 17.2363 18.6797L16.96 18.7236C16.2055 18.8248 15.2296 18.8252 13.9346 18.8252H11.0654C9.77029 18.8252 8.79373 18.8248 8.04004 18.7236C7.2775 18.6208 6.73746 18.4146 6.32324 18.001C5.96186 17.6387 5.75927 17.1807 5.64551 16.5615L5.60254 16.2861C5.50127 15.5315 5.5 14.5554 5.5 13.2598V11.7861C5.5 11.1621 5.49969 10.609 5.51172 10.1143C5.52448 9.58928 5.55114 9.1424 5.60254 8.75977C5.70532 7.99767 5.90991 7.45804 6.32324 7.04395L6.32422 7.04492C6.73797 6.63177 7.27595 6.42517 8.03711 6.32227L8.03809 6.32324C8.19114 6.30313 8.35442 6.2858 8.52734 6.27246L8.98828 6.2373V5.19727C8.98828 5.19115 8.99083 5.18502 8.99512 5.18066C8.99923 5.17655 9.00495 5.17409 9.01074 5.17383C9.01686 5.17383 9.02299 5.17637 9.02734 5.18066C9.03171 5.18503 9.03418 5.19109 9.03418 5.19727V6.23926L9.54395 6.22949C9.99995 6.22054 10.5036 6.2207 11.0645 6.2207H13.9346C14.4959 6.2207 14.9992 6.22054 15.4551 6.22949L15.9648 6.23926V5.19727C15.9648 5.19111 15.9673 5.18503 15.9717 5.18066C15.976 5.1763 15.9821 5.17383 15.9883 5.17383Z" stroke="#757575"/>
</svg>
