<svg width="24" height="24" viewBox="0 0 24 24" fill="none" xmlns="http://www.w3.org/2000/svg">
<path d="M11.5159 9.49756C11.7438 10.4312 12.8181 12.3557 15.2856 12.5901M3.36198 17.2075V7.3243L4.99485 8.63164C5.8191 9.29052 6.84388 9.64991 7.89861 9.64991H11.5003L13.1827 6.2852C13.3763 5.89944 13.6732 5.57502 14.0404 5.3481C14.4076 5.12118 14.8305 5.00067 15.2622 5H16.1502V7.90636L19.6386 9.06916V10.232C19.6386 11.5159 18.5969 12.5563 17.313 12.5563H14.99V17.2075C14.9964 17.4405 14.956 17.6725 14.8712 17.8897C14.7864 18.1069 14.6589 18.3049 14.4963 18.472C14.3337 18.6391 14.1393 18.7719 13.9245 18.8626C13.7097 18.9533 13.479 19 13.2458 19C13.0127 19 12.7819 18.9533 12.5671 18.8626C12.3523 18.7719 12.1579 18.6391 11.9953 18.472C11.8327 18.3049 11.7052 18.1069 11.6204 17.8897C11.5356 17.6725 11.4952 17.4405 11.5016 17.2075V16.6254C11.5016 15.9835 10.9808 15.4639 10.3388 15.4639H8.01189C7.36994 15.4639 6.85039 15.9848 6.85039 16.6254V17.2075C6.85676 17.4405 6.81635 17.6725 6.73156 17.8897C6.64677 18.1069 6.51932 18.3049 6.35672 18.472C6.19413 18.6391 5.99969 18.7719 5.78491 18.8626C5.57012 18.9533 5.33933 19 5.10618 19C4.87304 19 4.64225 18.9533 4.42746 18.8626C4.21268 18.7719 4.01824 18.6391 3.85565 18.472C3.69305 18.3049 3.5656 18.1069 3.48081 17.8897C3.39602 17.6725 3.35561 17.4405 3.36198 17.2075Z" stroke="#2E2E2F" stroke-linecap="round" stroke-linejoin="round"/>
</svg>
