<svg width="24" height="24" viewBox="0 0 24 24" fill="none" xmlns="http://www.w3.org/2000/svg">
<path d="M12 15.6404V19M12 15.6404C13.411 15.6404 14.7641 15.08 15.7618 14.0824C16.7595 13.0848 17.32 11.7318 17.32 10.321M12 15.6404C10.589 15.6404 9.23589 15.08 8.23819 14.0824C7.2405 13.0848 6.68 11.7318 6.68 10.321M9.46432 19H14.5357M5 19H6.68M17.32 19H19M17.32 10.321C17.32 8.91026 16.7595 7.55726 15.7618 6.55969C14.7641 5.56212 13.411 5.00169 12 5.00169C10.589 5.00169 9.23589 5.56212 8.23819 6.55969C7.2405 7.55726 6.68 8.91026 6.68 10.321M17.32 10.321H6.68M13.2902 15.4836C13.7718 13.8643 14.053 12.1151 14.1146 10.321C14.0589 8.57228 13.7819 6.83762 13.2902 5.15847C12.4431 4.94718 11.5569 4.94718 10.7098 5.15847C10.2181 6.83762 9.94109 8.57228 9.88544 10.321C9.94704 12.1151 10.2293 13.8643 10.7098 15.4836C11.5569 15.6949 12.4431 15.6949 13.2902 15.4836Z" stroke="#757575" stroke-width="1.5" stroke-linecap="round" stroke-linejoin="round"/>
</svg>
