<svg width="24" height="24" viewBox="0 0 24 24" fill="none" xmlns="http://www.w3.org/2000/svg">
<path d="M17.6898 11.2474C17.6572 11.239 17.6244 11.2316 17.5913 11.225C17.2518 11.1581 16.8998 11.1926 16.5801 11.3239L16.4628 11.377C16.1936 11.5114 15.9634 11.7131 15.7951 11.9627L15.7273 12.0723C15.5789 12.3324 15.5 12.6266 15.5 12.9269V14.6621H8.49999V12.9269C8.49999 12.5837 8.3972 12.2481 8.2049 11.9627C8.01266 11.6775 7.73951 11.4552 7.41991 11.3239C7.10019 11.1926 6.74817 11.1581 6.40875 11.225L6.28286 11.255C6.27963 11.2559 6.2764 11.2568 6.27317 11.2577M17.6898 11.2474C17.991 11.325 18.2665 11.4811 18.4873 11.7001C18.7321 11.9427 18.8989 12.252 18.9664 12.5886C19.0339 12.9251 18.9992 13.2741 18.8667 13.5911L18.8132 13.7075C18.6776 13.9744 18.4742 14.2026 18.2224 14.3695L18.1119 14.4367C17.8496 14.5839 17.5529 14.6621 17.25 14.6621V19H6.74998V14.6621C6.44713 14.6621 6.15037 14.5839 5.88808 14.4367L5.77757 14.3695C5.52578 14.2026 5.32239 13.9744 5.18682 13.7075L5.13328 13.5911C5.01738 13.3137 4.97628 13.0117 5.01308 12.7151L5.03358 12.5886C5.09267 12.294 5.22757 12.0202 5.42437 11.7938L5.51267 11.7001C5.72447 11.4901 5.98646 11.3382 6.27317 11.2577M17.6898 11.2474V10.3783C17.5725 8.91293 16.9201 7.54625 15.8628 6.54983C14.8713 5.61565 13.5913 5.07077 12.2503 5.00635L11.9812 5C10.5432 5.00004 9.15774 5.55342 8.10023 6.54983L7.90696 6.74046C6.96337 7.71705 6.38319 9.0043 6.27317 10.3783V11.2577M10.775 7.8V7.8C11.6563 7.35934 12.6937 7.35934 13.575 7.8V7.8" stroke="#757575" stroke-linecap="round" stroke-linejoin="round"/>
</svg>
