<svg width="24" height="24" viewBox="0 0 24 24" fill="none" xmlns="http://www.w3.org/2000/svg">
<path d="M12.001 5.375C12.0437 5.37481 12.0947 5.3853 12.1572 5.41699C12.2139 5.44569 12.259 5.48236 12.2959 5.5293L15.9834 10.7969C16.0353 10.8711 16.0518 10.9292 16.0547 10.9746C16.0574 11.0201 16.0484 11.0803 16.0059 11.1602C15.9624 11.2416 15.9164 11.2851 15.876 11.3096C15.8359 11.3337 15.779 11.3526 15.6914 11.3525H14.9346L15.3242 11.9355L17.4873 15.1719L17.4922 15.1787C17.5441 15.2528 17.5594 15.3085 17.5615 15.3496C17.5635 15.3905 17.5544 15.447 17.5107 15.5234C17.4315 15.6621 17.3365 15.7158 17.1816 15.7158H13.043V18.2725C13.043 18.3842 13.009 18.4605 12.9434 18.5264C12.8785 18.5915 12.8033 18.6253 12.6914 18.625H11.3086C11.1972 18.625 11.1219 18.5909 11.0566 18.5254C10.9907 18.4591 10.9563 18.3828 10.9561 18.2715V15.7158H6.81738C6.66274 15.7157 6.56847 15.6618 6.48926 15.5234C6.44556 15.447 6.4355 15.3905 6.4375 15.3496C6.43855 15.329 6.44263 15.3047 6.45312 15.2764L6.50684 15.1787L6.51172 15.1719L8.6748 11.9355L9.06543 11.3525H8.30859C8.22071 11.3525 8.16348 11.333 8.12305 11.3086C8.08231 11.2839 8.03677 11.2405 7.99316 11.1592C7.95066 11.0798 7.94162 11.0207 7.94434 10.9756C7.94571 10.953 7.94992 10.927 7.96094 10.8975L8.01562 10.7969L11.7021 5.5293C11.739 5.48145 11.7844 5.44556 11.8398 5.41797C11.9033 5.38642 11.9559 5.37524 12.001 5.375ZM11.6924 6.78516L9.40137 10.0576L8.98828 10.6475H10.3896L7.86914 14.4287L7.48047 15.0117H16.5186L16.1299 14.4287L13.6094 10.6475H15.0107L14.5977 10.0576L12.3066 6.78516L12 6.3457L11.6924 6.78516Z" fill="#757575" stroke="#757575" stroke-width="0.75"/>
</svg>
