<svg width="24" height="24" viewBox="0 0 24 24" fill="none" xmlns="http://www.w3.org/2000/svg">
<path d="M11.7795 19.2999C11.6208 19.3022 11.461 19.3034 11.3 19.3034C9.7397 19.3034 8.2655 19.2054 7.1609 18.9128C6.6114 18.7672 6.0941 18.5586 5.7021 18.2436C5.287 17.9104 5 17.4449 5 16.8534C5 16.3025 5.2506 15.7873 5.5908 15.3562C5.9366 14.9187 6.4147 14.5162 6.9754 14.1732C8.0975 13.49 10.084 13.451 11.0788 13.451C12.0736 13.451 11.693 13.451 12 13.451M6.97568 8.5C6.97568 7.57177 7.34443 6.68149 8.00081 6.02513C8.65719 5.36877 9.54743 5 10.4757 5C11.4039 5 12.2942 5.36877 12.9506 6.02513C13.6069 6.68149 13.9757 7.57177 13.9757 8.5C13.9757 9.42823 13.6069 10.3185 12.9506 10.9749C12.2942 11.6312 11.4039 12 10.4757 12C9.54743 12 8.65719 11.6312 8.00081 10.9749C7.34443 10.3185 6.97568 9.42823 6.97568 8.5ZM15.5969 13.4357C15.4533 13.3879 15.2981 13.3879 15.1545 13.4357L13.0545 14.1357C12.915 14.1821 12.7938 14.2713 12.7078 14.3905C12.6219 14.5098 12.5756 14.653 12.5757 14.8V15.9697C12.5756 16.7184 12.8516 17.4409 13.3509 17.9988C13.8502 18.5568 14.5377 18.911 15.2819 18.9937C15.3449 19.0007 15.4074 19.0007 15.4695 18.9937C16.2136 18.911 16.9012 18.5568 17.4005 17.9988C17.8998 17.4409 18.1758 16.7184 18.1757 15.9697V14.8C18.1757 14.653 18.1295 14.5098 18.0436 14.3905C17.9576 14.2713 17.8363 14.1821 17.6969 14.1357L15.5969 13.4357Z" stroke="#757575" stroke-linecap="round"/>
</svg>
