<svg width="24" height="24" viewBox="0 0 24 24" fill="none" xmlns="http://www.w3.org/2000/svg">
<path d="M17.4194 10.1275L18 5H5L5.63405 10.6L5.81088 12.1618M17.4194 10.1275L16.5556 17.7575C16.5194 18.1192 16.3659 18.4167 16.0948 18.65C15.8237 18.8833 15.5018 19 15.1292 19H7.87083C7.49769 19 7.17581 18.8833 6.90522 18.65C6.63463 18.4167 6.48104 18.1192 6.44444 17.7575L5.81088 12.1618M17.4194 10.1275L17 10.5L15.4 10.6C14.9426 10.6 14.5273 10.568 14.1542 10.5041C13.781 10.4402 13.2694 10.3146 12.6194 10.1275C12.3426 10.0458 12.0537 9.9875 11.7528 9.9525C11.4519 9.9175 11.1509 9.9 10.85 9.9C10.188 9.9 9.53796 9.99053 8.9 10.1716C8.26204 10.3527 6.28431 11.1979 5.74264 11.5591L5.81088 12.1618" stroke="#757575" stroke-linecap="round" stroke-linejoin="round"/>
</svg>
