<svg width="16" height="16" viewBox="0 0 16 16" fill="none" xmlns="http://www.w3.org/2000/svg">
<mask id="mask0_2622_1768" style="mask-type:alpha" maskUnits="userSpaceOnUse" x="0" y="0" width="16" height="16">
<rect width="16" height="16" fill="#D9D9D9"/>
</mask>
<g mask="url(#mask0_2622_1768)">
<path d="M5.73236 13.4665L2.53369 10.2512V5.73187L5.73236 2.5332H10.2684L13.467 5.73187V10.2679L10.2517 13.4665H5.73236ZM6.18369 10.4884L8.00036 8.68837L9.81703 10.4884L10.4889 9.81654L8.68886 7.99987L10.4889 6.1832L9.81703 5.51137L8.00036 7.31137L6.18369 5.51137L5.51186 6.1832L7.31186 7.99987L5.51186 9.81654L6.18369 10.4884ZM6.11703 12.4999H9.88369L12.5004 9.8832V6.11654L9.86702 3.49987H6.11703L3.50036 6.11654V9.8832L6.11703 12.4999Z" fill="#E66A5C"/>
</g>
</svg>
