<svg width="18" height="18" viewBox="0 0 18 18" fill="none" xmlns="http://www.w3.org/2000/svg">
<path d="M8.99958 13.1782V17.0353M8.99958 13.1782C10.6193 13.1782 12.1727 12.5347 13.318 11.3894C14.4633 10.2441 15.1067 8.69073 15.1067 7.07101M8.99958 13.1782C7.37987 13.1782 5.82649 12.5347 4.68118 11.3894C3.53587 10.2441 2.89244 8.69073 2.89244 7.07101M6.08872 17.0353H11.9104M0.963867 17.0353H2.89244M15.1067 17.0353H17.0353M15.1067 7.07101C15.1067 5.45129 14.4633 3.89792 13.318 2.75261C12.1727 1.6073 10.6193 0.963867 8.99958 0.963867C7.37987 0.963867 5.82649 1.6073 4.68118 2.75261C3.53587 3.89792 2.89244 5.45129 2.89244 7.07101M15.1067 7.07101H2.89244" stroke="#214999" stroke-width="1.5" stroke-linecap="round" stroke-linejoin="round"/>
<path d="M10.4808 12.9981C11.0337 11.139 11.3564 9.13071 11.4271 7.07099C11.3632 5.06325 11.0453 3.07168 10.4808 1.14385C9.50831 0.901269 8.49108 0.901269 7.51855 1.14385C6.95411 3.07168 6.63615 5.06325 6.57227 7.07099C6.64298 9.13071 6.96698 11.139 7.51855 12.9981C8.49108 13.2407 9.50831 13.2407 10.4808 12.9981Z" stroke="#214999" stroke-width="1.5" stroke-linecap="round" stroke-linejoin="round"/>
</svg>
