<svg width="25" height="24" viewBox="0 0 25 24" fill="none" xmlns="http://www.w3.org/2000/svg">
<path d="M6.77778 18.2224L5 20.0002M17.4444 18.2224L19.2222 20.0002M9.44444 14.6668H9.45244M14.7698 14.6668H14.7778M5.88889 9.3335C9.44444 12.8891 15.2222 12.8891 18.3333 9.3335" stroke="#B8BABF" stroke-width="1.5" stroke-linecap="round" stroke-linejoin="round"/>
<path d="M6.13147 8.35022C6.86125 4.63644 7.87103 4 11.6266 4H12.5955C16.351 4 17.3599 4.63644 18.0906 8.35022L18.5821 10.8533C19.2532 14.2667 19.5884 15.9733 18.6106 17.0978C17.6328 18.2222 15.7928 18.2222 12.111 18.2222C8.43014 18.2222 6.58925 18.2222 5.61147 17.0978C4.63369 15.9733 4.9688 14.2667 5.63991 10.8533L6.13147 8.35022Z" stroke="#B8BABF" stroke-width="1.5" stroke-linecap="round" stroke-linejoin="round"/>
</svg>
