<svg width="18" height="18" viewBox="0 0 18 18" fill="none" xmlns="http://www.w3.org/2000/svg">
<path d="M17 16V6.50833C17 5.40667 17 4.855 16.7248 4.42833C16.4496 4.00167 15.9624 3.79667 14.9888 3.38667L10.1888 1.37C9.6016 1.12333 9.3088 1 9 1C8.6912 1 8.3984 1.12333 7.8112 1.37L3.0112 3.38667C2.0376 3.79667 1.5504 4.00167 1.2752 4.42833C1 4.855 1 5.40667 1 6.50833V16M12.2 14.3333V16M5.8 14.3333V16" stroke="#214999" stroke-width="1.5" stroke-linecap="round" stroke-linejoin="round"/>
<path d="M5.25 9.86111L5.4525 9.10667C5.755 7.975 5.90667 7.40878 6.35917 7.07978C6.81083 6.75 7.43583 6.75 8.68583 6.75H9.31417C10.5642 6.75 11.1892 6.75 11.6408 7.07978C12.0933 7.40878 12.245 7.97422 12.5475 9.10667L12.75 9.86111M6.08333 11.7978V11.8056M11.9167 11.7978V11.8056M13.1667 9.86111H4.83333C4.61232 9.86111 4.40036 9.94306 4.24408 10.0889C4.0878 10.2348 4 10.4326 4 10.6389V12.9722C4 13.1785 4.0878 13.3763 4.24408 13.5222C4.40036 13.6681 4.61232 13.75 4.83333 13.75H13.1667C13.3877 13.75 13.5996 13.6681 13.7559 13.5222C13.9122 13.3763 14 13.1785 14 12.9722V10.6389C14 10.4326 13.9122 10.2348 13.7559 10.0889C13.5996 9.94306 13.3877 9.86111 13.1667 9.86111Z" stroke="#214999" stroke-width="1.5" stroke-linecap="round" stroke-linejoin="round"/>
</svg>
