<svg width="18" height="18" viewBox="0 0 18 18" fill="none" xmlns="http://www.w3.org/2000/svg">
<path d="M6.91332 2.06233H12.3478C12.4133 2.0621 12.4778 2.07822 12.5355 2.10921C12.5932 2.14021 12.6423 2.18511 12.6783 2.23984C12.7142 2.29458 12.736 2.35742 12.7415 2.42268C12.7471 2.48794 12.7363 2.55356 12.7101 2.61358L10.5838 7.57633H14.1681C14.1981 7.57664 14.2274 7.58552 14.2525 7.60192C14.2777 7.61831 14.2976 7.64156 14.31 7.6689C14.3223 7.69625 14.3266 7.72656 14.3224 7.75626C14.3181 7.78597 14.3054 7.81384 14.2858 7.83658L6.97632 15.8698C6.95637 15.8997 6.9264 15.9213 6.89183 15.9309C6.85727 15.9406 6.8204 15.9375 6.78792 15.9222C6.75544 15.907 6.7295 15.8806 6.71481 15.8479C6.70011 15.8151 6.69763 15.7782 6.70782 15.7438L7.43307 9.93883H4.07757C4.0124 9.93971 3.94803 9.92444 3.89021 9.89437C3.83239 9.8643 3.78292 9.82037 3.74622 9.76651C3.70952 9.71265 3.68674 9.65054 3.67991 9.58572C3.67308 9.52091 3.68241 9.45541 3.70707 9.39508L6.54207 2.30608C6.57213 2.23268 6.62365 2.17006 6.68989 2.12643C6.75614 2.0828 6.83401 2.06095 6.91332 2.06233Z" stroke="#214999" stroke-width="1.5" stroke-linecap="round" stroke-linejoin="round"/>
</svg>
