<svg width="18" height="18" viewBox="0 0 18 18" fill="none" xmlns="http://www.w3.org/2000/svg">
<path d="M6.91271 2.06233H12.3472C12.4127 2.0621 12.4772 2.07822 12.5349 2.10921C12.5926 2.14021 12.6417 2.18511 12.6776 2.23984C12.7136 2.29458 12.7354 2.35742 12.7409 2.42268C12.7465 2.48794 12.7357 2.55356 12.7095 2.61358L10.5832 7.57633H14.1675C14.1975 7.57664 14.2268 7.58552 14.2519 7.60192C14.277 7.61831 14.297 7.64156 14.3093 7.6689C14.3217 7.69625 14.326 7.72656 14.3217 7.75626C14.3175 7.78597 14.3048 7.81384 14.2852 7.83658L6.97571 15.8698C6.95576 15.8997 6.92579 15.9213 6.89122 15.9309C6.85666 15.9406 6.81979 15.9375 6.78731 15.9222C6.75483 15.907 6.72889 15.8806 6.7142 15.8479C6.6995 15.8151 6.69702 15.7782 6.70721 15.7438L7.43246 9.93883H4.07696C4.01179 9.93971 3.94742 9.92444 3.8896 9.89437C3.83178 9.8643 3.78231 9.82037 3.74561 9.76651C3.70891 9.71265 3.68613 9.65054 3.6793 9.58572C3.67247 9.52091 3.6818 9.45541 3.70646 9.39508L6.54146 2.30608C6.57152 2.23268 6.62304 2.17006 6.68928 2.12643C6.75553 2.0828 6.8334 2.06095 6.91271 2.06233Z" stroke="#214999" stroke-width="1.5" stroke-linecap="round" stroke-linejoin="round"/>
</svg>
