<svg width="25" height="24" viewBox="0 0 25 24" fill="none" xmlns="http://www.w3.org/2000/svg">
<path d="M6.41174 15.4033V6.82353C6.41174 6.20925 6.58837 5.71545 6.94163 5.34212C7.29488 4.96878 7.773 4.68267 8.37598 4.48376C8.97896 4.28486 9.68013 4.15498 10.4795 4.09412C11.2789 4.03325 12.119 4.00188 13 4C13.9148 4 14.7706 4.03106 15.5675 4.09318C16.3644 4.15529 17.0618 4.2858 17.6597 4.48471C18.2577 4.68361 18.7286 4.96941 19.0724 5.34212C19.4163 5.71482 19.5882 6.20863 19.5882 6.82353V15.4033C19.5882 16.1594 19.3247 16.8009 18.7976 17.328C18.2712 17.8544 17.6299 18.1176 16.8739 18.1176L18.2856 19.5294V20H17.4884L15.6061 18.1176H10.3939L8.51151 20H7.71527V19.5294L9.12704 18.1176C8.37033 18.1176 7.72876 17.8541 7.20233 17.3271C6.67527 16.8013 6.41174 16.16 6.41174 15.4033ZM13 4.94118C11.1559 4.94118 9.81347 5.06353 8.97268 5.30824C8.1319 5.55231 7.62461 5.91278 7.4508 6.38965H18.5708C18.4077 5.90525 17.9048 5.5429 17.0621 5.30259C16.2194 5.06165 14.8654 4.94118 13 4.94118ZM7.35292 11.5294H12.5294V7.33082H7.35292V11.5294ZM16.8739 12.4706H7.35292H18.647H16.8739ZM13.4706 11.5294H18.647V7.33082H13.4706V11.5294ZM9.70586 15.8739C10.0052 15.8739 10.2549 15.7735 10.455 15.5727C10.6552 15.3719 10.7556 15.1222 10.7562 14.8235C10.7568 14.5249 10.6564 14.2751 10.455 14.0744C10.2536 13.8736 10.0039 13.7732 9.70586 13.7732C9.40782 13.7732 9.1581 13.8736 8.95668 14.0744C8.75527 14.2751 8.65488 14.5249 8.65551 14.8235C8.65614 15.1222 8.75653 15.3719 8.95668 15.5727C9.15684 15.7735 9.40657 15.8739 9.70586 15.8739ZM16.2941 15.8739C16.5934 15.8739 16.8431 15.7735 17.0433 15.5727C17.2434 15.3719 17.3438 15.1222 17.3444 14.8235C17.3451 14.5249 17.2447 14.2751 17.0433 14.0744C16.8419 13.8736 16.5921 13.7732 16.2941 13.7732C15.9961 13.7732 15.7463 13.8736 15.5449 14.0744C15.3435 14.2751 15.2431 14.5249 15.2437 14.8235C15.2444 15.1222 15.3448 15.3719 15.5449 15.5727C15.7451 15.7735 15.9948 15.8739 16.2941 15.8739ZM9.12704 17.1765H16.8729C17.3655 17.1765 17.7843 17.0039 18.1294 16.6588C18.4745 16.3137 18.647 15.8949 18.647 15.4024V12.4706H7.35292V15.4033C7.35292 15.8952 7.52547 16.3137 7.87057 16.6588C8.21566 17.0039 8.63449 17.1765 9.12704 17.1765ZM13 6.38965H18.5708H7.4508H13Z" fill="#B8BABF"/>
</svg>
