<svg width="18" height="18" viewBox="0 0 18 18" fill="none" xmlns="http://www.w3.org/2000/svg">
<path fill-rule="evenodd" clip-rule="evenodd" d="M8.25 3C7.95453 3 7.66194 3.0582 7.38896 3.17127C7.11598 3.28434 6.86794 3.45008 6.65901 3.65901C6.45008 3.86794 6.28434 4.11598 6.17127 4.38896C6.0582 4.66194 6 4.95453 6 5.25C6 5.54547 6.0582 5.83806 6.17127 6.11104C6.28434 6.38402 6.45008 6.63206 6.65901 6.84099C6.86794 7.04992 7.11598 7.21566 7.38896 7.32873C7.66194 7.4418 7.95453 7.5 8.25 7.5C8.84674 7.5 9.41903 7.26295 9.84099 6.84099C10.2629 6.41903 10.5 5.84674 10.5 5.25C10.5 4.65326 10.2629 4.08097 9.84099 3.65901C9.41903 3.23705 8.84674 3 8.25 3ZM4.5 5.25C4.5 4.25544 4.89509 3.30161 5.59835 2.59835C6.30161 1.89509 7.25544 1.5 8.25 1.5C9.24456 1.5 10.1984 1.89509 10.9017 2.59835C11.6049 3.30161 12 4.25544 12 5.25C12 6.24456 11.6049 7.19839 10.9017 7.90165C10.1984 8.60491 9.24456 9 8.25 9C7.25544 9 6.30161 8.60491 5.59835 7.90165C4.89509 7.19839 4.5 6.24456 4.5 5.25ZM3.30975 13.2008C3.0675 13.5083 3 13.7408 3 13.875C3 13.9665 3.02775 14.0633 3.19125 14.1945C3.378 14.3445 3.70275 14.4997 4.19925 14.631C5.18775 14.8935 6.60825 15 8.25 15C8.4165 15 8.581 14.9988 8.7435 14.9963C8.94241 14.9936 9.13424 15.07 9.2768 15.2088C9.41935 15.3475 9.50094 15.5372 9.50362 15.7361C9.50631 15.935 9.42987 16.1269 9.29111 16.2694C9.15236 16.412 8.96266 16.4936 8.76375 16.4963C8.59375 16.4988 8.4225 16.5 8.25 16.5C6.57825 16.5 4.99875 16.395 3.81525 16.0815C3.2265 15.9255 2.67225 15.702 2.25225 15.3645C1.8075 15.0075 1.5 14.5087 1.5 13.875C1.5 13.2847 1.7685 12.7327 2.133 12.2708C2.5035 11.802 3.01575 11.3707 3.6165 11.0033C4.81875 10.2712 6.45375 9.75 8.25 9.75C8.5855 9.75 8.9145 9.7675 9.237 9.8025C9.43482 9.82349 9.6162 9.92219 9.74124 10.0769C9.86628 10.2316 9.92474 10.4297 9.90375 10.6275C9.88276 10.8253 9.78406 11.0067 9.62934 11.1317C9.47462 11.2568 9.27657 11.3152 9.07875 11.2943C8.80825 11.2648 8.532 11.25 8.25 11.25C6.73275 11.25 5.36775 11.6925 4.398 12.2843C3.91275 12.5798 3.546 12.9008 3.30975 13.2008ZM13.737 10.5382C13.5832 10.487 13.4168 10.487 13.263 10.5382L11.013 11.2882C10.8636 11.338 10.7336 11.4335 10.6416 11.5613C10.5495 11.689 10.5 11.8425 10.5 12V13.2533C10.4999 14.0555 10.7956 14.8295 11.3306 15.4273C11.8656 16.0251 12.6022 16.4046 13.3995 16.4932C13.467 16.5007 13.534 16.5007 13.6005 16.4932C14.3978 16.4046 15.1344 16.0251 15.6694 15.4273C16.2044 14.8295 16.5001 14.0555 16.5 13.2533V12C16.5 11.8425 16.4505 11.689 16.3584 11.5613C16.2664 11.4335 16.1364 11.338 15.987 11.2882L13.737 10.5382ZM12 13.2533V12.5408L13.5 12.0405L15 12.5408V13.2533C15 14.1285 14.3588 14.8658 13.5 14.994C13.083 14.9318 12.7021 14.7219 12.4268 14.4026C12.1515 14.0832 12.0001 13.6756 12 13.254V13.2533Z" fill="#214999"/>
</svg>
