<svg width="25" height="24" viewBox="0 0 25 24" fill="none" xmlns="http://www.w3.org/2000/svg">
<path d="M21.7266 19.2727C21.7266 19.4656 21.65 19.6506 21.5136 19.787C21.3772 19.9234 21.1922 20 20.9993 20H7.90842C7.71553 20 7.53055 19.9234 7.39416 19.787C7.25777 19.6506 7.18114 19.4656 7.18114 19.2727C7.18114 19.0798 7.25777 18.8949 7.39416 18.7585C7.53055 18.6221 7.71553 18.5455 7.90842 18.5455H20.9993C21.1922 18.5455 21.3772 18.6221 21.5136 18.7585C21.65 18.8949 21.7266 19.0798 21.7266 19.2727ZM23.9084 12V14.1818C23.9084 14.3747 23.8318 14.5597 23.6954 14.6961C23.559 14.8325 23.374 14.9091 23.1811 14.9091H6.91478C6.13185 14.9127 5.36893 14.6619 4.74083 14.1945C4.11273 13.727 3.65344 13.0683 3.43205 12.3173L2.15296 8.05455C2.0878 7.83745 2.07427 7.60814 2.11346 7.38489C2.15264 7.16164 2.24346 6.95064 2.37866 6.76872C2.51387 6.5868 2.68972 6.439 2.89218 6.3371C3.09464 6.2352 3.31812 6.18202 3.54478 6.18182H4.27205C4.46468 6.18191 4.64941 6.25841 4.78569 6.39455L6.75569 8.36364H8.80024L7.98205 5.91455C7.90914 5.69581 7.88926 5.46288 7.92407 5.23496C7.95888 5.00704 8.04737 4.79066 8.18224 4.60366C8.31712 4.41666 8.49452 4.26441 8.69981 4.15945C8.9051 4.05449 9.1324 3.99984 9.36296 4H10.0902C10.1858 3.99993 10.2804 4.01867 10.3687 4.05517C10.457 4.09167 10.5372 4.14521 10.6048 4.21273L14.7557 8.36364H20.2721C21.2365 8.36364 22.1614 8.74675 22.8434 9.4287C23.5253 10.1107 23.9084 11.0356 23.9084 12ZM22.4539 12C22.4539 11.4213 22.224 10.8664 21.8148 10.4572C21.4057 10.0481 20.8507 9.81818 20.2721 9.81818H14.4539C14.2612 9.81809 14.0765 9.74159 13.9402 9.60546L9.78933 5.45455H9.36296L10.4984 8.86091C10.5348 8.97017 10.5448 9.08651 10.5275 9.20037C10.5101 9.31422 10.466 9.42233 10.3987 9.5158C10.3314 9.60927 10.2429 9.68542 10.1404 9.73799C10.038 9.79056 9.92449 9.81805 9.80933 9.81818H6.45387C6.35834 9.81826 6.26372 9.79951 6.17544 9.76301C6.08715 9.72651 6.00692 9.67297 5.93933 9.60546L3.97114 7.63636H3.54478L4.82387 11.9C4.95686 12.3507 5.23267 12.746 5.60978 13.0264C5.98689 13.3067 6.44487 13.457 6.91478 13.4545H22.4539V12Z" fill="#B8BABF"/>
</svg>
