<svg width="25" height="24" viewBox="0 0 25 24" fill="none" xmlns="http://www.w3.org/2000/svg">
<path d="M22.75 21V9.61C22.75 8.288 22.75 7.626 22.406 7.114C22.062 6.602 21.453 6.356 20.236 5.864L14.236 3.444C13.502 3.148 13.136 3 12.75 3C12.364 3 11.998 3.148 11.264 3.444L5.264 5.864C4.047 6.356 3.438 6.602 3.094 7.114C2.75 7.626 2.75 8.288 2.75 9.61V21M16.75 19V21M8.75 19V21" stroke="#81838C" stroke-linecap="round" stroke-linejoin="round"/>
<path d="M8.25 14L8.493 13.03C8.856 11.575 9.038 10.847 9.581 10.424C10.123 10 10.873 10 12.373 10H13.127C14.627 10 15.377 10 15.919 10.424C16.462 10.847 16.644 11.574 17.007 13.03L17.25 14M9.25 16.49V16.5M16.25 16.49V16.5M17.75 14H7.75C7.48478 14 7.23043 14.1054 7.04289 14.2929C6.85536 14.4804 6.75 14.7348 6.75 15V18C6.75 18.2652 6.85536 18.5196 7.04289 18.7071C7.23043 18.8946 7.48478 19 7.75 19H17.75C18.0152 19 18.2696 18.8946 18.4571 18.7071C18.6446 18.5196 18.75 18.2652 18.75 18V15C18.75 14.7348 18.6446 14.4804 18.4571 14.2929C18.2696 14.1054 18.0152 14 17.75 14Z" stroke="#81838C" stroke-linecap="round" stroke-linejoin="round"/>
</svg>
