<svg width="25" height="24" viewBox="0 0 25 24" fill="none" xmlns="http://www.w3.org/2000/svg">
<path d="M17.75 14C18.0152 14 18.2696 13.8946 18.4571 13.7071C18.6446 13.5196 18.75 13.2652 18.75 13C18.75 12.7348 18.6446 12.4804 18.4571 12.2929C18.2696 12.1054 18.0152 12 17.75 12C17.4848 12 17.2304 12.1054 17.0429 12.2929C16.8554 12.4804 16.75 12.7348 16.75 13C16.75 13.2652 16.8554 13.5196 17.0429 13.7071C17.2304 13.8946 17.4848 14 17.75 14ZM17.75 18C18.0152 18 18.2696 17.8946 18.4571 17.7071C18.6446 17.5196 18.75 17.2652 18.75 17C18.75 16.7348 18.6446 16.4804 18.4571 16.2929C18.2696 16.1054 18.0152 16 17.75 16C17.4848 16 17.2304 16.1054 17.0429 16.2929C16.8554 16.4804 16.75 16.7348 16.75 17C16.75 17.2652 16.8554 17.5196 17.0429 17.7071C17.2304 17.8946 17.4848 18 17.75 18ZM13.75 13C13.75 13.2652 13.6446 13.5196 13.4571 13.7071C13.2696 13.8946 13.0152 14 12.75 14C12.4848 14 12.2304 13.8946 12.0429 13.7071C11.8554 13.5196 11.75 13.2652 11.75 13C11.75 12.7348 11.8554 12.4804 12.0429 12.2929C12.2304 12.1054 12.4848 12 12.75 12C13.0152 12 13.2696 12.1054 13.4571 12.2929C13.6446 12.4804 13.75 12.7348 13.75 13ZM13.75 17C13.75 17.2652 13.6446 17.5196 13.4571 17.7071C13.2696 17.8946 13.0152 18 12.75 18C12.4848 18 12.2304 17.8946 12.0429 17.7071C11.8554 17.5196 11.75 17.2652 11.75 17C11.75 16.7348 11.8554 16.4804 12.0429 16.2929C12.2304 16.1054 12.4848 16 12.75 16C13.0152 16 13.2696 16.1054 13.4571 16.2929C13.6446 16.4804 13.75 16.7348 13.75 17ZM7.75 14C8.01522 14 8.26957 13.8946 8.45711 13.7071C8.64464 13.5196 8.75 13.2652 8.75 13C8.75 12.7348 8.64464 12.4804 8.45711 12.2929C8.26957 12.1054 8.01522 12 7.75 12C7.48478 12 7.23043 12.1054 7.04289 12.2929C6.85536 12.4804 6.75 12.7348 6.75 13C6.75 13.2652 6.85536 13.5196 7.04289 13.7071C7.23043 13.8946 7.48478 14 7.75 14ZM7.75 18C8.01522 18 8.26957 17.8946 8.45711 17.7071C8.64464 17.5196 8.75 17.2652 8.75 17C8.75 16.7348 8.64464 16.4804 8.45711 16.2929C8.26957 16.1054 8.01522 16 7.75 16C7.48478 16 7.23043 16.1054 7.04289 16.2929C6.85536 16.4804 6.75 16.7348 6.75 17C6.75 17.2652 6.85536 17.5196 7.04289 17.7071C7.23043 17.8946 7.48478 18 7.75 18Z" fill="#81838C"/>
<path d="M17.749 1.38574C17.7987 1.38575 17.8469 1.40056 17.8877 1.42773L17.9258 1.45898C17.9727 1.50587 17.999 1.56944 17.999 1.63574V2.92578L18.4609 2.96094C18.7121 2.98026 18.9487 3.00396 19.1709 3.0332V3.03418C20.2181 3.17536 21.0101 3.45311 21.6328 4.01465L21.7549 4.13086C22.3143 4.69137 22.6181 5.39376 22.7861 6.30859L22.8506 6.71387C22.998 7.81299 22.999 9.22917 22.999 11.0801V13.1914C22.999 15.0424 22.998 16.4595 22.8506 17.5576C22.7001 18.674 22.3942 19.5001 21.7549 20.1406C21.1943 20.7005 20.4914 21.0047 19.5762 21.1729L19.1709 21.2373C18.0718 21.3848 16.6556 21.3857 14.8047 21.3857H10.6943C8.84304 21.3857 7.42532 21.3848 6.32715 21.2373H6.32812C5.28091 21.0961 4.48897 20.8184 3.86621 20.2568L3.74414 20.1406C3.18472 19.5801 2.88097 18.8777 2.71289 17.9629L2.64844 17.5576C2.50099 16.4585 2.5 15.0423 2.5 13.1914V11.0801C2.5 10.6331 2.49978 10.2103 2.50195 9.81055L2.51758 8.67773C2.53595 7.92253 2.5733 7.27348 2.64844 6.71387C2.79894 5.59746 3.10485 4.77139 3.74414 4.13086C4.38478 3.49108 5.2113 3.18474 6.32812 3.03418L6.32715 3.0332C6.55031 3.0039 6.78732 2.98028 7.03809 2.96094L7.5 2.92578V1.63574C7.5 1.5695 7.52643 1.50586 7.57324 1.45898C7.61989 1.41234 7.68306 1.386 7.74902 1.38574C7.79874 1.38575 7.84693 1.40056 7.8877 1.42773L7.92578 1.45898C7.97266 1.50587 7.99902 1.56944 7.99902 1.63574V2.9082L8.50879 2.89844C9.16492 2.88555 9.8891 2.88574 10.6924 2.88574H14.8047C15.609 2.88574 16.3331 2.88555 16.9893 2.89844L17.499 2.9082V1.63574C17.499 1.58602 17.5138 1.53784 17.541 1.49707L17.5723 1.45898C17.6191 1.41211 17.6827 1.38574 17.749 1.38574Z" stroke="#81838C"/>
</svg>
