<svg width="25" height="24" viewBox="0 0 25 24" fill="none" xmlns="http://www.w3.org/2000/svg">
<path d="M20.8783 10.9249C20.8318 10.9129 20.7848 10.9022 20.7375 10.8929C20.2526 10.7973 19.7497 10.8465 19.293 11.0341L19.1254 11.11C18.7408 11.302 18.412 11.5901 18.1716 11.9467L18.0747 12.1033C17.8626 12.4748 17.75 12.8951 17.75 13.3241V15.8029H7.74999V13.3241C7.74999 12.8339 7.60314 12.3544 7.32844 11.9467C7.0538 11.5393 6.66359 11.2217 6.20701 11.0341C5.75027 10.8465 5.24738 10.7973 4.76251 10.8929L4.58265 10.9357C4.57804 10.9369 4.57343 10.9382 4.56882 10.9395M20.8783 10.9249C21.3085 11.0357 21.7021 11.2587 22.0176 11.5715C22.3673 11.9182 22.6056 12.3599 22.702 12.8408C22.7984 13.3216 22.7488 13.8202 22.5596 14.2731L22.4831 14.4393C22.2895 14.8206 21.9989 15.1466 21.6392 15.385L21.4813 15.481C21.1066 15.6913 20.6827 15.8029 20.25 15.8029V22H5.24998V15.8029C4.81733 15.8029 4.39338 15.6913 4.01869 15.481L3.86081 15.385C3.50111 15.1466 3.21056 14.8206 3.01689 14.4393L2.94039 14.2731C2.77482 13.8767 2.71612 13.4453 2.76868 13.0215L2.79798 12.8408C2.88239 12.42 3.0751 12.0288 3.35625 11.7055L3.48239 11.5715C3.78496 11.2715 4.15923 11.0545 4.56882 10.9395M20.8783 10.9249V9.68334C20.7107 7.5899 19.7788 5.63749 18.2682 4.21404C16.8518 2.87949 15.0233 2.1011 13.1075 2.00908L12.7231 2C10.6688 2.00006 8.68962 2.7906 7.17891 4.21404L6.9028 4.48637C5.55481 5.8815 4.72599 7.72043 4.56882 9.68334V10.9395M11 6L11.2111 5.89443C12.3373 5.33137 13.6627 5.33137 14.7889 5.89443L15 6" stroke="#81838C" stroke-linecap="round" stroke-linejoin="round"/>
</svg>
