<svg width="14" height="10" viewBox="0 0 14 10" fill="none" xmlns="http://www.w3.org/2000/svg">
<path d="M6.33366 1.5H9.33366C9.72762 1.5 10.1177 1.5776 10.4817 1.72836C10.8457 1.87913 11.1764 2.1001 11.455 2.37868C11.7336 2.65726 11.9545 2.98797 12.1053 3.35195C12.2561 3.71593 12.3337 4.10603 12.3337 4.5C12.3337 4.89397 12.2561 5.28407 12.1053 5.64805C11.9545 6.01203 11.7336 6.34274 11.455 6.62132C11.1764 6.8999 10.8457 7.12087 10.4817 7.27164C10.1177 7.4224 9.72762 7.5 9.33366 7.5H1.66699" stroke="#2E2E2F" stroke-width="1.5" stroke-linecap="round" stroke-linejoin="round"/>
<path d="M3.66699 5.5C3.66699 5.5 1.66699 6.97333 1.66699 7.5C1.66699 8.02667 3.66699 9.5 3.66699 9.5" stroke="#2E2E2F" stroke-linecap="round" stroke-linejoin="round"/>
</svg>
