<svg width="89" height="89" viewBox="0 0 89 89" fill="none" xmlns="http://www.w3.org/2000/svg">
<g opacity="0.6">
<path d="M81.3783 48.4499C83.3564 46.1881 83.3564 42.8119 81.3783 40.5501L77.5804 36.2074C76.4985 34.9703 75.9714 33.3436 76.1222 31.707L76.6502 25.9766C76.9263 22.9796 74.9394 20.2418 72.0045 19.5752L66.418 18.3062C64.8083 17.9405 63.4203 16.9279 62.5808 15.5065L59.65 10.5444C58.1153 7.94591 54.8894 6.89172 52.1164 8.08248L46.8668 10.3367C45.3552 10.9858 43.6435 10.9858 42.1319 10.3367L36.8756 8.0796C34.1055 6.89008 30.8828 7.94076 29.3461 10.5344L26.4232 15.4678C25.5805 16.8902 24.1881 17.9019 22.5748 18.2639L17.0096 19.5126C14.0676 20.1727 12.0725 22.9136 12.3484 25.916L12.8778 31.6775C13.0278 33.3098 12.5034 34.9325 11.4264 36.1684L7.60723 40.5511C5.63585 42.8133 5.63883 46.1841 7.61422 48.4428L11.4189 52.7932C12.5005 54.03 13.0276 55.6561 12.8772 57.2922L12.3471 63.0612C12.0718 66.0577 14.0586 68.7947 16.9929 69.4612L22.5855 70.7316C24.1924 71.0966 25.5785 72.1064 26.4185 73.5241L29.3394 78.4542C30.879 81.0528 34.1102 82.1018 36.8825 80.9032L42.1264 78.636C43.641 77.9811 45.3586 77.979 46.8749 78.6301L52.1231 80.8837C54.8932 82.0733 58.1159 81.0226 59.6526 78.4289L62.5802 73.4875C63.4202 72.0697 64.8063 71.0599 66.4132 70.6949L72.0045 69.4248C74.9394 68.7582 76.9263 66.0204 76.6502 63.0234L76.1222 57.293C75.9714 55.6564 76.4985 54.0297 77.5804 52.7926L81.3783 48.4499ZM34.8927 59.2033L26.166 50.4033C25.8261 50.0641 25.5564 49.6612 25.3724 49.2176C25.1884 48.7741 25.0937 48.2985 25.0937 47.8183C25.0937 47.3381 25.1884 46.8626 25.3724 46.419C25.5564 45.9755 25.8261 45.5726 26.166 45.2333L26.4227 44.9767C27.8527 43.5467 30.1994 43.5467 31.6294 44.9767L36.1171 49.4923C36.898 50.278 38.1688 50.2794 38.9513 49.4953L56.416 31.9967C57.846 30.5667 60.1927 30.5667 61.6227 31.9967L61.8794 32.2533C63.3094 33.6833 63.3094 35.9933 61.8794 37.4233L40.1727 59.2033C38.6693 60.6333 36.3594 60.6333 34.8927 59.2033Z" fill="#99A6BF"/>
</g>
</svg>
