<svg width="24" height="24" viewBox="0 0 24 24" fill="none" xmlns="http://www.w3.org/2000/svg">
<path d="M18.9685 17.999V9.14013C18.9685 8.11191 18.9685 7.59702 18.7116 7.1988C18.4548 6.80058 18.0001 6.60925 17.0914 6.22658L12.6114 4.34436C12.0633 4.11413 11.79 3.99902 11.5018 3.99902C11.2136 3.99902 10.9403 4.11413 10.3923 4.34436L5.91228 6.22658C5.00358 6.60925 4.54886 6.80058 4.29201 7.1988C4.03516 7.59702 4.03516 8.11191 4.03516 9.14013V17.999M14.4885 16.4435V17.999M8.51516 16.4435V17.999M8.00182 12.2694L8.19082 11.5652C8.47316 10.509 8.61471 9.98055 9.03705 9.67348C9.4586 9.36569 10.0419 9.36569 11.2086 9.36569H11.795C12.9617 9.36569 13.545 9.36569 13.9666 9.67348C14.3889 9.98055 14.5305 10.5083 14.8128 11.5652L15.0018 12.2694M8.7796 14.0769V14.0842M14.224 14.0769V14.0842M15.3907 12.2694H7.61293C7.40665 12.2694 7.20882 12.3459 7.06296 12.482C6.9171 12.6182 6.83516 12.8028 6.83516 12.9953V15.1731C6.83516 15.3656 6.9171 15.5503 7.06296 15.6864C7.20882 15.8225 7.40665 15.899 7.61293 15.899H15.3907C15.597 15.899 15.7948 15.8225 15.9407 15.6864C16.0865 15.5503 16.1685 15.3656 16.1685 15.1731V12.9953C16.1685 12.8028 16.0865 12.6182 15.9407 12.482C15.7948 12.3459 15.597 12.2694 15.3907 12.2694Z" stroke="#757575" stroke-linecap="round" stroke-linejoin="round"/>
</svg>
