<svg width="24" height="24" viewBox="0 0 24 24" fill="none" xmlns="http://www.w3.org/2000/svg">
<path d="M11.4971 9.30551C11.7857 9.31491 12.0732 9.26619 12.3426 9.16224C12.612 9.05829 12.8577 8.90123 13.0652 8.70041C13.2727 8.49959 13.4377 8.2591 13.5503 7.99324C13.663 7.72738 13.7211 7.44158 13.7211 7.15284C13.7211 6.86409 13.663 6.57829 13.5503 6.31244C13.4377 6.04658 13.2727 5.80609 13.0652 5.60527C12.8577 5.40444 12.612 5.24739 12.3426 5.14344C12.0732 5.03949 11.7857 4.99076 11.4971 5.00017C10.9259 5.00017 10.3781 5.22708 9.97414 5.631C9.57022 6.03492 9.3433 6.58275 9.3433 7.15398C9.3433 7.72521 9.57022 8.27304 9.97414 8.67696C10.3781 9.08088 10.9259 9.3078 11.4971 9.3078M15.2669 13.0766C15.2669 12.077 14.8698 11.1183 14.1629 10.4114C13.456 9.70454 12.4973 9.30743 11.4977 9.30743C10.498 9.30743 9.53934 9.70454 8.83248 10.4114C8.12562 11.1183 7.72852 12.077 7.72852 13.0766V14.6914H9.34445L9.88233 18.999H13.1142L13.6509 14.6914H15.2669V13.0766Z" stroke="#2E2E2F" stroke-linecap="round" stroke-linejoin="round"/>
</svg>
