<svg width="24" height="24" viewBox="0 0 24 24" fill="none" xmlns="http://www.w3.org/2000/svg">
<path d="M5.11133 13C5.11133 12.7239 4.88747 12.5 4.61133 12.5C4.33519 12.5 4.11133 12.7239 4.11133 13H5.11133ZM19.8891 13C19.8891 12.7239 19.6652 12.5 19.3891 12.5C19.113 12.5 18.8891 12.7239 18.8891 13H19.8891ZM19.3891 16.2222C19.6652 16.2222 19.8891 15.9984 19.8891 15.7222C19.8891 15.4461 19.6652 15.2222 19.3891 15.2222V16.2222ZM4.61133 15.2222C4.33519 15.2222 4.11133 15.4461 4.11133 15.7222C4.11133 15.9984 4.33519 16.2222 4.61133 16.2222V15.2222ZM14.6113 12.6111C14.6113 12.8873 14.8352 13.1111 15.1113 13.1111C15.3875 13.1111 15.6113 12.8873 15.6113 12.6111H14.6113ZM8.38911 12.6111C8.38911 12.8873 8.61296 13.1111 8.88911 13.1111C9.16525 13.1111 9.38911 12.8873 9.38911 12.6111H8.38911ZM12.5002 6C12.5002 5.72386 12.2764 5.5 12.0002 5.5C11.7241 5.5 11.5002 5.72386 11.5002 6H12.5002ZM11.5002 6.77778C11.5002 7.05392 11.7241 7.27778 12.0002 7.27778C12.2764 7.27778 12.5002 7.05392 12.5002 6.77778H11.5002ZM16.7926 7.90912C16.9878 7.71387 16.9879 7.39728 16.7926 7.20201C16.5973 7.00675 16.2808 7.00673 16.0855 7.20199L16.7926 7.90912ZM15.5355 7.75196C15.3402 7.94721 15.3402 8.26379 15.5355 8.45906C15.7307 8.65433 16.0473 8.65434 16.2426 8.45909L15.5355 7.75196ZM7.6871 7.202C7.49184 7.00674 7.17526 7.00674 6.98 7.202C6.78473 7.39726 6.78473 7.71385 6.98 7.90911L7.6871 7.202ZM7.52996 8.45908C7.72523 8.65434 8.04181 8.65434 8.23707 8.45908C8.43233 8.26381 8.43233 7.94723 8.23707 7.75197L7.52996 8.45908ZM4.61133 13H4.11133V19.2222H4.61133H5.11133V13H4.61133ZM4.61133 19.2222H4.11133C4.11133 19.9279 4.68341 20.5 5.38911 20.5V20V19.5C5.23569 19.5 5.11133 19.3756 5.11133 19.2222H4.61133ZM5.38911 20V20.5H18.6113V20V19.5H5.38911V20ZM18.6113 20V20.5C19.317 20.5 19.8891 19.9279 19.8891 19.2222H19.3891H18.8891C18.8891 19.3756 18.7648 19.5 18.6113 19.5V20ZM19.3891 19.2222H19.8891V13H19.3891H18.8891V19.2222H19.3891ZM19.3891 15.7222V15.2222H4.61133V15.7222V16.2222H19.3891V15.7222ZM15.1113 12.6111H15.6113C15.6113 10.6167 13.9946 9 12.0002 9V9.5V10C13.4423 10 14.6113 11.169 14.6113 12.6111H15.1113ZM12.0002 9.5V9C10.0058 9 8.38911 10.6167 8.38911 12.6111H8.88911H9.38911C9.38911 11.169 10.5581 10 12.0002 10V9.5ZM12.0002 6H11.5002V6.77778H12.0002H12.5002V6H12.0002ZM16.439 7.55556L16.0855 7.20199L15.5355 7.75196L15.889 8.10552L16.2426 8.45909L16.7926 7.90912L16.439 7.55556ZM7.33355 7.55556L6.98 7.90911L7.52996 8.45908L7.88352 8.10552L8.23707 7.75197L7.6871 7.202L7.33355 7.55556Z" fill="#757575"/>
</svg>
