<svg width="24" height="24" viewBox="0 0 24 24" fill="none" xmlns="http://www.w3.org/2000/svg">
<path d="M12 5.375C15.659 5.375 18.625 8.34101 18.625 12C18.6259 12.9945 18.4029 13.9769 17.9717 14.873C17.5943 15.6572 17.0661 16.3583 16.4189 16.9365L16.1377 17.1738L15.9707 17.3037L15.1084 17.9746H17.5996C17.6824 17.9747 17.7621 18.0067 17.8223 18.0635C17.8825 18.1203 17.919 18.1986 17.9238 18.2812C17.9286 18.3638 17.9017 18.4453 17.8486 18.5088C17.7963 18.5713 17.7223 18.6115 17.6416 18.6221L17.5938 18.625H12C8.34101 18.625 5.375 15.659 5.375 12C5.375 8.34101 8.34101 5.375 12 5.375ZM12 6.02539C10.4153 6.02539 8.89592 6.65486 7.77539 7.77539C6.65486 8.89592 6.02539 10.4153 6.02539 12C6.02539 13.5847 6.65486 15.1041 7.77539 16.2246C8.89592 17.3451 10.4153 17.9746 12 17.9746C13.5847 17.9746 15.1041 17.3451 16.2246 16.2246C17.3451 15.1041 17.9746 13.5847 17.9746 12C17.9746 10.4153 17.3451 8.89592 16.2246 7.77539C15.1041 6.65486 13.5847 6.02539 12 6.02539ZM12 13.7754C12.2718 13.7754 12.5324 13.883 12.7246 14.0752C12.9168 14.2674 13.0253 14.528 13.0254 14.7998C13.0254 15.0716 12.9168 15.3322 12.7246 15.5244C12.5324 15.7166 12.2718 15.8252 12 15.8252C11.7282 15.8252 11.4676 15.7166 11.2754 15.5244C11.0832 15.3322 10.9746 15.0716 10.9746 14.7998C10.9747 14.528 11.0832 14.2674 11.2754 14.0752C11.4676 13.883 11.7282 13.7754 12 13.7754ZM9.2002 10.9746C9.47197 10.9747 9.73263 11.0832 9.9248 11.2754C10.117 11.4676 10.2246 11.7282 10.2246 12C10.2246 12.2718 10.117 12.5324 9.9248 12.7246C9.73263 12.9168 9.47197 13.0253 9.2002 13.0254C8.9284 13.0254 8.6678 12.9168 8.47559 12.7246C8.28336 12.5324 8.1748 12.2718 8.1748 12C8.1748 11.7282 8.28336 11.4676 8.47559 11.2754C8.6678 11.0832 8.92839 10.9746 9.2002 10.9746ZM14.7998 10.9746C15.0716 10.9746 15.3322 11.0832 15.5244 11.2754C15.7166 11.4676 15.8252 11.7282 15.8252 12C15.8252 12.2718 15.7166 12.5324 15.5244 12.7246C15.3322 12.9168 15.0716 13.0254 14.7998 13.0254C14.528 13.0253 14.2674 12.9168 14.0752 12.7246C13.883 12.5324 13.7754 12.2718 13.7754 12C13.7754 11.7282 13.883 11.4676 14.0752 11.2754C14.2674 11.0832 14.528 10.9747 14.7998 10.9746ZM12 8.1748C12.2718 8.17481 12.5324 8.28336 12.7246 8.47559C12.9168 8.6678 13.0254 8.9284 13.0254 9.2002C13.0253 9.47197 12.9168 9.73263 12.7246 9.9248C12.5324 10.117 12.2718 10.2246 12 10.2246C11.7282 10.2246 11.4676 10.117 11.2754 9.9248C11.0832 9.73263 10.9747 9.47197 10.9746 9.2002C10.9746 8.92839 11.0832 8.6678 11.2754 8.47559C11.4676 8.28336 11.7282 8.1748 12 8.1748Z" fill="#757575" stroke="#757575" stroke-width="0.75"/>
</svg>
