<svg width="24" height="24" viewBox="0 0 24 24" fill="none" xmlns="http://www.w3.org/2000/svg">
<path d="M7.52157 6.52653C7.24574 6.51339 7.01149 6.72635 6.99835 7.00218L6.78431 11.4971C6.77117 11.7729 6.98413 12.0072 7.25996 12.0203C7.53579 12.0334 7.77004 11.8205 7.78318 11.5447L7.97344 7.54918L11.9689 7.73944C12.2447 7.75258 12.479 7.53962 12.4921 7.26379C12.5053 6.98796 12.2923 6.75371 12.0165 6.74057L7.52157 6.52653ZM16.5199 17.4309C16.7957 17.4429 17.0291 17.229 17.0411 16.9531L17.2367 12.4574C17.2487 12.1815 17.0348 11.9481 16.7589 11.9361C16.4831 11.9241 16.2497 12.138 16.2377 12.4139L16.0638 16.4101L12.0676 16.2363C11.7917 16.2243 11.5583 16.4382 11.5463 16.7141C11.5343 16.9899 11.7482 17.2233 12.0241 17.2353L16.5199 17.4309ZM11.8044 11.7632L11.4344 12.0995L11.4358 12.101L11.8044 11.7632ZM19.1255 8.10031H18.6255V16H19.1255H19.6255V8.10031H19.1255ZM16.1255 19V18.5H7.87304V19V19.5H16.1255V19ZM4.87305 16H5.37305V8.02683H4.87305H4.37305V16H4.87305ZM7.89976 5.02695L7.8953 5.52693L16.1478 5.6004L16.1522 5.10042L16.1567 4.60044L7.90421 4.52697L7.89976 5.02695ZM7.49779 7.02596L7.12782 7.3623L11.4344 12.0995L11.8044 11.7632L12.1743 11.4269L7.86776 6.68963L7.49779 7.02596ZM11.8044 11.7632L11.4358 12.101L16.173 17.2693L16.5416 16.9314L16.9102 16.5935L12.1729 11.4253L11.8044 11.7632ZM4.87305 8.02683H5.37305C5.37305 6.63742 6.50595 5.51456 7.8953 5.52693L7.89976 5.02695L7.90421 4.52697C5.95911 4.50965 4.37305 6.08165 4.37305 8.02683H4.87305ZM7.87304 19V18.5C6.49233 18.5 5.37305 17.3807 5.37305 16H4.87305H4.37305C4.37305 17.933 5.94005 19.5 7.87304 19.5V19ZM19.1255 16H18.6255C18.6255 17.3807 17.5063 18.5 16.1255 18.5V19V19.5C18.0585 19.5 19.6255 17.933 19.6255 16H19.1255ZM19.1255 8.10031H19.6255C19.6255 6.17947 18.0775 4.61755 16.1567 4.60044L16.1522 5.10042L16.1478 5.6004C17.5198 5.61262 18.6255 6.72828 18.6255 8.10031H19.1255Z" fill="#757575"/>
</svg>
