<svg width="24" height="24" viewBox="0 0 24 24" fill="none" xmlns="http://www.w3.org/2000/svg">
<path d="M22.0455 22.5V16.1219H21.5899C21.5899 16.1219 14.7562 20.2221 2 22.0444M9.6765 13.8586C10.0305 14.6072 10.1453 15.4468 10.0054 16.263C9.86539 17.0792 9.47742 17.8325 8.89422 18.4204C8.31102 19.0084 7.56089 19.4024 6.74583 19.549C5.93077 19.6956 5.09035 19.5876 4.33885 19.2396C3.58735 18.8917 2.96125 18.3208 2.54569 17.6044C2.13013 16.8881 1.94527 16.0612 2.01626 15.2361C2.08726 14.411 2.41065 13.6278 2.94247 12.993C3.47428 12.3582 4.18871 11.9026 4.9886 11.6882L5.05147 9.83309C5.07135 9.24754 5.27885 8.68388 5.64337 8.2252C6.00788 7.76652 6.51013 7.43709 7.07606 7.28549L8.02548 7.03037L8.96124 10.5228M9.6765 13.8586C9.27265 13.0054 8.58225 12.321 7.7256 11.9245C6.86895 11.5281 5.90036 11.4448 4.9886 11.6891M9.6765 13.8586H9.85509L12.3453 13.1916L12.6496 14.3297C13.0724 15.906 14.0619 16.7014 15.6382 17.1816M7.45692 5.40304C7.45692 5.40304 5.90704 4.92924 5.62914 3.89234C5.57802 3.70161 5.56498 3.50268 5.59075 3.30691C5.61653 3.11114 5.68062 2.92236 5.77936 2.75136C5.8781 2.58036 6.00956 2.43048 6.16623 2.3103C6.3229 2.19011 6.50172 2.10196 6.69246 2.05089C6.88301 1.99996 7.08174 1.98709 7.27727 2.01303C7.4728 2.03896 7.66129 2.10318 7.83198 2.20203C8.00267 2.30087 8.1522 2.43239 8.27202 2.58907C8.39183 2.74574 8.47959 2.9245 8.53027 3.11512C8.80817 4.15202 7.70658 5.33744 7.70658 5.33744L7.45692 5.40304Z" stroke="#757575"/>
</svg>
