<svg width="24" height="24" viewBox="0 0 24 24" fill="none" xmlns="http://www.w3.org/2000/svg">
<path d="M11.2959 17.2815L10.5178 18.0533C9.92096 18.6449 9.11739 18.9811 8.27711 18.9907C7.43682 19.0004 6.62573 18.6828 6.01541 18.1052C5.4051 17.5275 5.04345 16.7351 5.00696 15.8955C4.97047 15.056 5.26202 14.2352 5.81991 13.6067L5.94206 13.4776L12.3859 6.94113L13.553 8.10821L16.2373 5.46983C16.5331 5.17671 16.9304 5.00888 17.3468 5.00125C17.7631 4.99361 18.1664 5.14676 18.4727 5.42883C18.779 5.7109 18.9648 6.1002 18.9915 6.51576C19.0181 6.93132 18.8836 7.34116 18.6158 7.66005L18.5255 7.75808L15.8872 10.4424L17.0542 11.6095L14.2003 14.4237M10.8251 8.49724L15.4935 13.1656M11.2142 16.6668C11.2142 16.9733 11.2745 17.2769 11.3918 17.5601C11.5091 17.8433 11.6811 18.1006 11.8978 18.3173C12.1146 18.5341 12.3719 18.706 12.6551 18.8233C12.9383 18.9406 13.2418 19.001 13.5483 19.001C13.8549 19.001 14.1584 18.9406 14.4416 18.8233C14.7248 18.706 14.9821 18.5341 15.1988 18.3173C15.4156 18.1006 15.5875 17.8433 15.7048 17.5601C15.8221 17.2769 15.8825 16.9733 15.8825 16.6668C15.8825 16.3603 15.8221 16.0568 15.7048 15.7736C15.5875 15.4904 15.4156 15.2331 15.1988 15.0163C14.9821 14.7996 14.7248 14.6276 14.4416 14.5103C14.1584 14.393 13.8549 14.3326 13.5483 14.3326C13.2418 14.3326 12.9383 14.393 12.6551 14.5103C12.3719 14.6276 12.1146 14.7996 11.8978 15.0163C11.6811 15.2331 11.5091 15.4904 11.3918 15.7736C11.2745 16.0568 11.2142 16.3603 11.2142 16.6668Z" stroke="#757575" stroke-linecap="round" stroke-linejoin="round"/>
</svg>
