<svg width="24" height="24" viewBox="0 0 24 24" fill="none" xmlns="http://www.w3.org/2000/svg">
<path d="M9.05039 9.9V7.45C9.05039 7.12826 9.11376 6.80967 9.23689 6.51243C9.36001 6.21518 9.54048 5.94509 9.76798 5.71759C9.99548 5.49008 10.2656 5.30962 10.5628 5.1865C10.8601 5.06337 11.1787 5 11.5004 5C11.8221 5 12.1407 5.06337 12.438 5.1865C12.7352 5.30962 13.0053 5.49008 13.2328 5.71759C13.4603 5.94509 13.6408 6.21518 13.7639 6.51243C13.887 6.80967 13.9504 7.12826 13.9504 7.45V9.9M16.4004 8.5H6.60039C6.41474 8.5 6.23669 8.57375 6.10542 8.70503C5.97414 8.8363 5.90039 9.01435 5.90039 9.2V18.3C5.90039 18.4857 5.97414 18.6637 6.10542 18.795C6.23669 18.9263 6.41474 19 6.60039 19H16.4004C16.586 19 16.7641 18.9263 16.8954 18.795C17.0266 18.6637 17.1004 18.4857 17.1004 18.3V9.2C17.1004 9.01435 17.0266 8.8363 16.8954 8.70503C16.7641 8.57375 16.586 8.5 16.4004 8.5Z" stroke="#757575" stroke-linecap="round" stroke-linejoin="round"/>
</svg>
