<svg width="20" height="20" viewBox="0 0 20 20" fill="none" xmlns="http://www.w3.org/2000/svg">
<rect width="20" height="20" rx="2" fill="#F2F6F7"/>
<path d="M16.3628 9.36301C16.5655 9.64701 16.6668 9.78967 16.6668 9.99967C16.6668 10.2103 16.5655 10.3523 16.3628 10.6363C15.4522 11.9137 13.1262 14.6663 10.0002 14.6663C6.8735 14.6663 4.54816 11.913 3.6375 10.6363C3.43483 10.3523 3.3335 10.2097 3.3335 9.99967C3.3335 9.78901 3.43483 9.64701 3.6375 9.36301C4.54816 8.08567 6.87416 5.33301 10.0002 5.33301C13.1268 5.33301 15.4522 8.08634 16.3628 9.36301Z" stroke="#2E2E2F" stroke-width="0.67" stroke-linecap="round" stroke-linejoin="round"/>
<path d="M12 10C12 9.46957 11.7893 8.96086 11.4142 8.58579C11.0391 8.21071 10.5304 8 10 8C9.46957 8 8.96086 8.21071 8.58579 8.58579C8.21071 8.96086 8 9.46957 8 10C8 10.5304 8.21071 11.0391 8.58579 11.4142C8.96086 11.7893 9.46957 12 10 12C10.5304 12 11.0391 11.7893 11.4142 11.4142C11.7893 11.0391 12 10.5304 12 10Z" stroke="#2E2E2F" stroke-width="0.67" stroke-linecap="round" stroke-linejoin="round"/>
</svg>
