<svg width="841" height="755" viewBox="0 0 841 755" fill="none" xmlns="http://www.w3.org/2000/svg">
<path d="M1.55469 754.05L29.2147 682.91H46.7047L74.3647 754.05H57.0747L51.8947 740.53H24.0047L18.8247 754.05H1.55469ZM29.3147 726.1H46.5047L38.0047 703.33L29.3147 726.1Z" fill="#010101"/>
<path d="M207.773 754.05V682.91H231.063C238.004 682.768 244.873 684.337 251.063 687.48C256.644 690.334 261.335 694.664 264.623 700C267.822 705.612 269.504 711.961 269.504 718.42C269.504 724.88 267.822 731.228 264.623 736.84C261.344 742.233 256.628 746.606 251.003 749.47C244.814 752.616 237.945 754.189 231.003 754.05H207.773ZM224.153 738.6H231.063C234.008 738.631 236.934 738.133 239.703 737.13C242.258 736.201 244.608 734.785 246.623 732.96C248.582 731.174 250.139 728.993 251.193 726.56C252.269 724.002 252.824 721.255 252.824 718.48C252.824 715.705 252.269 712.958 251.193 710.4C250.142 707.967 248.584 705.785 246.623 704C244.611 702.172 242.26 700.756 239.703 699.83C236.935 698.825 234.009 698.323 231.063 698.35H224.153V738.6Z" fill="#010101"/>
<path d="M405.156 754.05V682.91H423.156L442.066 711L461.066 682.95H479.066V754.09H462.706V708.31L442.166 738.4L421.526 708.31V754.05H405.156Z" fill="#010101"/>
<path d="M618.594 754.05V682.91H635.004V754.05H618.594Z" fill="#010101"/>
<path d="M774.484 754.05V682.91H791.664L822.884 726.3V682.91H839.254V754.05H822.884L790.884 709.43V754.05H774.484Z" fill="#010101"/>
<path d="M759.078 453.5C770.087 450.849 781.597 451.108 792.477 454.25L793.115 454.435V454.43C802.598 457.279 811.311 462.249 818.592 468.967C826.036 475.836 831.78 484.344 835.367 493.817C838.955 503.29 840.288 513.467 839.261 523.544C838.234 533.622 834.876 543.322 829.451 551.876C824.027 560.431 816.685 567.605 808.008 572.832C799.331 578.058 789.556 581.193 779.458 581.988C769.36 582.783 759.216 581.216 749.828 577.412C740.44 573.607 732.066 567.67 725.37 560.07L725.104 559.769L724.754 559.962L645.391 603.72L630.054 575.896L710.376 531.628L710.704 531.448L710.623 531.083C708.174 520.027 708.644 508.523 711.985 497.704C715.327 486.884 721.425 477.12 729.682 469.37C737.938 461.62 748.069 456.15 759.078 453.5ZM778.244 471.39C769.237 470.619 760.203 472.537 752.285 476.9C744.368 481.263 737.921 487.876 733.762 495.903C729.602 503.929 727.917 513.009 728.918 521.994C729.919 530.978 733.561 539.465 739.385 546.379C745.208 553.294 752.952 558.326 761.636 560.84H761.637C773.282 564.198 785.784 562.798 796.398 556.949C807.013 551.099 814.873 541.278 818.255 529.64V529.639C820.768 520.955 820.65 511.721 817.915 503.104C815.18 494.487 809.951 486.875 802.89 481.23C795.828 475.585 787.252 472.161 778.244 471.39Z" fill="#00BFA6" stroke="#00BFA6"/>
<path d="M536.572 36.1301C537.831 36.8163 538.882 37.828 539.615 39.0594C540.349 40.2908 540.738 41.6967 540.742 43.1301V523C540.742 583.75 501.492 613 440.742 613H308.742C306.62 613 304.586 612.157 303.085 610.657C301.585 609.157 300.742 607.122 300.742 605V541C300.742 538.878 301.585 536.844 303.085 535.343C304.586 533.843 306.62 533 308.742 533H430.742C447.312 533 460.742 529.57 460.742 513V389C460.742 384.757 459.056 380.687 456.056 377.686C453.055 374.686 448.986 373 444.742 373H409.742C349.542 373 300.742 344.2 300.742 284V43.1501C300.746 41.7167 301.136 40.3108 301.869 39.0794C302.603 37.848 303.654 36.8363 304.912 36.1501L368.912 1.24009C370.129 0.576646 371.497 0.240603 372.883 0.264902C374.268 0.289201 375.624 0.673005 376.816 1.3787C378.009 2.0844 378.998 3.08779 379.686 4.29058C380.374 5.49338 380.738 6.85432 380.742 8.24009V273C380.742 289.57 394.172 293 410.742 293H430.742C447.312 293 460.742 289.57 460.742 273V8.25009C460.746 6.86432 461.11 5.50337 461.799 4.30058C462.487 3.09778 463.476 2.09439 464.668 1.3887C465.861 0.683 467.216 0.299211 468.602 0.274912C469.987 0.250613 471.356 0.586641 472.572 1.25009L536.572 36.1301Z" fill="#214A99"/>
<path d="M240.743 85.5203V605C240.743 607.122 239.9 609.157 238.4 610.657C236.9 612.157 234.865 613 232.743 613H168.743C166.621 613 164.587 612.157 163.086 610.657C161.586 609.157 160.743 607.122 160.743 605V330.41C160.743 329.575 160.482 328.76 159.996 328.081C159.509 327.402 158.823 326.892 158.032 326.623C157.241 326.354 156.386 326.339 155.586 326.581C154.786 326.822 154.083 327.308 153.573 327.97L122.263 368.52C121.804 369.119 121.185 369.576 120.477 369.838C119.769 370.1 119.002 370.156 118.263 370L85.5031 363.29C84.9219 363.172 84.3216 363.184 83.7456 363.326C83.1696 363.468 82.6325 363.736 82.173 364.111C81.7135 364.487 81.3433 364.959 81.0891 365.495C80.8348 366.031 80.703 366.617 80.7031 367.21V605C80.7031 607.122 79.8603 609.157 78.36 610.657C76.8597 612.157 74.8249 613 72.7031 613H8.70312C6.58139 613 4.54657 612.157 3.04628 610.657C1.54599 609.157 0.703125 607.122 0.703125 605V207.7C0.707359 206.267 1.09661 204.861 1.83018 203.63C2.56376 202.398 3.6147 201.386 4.87312 200.7L79.4631 160C80.2912 159.552 81.2509 159.41 82.1731 159.6L118.303 167C119.042 167.156 119.809 167.1 120.517 166.838C121.225 166.576 121.844 166.119 122.303 165.52L160.303 116.35C160.641 115.911 161.067 115.546 161.553 115.28L228.983 78.5003C230.199 77.8528 231.562 77.5303 232.939 77.5639C234.316 77.5976 235.661 77.9863 236.844 78.6923C238.027 79.3984 239.007 80.3979 239.69 81.5942C240.373 82.7904 240.736 84.1427 240.743 85.5203Z" fill="#214A99"/>
<path d="M759.742 159.31L693.072 123L679.742 115.73L613.072 79.3601C611.7 78.6067 610.154 78.2246 608.588 78.2513C607.023 78.2781 605.491 78.7128 604.145 79.5127C602.799 80.3125 601.685 81.4497 600.913 82.8119C600.14 84.1741 599.737 85.7143 599.742 87.2801V603.94C599.742 606.327 600.69 608.616 602.378 610.304C604.066 611.992 606.355 612.94 608.742 612.94H670.742C673.129 612.94 675.418 611.992 677.106 610.304C678.794 608.616 679.742 606.327 679.742 603.94V466.57C679.742 464.951 680.178 463.361 681.005 461.969C681.832 460.577 683.02 459.434 684.442 458.66L694.912 453L759.742 417.64L803.262 393.9C814.302 387.878 823.515 378.994 829.935 368.181C836.354 357.368 839.742 345.025 839.742 332.45V244.5C839.742 231.925 836.354 219.582 829.935 208.769C823.515 197.956 814.302 189.072 803.262 183.05L759.742 159.31ZM759.742 316.81C759.743 323.098 758.049 329.271 754.84 334.678C751.63 340.086 747.023 344.529 741.502 347.54L694.912 373L693.072 374C691.694 374.757 690.141 375.139 688.568 375.109C686.996 375.079 685.459 374.637 684.11 373.827C682.762 373.018 681.649 371.87 680.882 370.496C680.116 369.123 679.723 367.573 679.742 366V210.87C679.746 209.308 680.155 207.775 680.931 206.419C681.707 205.064 682.822 203.934 684.167 203.14C685.511 202.346 687.04 201.916 688.601 201.891C690.162 201.867 691.703 202.249 693.072 203L741.502 229.41C752.742 235.55 759.742 257.33 759.742 270.14V316.81Z" fill="#214A99"/>
<path d="M764.562 490.81C770.049 487.796 776.507 487.081 782.52 488.82C788.534 490.56 793.612 494.612 796.643 500.09" stroke="#00BFA6" stroke-width="11" stroke-miterlimit="10" stroke-linecap="round"/>
</svg>
